{
.appVersion = "1286";
copyright = "Copyright 2014 The Comic Neue Angular Project Authors (https://github.com/crozynski/comicneue)";
customParameters = (
{
name = note;
value = "";
},
{
name = macintoshFONDName;
value = "Comic Neue Angular";
},
{
name = license;
value = "Licensed under the SIL Open Font License. Version 1.1";
},
{
name = licenseURL;
value = "http://scripts.sil.org/OFL";
},
{
name = preferredFamilyName;
value = "Comic Neue Angular";
},
{
name = uniqueID;
value = "2.003;;Comic Neue Angular Oblique";
},
{
name = versionString;
value = "Version 2.003";
},
{
name = codePageRanges;
value = (
1252,
1250
);
},
{
name = openTypeOS2FamilyClass;
value = (
0,
0
);
},
{
name = openTypeOS2Panose;
value = (
2,
0,
0,
0,
0,
0,
0,
0,
0,
0
);
},
{
name = strikeoutPosition;
value = 301;
},
{
name = strikeoutSize;
value = 50;
},
{
name = openTypeOS2SubscriptXOffset;
value = -16;
},
{
name = openTypeOS2SubscriptXSize;
value = 650;
},
{
name = openTypeOS2SubscriptYOffset;
value = 75;
},
{
name = openTypeOS2SubscriptYSize;
value = 600;
},
{
name = openTypeOS2SuperscriptXOffset;
value = 74;
},
{
name = openTypeOS2SuperscriptXSize;
value = 650;
},
{
name = openTypeOS2SuperscriptYOffset;
value = 350;
},
{
name = openTypeOS2SuperscriptYSize;
value = 600;
},
{
name = fsType;
value = (
);
},
{
name = unicodeRanges;
value = (
0,
1,
2
);
},
{
name = vendorID;
value = "    ";
},
{
name = blueFuzz;
value = 1;
},
{
name = blueScale;
value = 0.03963;
},
{
name = blueShift;
value = 7;
},
{
name = postscriptForceBold;
value = 0;
},
{
name = trademark;
value = "-";
}
);
date = "2020-03-11 03:59:29 +0000";
designer = "Craig Rozynski";
designerURL = "http://www.craigrozynski.com";
disablesNiceNames = 1;
familyName = "Comic Neue Angular";
featurePrefixes = (
{
code = "languagesystem DFLT dflt;\012languagesystem latn dflt;\012";
name = Languagesystems;
},
{

glyphs = (
{
glyphname = A;
layers = (
{
layerId = master01;
paths = (
{
closed = 1;
nodes = (
"525 33 LINE",
"471 1 LINE",
"440 261 LINE",
"164 206 LINE",
"44 0 LINE",
"0 26 LINE",
"97 192 LINE",
"55 184 LINE",
"55 238 LINE",
"133 253 LINE",
"376 667 LINE",
"449 680 LINE"
);
},
{
closed = 1;
nodes = (
"434 313 LINE",
"400 607 LINE",
"200 267 LINE"
);
}
);
userData = {
com.fontlab.hintData = {
hhints = (
{
position = 0;
width = 22;
},
{
position = 660;
width = 20;
}
);
};
};
width = 623;
}
);
unicode = 0041;
},
{
glyphname = Aacute;
layers = (
{
layerId = master01;
paths = (
{
closed = 1;
nodes = (
"525 33 LINE",
"471 1 LINE",
"440 261 LINE",
"164 206 LINE",
"44 0 LINE",
"0 26 LINE",
"97 192 LINE",
"55 184 LINE",
"55 238 LINE",
"133 253 LINE",
"376 667 LINE",
"449 680 LINE"
);
},
{
closed = 1;
nodes = (
"434 313 LINE",
"400 607 LINE",
"200 267 LINE"
);
},
{
closed = 1;
nodes = (
"510 893 LINE",
"553 848 LINE",
"367 736 LINE",
"334 771 LINE"
);
}
);
userData = {
com.fontlab.hintData = {
hhints = (
{
position = 0;
width = 22;
},
{
position = 660;
width = 20;
}
);
};
};
width = 623;
}
);
unicode = 00C1;
},
{
glyphname = Abreve;
layers = (
{
layerId = master01;
paths = (
{
closed = 1;
nodes = (
"525 33 LINE",
"471 1 LINE",
"440 261 LINE",
"164 206 LINE",
"44 0 LINE",
"0 26 LINE",
"97 192 LINE",
"55 184 LINE",
"55 238 LINE",
"133 253 LINE",
"376 667 LINE",
"449 680 LINE"
);
},
{
closed = 1;
nodes = (
"434 313 LINE",
"400 607 LINE",
"200 267 LINE"
);
},
{
closed = 1;
nodes = (
"510 785 OFFCURVE",
"546 814 OFFCURVE",
"574 863 CURVE",
"598 832 LINE",
"568 777 OFFCURVE",
"500 739 OFFCURVE",
"437 739 CURVE SMOOTH",
"367 739 OFFCURVE",
"316 775 OFFCURVE",
"303 828 CURVE",
"340 858 LINE",
"361 797 OFFCURVE",
"410 785 OFFCURVE",
"447 785 CURVE SMOOTH"
);
}
);
userData = {
com.fontlab.hintData = {
hhints = (
{
position = 0;
width = 22;
},
{
position = 660;
width = 20;
},
{
position = 739;
width = 46;
}
);
vhints = (
{
position = 303;
width = 37;
}
);
};
};
width = 623;
}
);
unicode = 0102;
},
{
glyphname = Acircumflex;
layers = (
{
layerId = master01;
paths = (
{
closed = 1;
nodes = (
"525 33 LINE",
"471 1 LINE",
"440 261 LINE",
"164 206 LINE",
"44 0 LINE",
"0 26 LINE",
"97 192 LINE",
"55 184 LINE",
"55 238 LINE",
"133 253 LINE",
"376 667 LINE",
"449 680 LINE"
);
},
{
closed = 1;
nodes = (
"434 313 LINE",
"400 607 LINE",
"200 267 LINE"
);
},
{
closed = 1;
nodes = (
"291 760 LINE",
"467 881 LINE",
"570 759 LINE",
"525 719 LINE",
"448 806 LINE",
"315 718 LINE"
);
}
);
userData = {
com.fontlab.hintData = {
hhints = (
{
position = 0;
width = 22;
},
{
position = 660;
width = 20;
}
);
};
};
width = 623;
}
);
unicode = 00C2;
},
{
glyphname = Adieresis;
layers = (
{
layerId = master01;
paths = (
{
closed = 1;
nodes = (
"525 33 LINE",
"471 1 LINE",
"440 261 LINE",
"164 206 LINE",
"44 0 LINE",
"0 26 LINE",
"97 192 LINE",
"55 184 LINE",
"55 238 LINE",
"133 253 LINE",
"376 667 LINE",
"449 680 LINE"
);
},
{
closed = 1;
nodes = (
"434 313 LINE",
"400 607 LINE",
"200 267 LINE"
);
},
{
closed = 1;
nodes = (
"385 737 LINE",
"309 727 LINE",
"335 809 LINE",
"411 819 LINE"
);
},
{
closed = 1;
nodes = (
"546 737 LINE",
"470 727 LINE",
"496 809 LINE",
"572 819 LINE"
);
}
);
userData = {
com.fontlab.hintData = {
hhints = (
{
position = 0;
width = 22;
},
{
position = 660;
width = 20;
}
);
};
};
width = 623;
}
);
unicode = 00C4;
},
{
glyphname = Agrave;
layers = (
{
layerId = master01;
paths = (
{
closed = 1;
nodes = (
"525 33 LINE",
"471 1 LINE",
"440 261 LINE",
"164 206 LINE",
"44 0 LINE",
"0 26 LINE",
"97 192 LINE",
"55 184 LINE",
"55 238 LINE",
"133 253 LINE",
"376 667 LINE",
"449 680 LINE"
);
},
{
closed = 1;
nodes = (
"434 313 LINE",
"400 607 LINE",
"200 267 LINE"
);
},
{
closed = 1;
nodes = (
"469 726 LINE",
"359 866 LINE",
"426 900 LINE",
"521 754 LINE"
);
}
);
userData = {
com.fontlab.hintData = {
hhints = (
{
position = 0;
width = 22;
},
{
position = 660;
width = 20;
}
);
};
};
width = 623;
}
);
unicode = 00C0;
},
{
glyphname = Aogonek;
layers = (
{
layerId = master01;
paths = (
{
closed = 1;
nodes = (
"485 -11 LINE SMOOTH",
"456 -30 OFFCURVE",
"402 -63 OFFCURVE",
"402 -113 CURVE SMOOTH",
"402 -141 OFFCURVE",
"422 -158 OFFCURVE",
"452 -158 CURVE SMOOTH",
"484 -158 OFFCURVE",
"506 -145 OFFCURVE",
"533 -127 CURVE",
"550 -159 LINE",
"528 -180 OFFCURVE",
"484 -201 OFFCURVE",
"443 -201 CURVE SMOOTH",
"392 -201 OFFCURVE",
"359 -169 OFFCURVE",
"359 -122 CURVE SMOOTH",
"359 -60 OFFCURVE",
"417 -5 OFFCURVE",
"468 24 CURVE",
"440 261 LINE",
"164 206 LINE",
"44 0 LINE",
"0 26 LINE",
"97 192 LINE",
"55 184 LINE",
"55 238 LINE",
"133 253 LINE",
"376 667 LINE",
"449 680 LINE",
"527 15 LINE"
);
},
{
closed = 1;
nodes = (
"434 313 LINE",
"400 607 LINE",
"200 267 LINE"
);
}
);
userData = {
com.fontlab.hintData = {
hhints = (
{
position = -201;
width = 43;
},
{
position = 0;
width = 21;
},
{
position = 660;
width = 20;
}
);
vhints = (
{
position = 359;
width = 43;
}
);
};
};
width = 637;
}
);
unicode = 0104;
},
{
glyphname = Aring;
layers = (
{
layerId = master01;
paths = (
{
closed = 1;
nodes = (
"351 721 OFFCURVE",
"315 757 OFFCURVE",
"315 804 CURVE SMOOTH",
"315 875 OFFCURVE",
"396 940 OFFCURVE",
"476 940 CURVE SMOOTH",
"537 940 OFFCURVE",
"570 900 OFFCURVE",
"570 856 CURVE SMOOTH",
"570 770 OFFCURVE",
"476 721 OFFCURVE",
"410 721 CURVE SMOOTH"
);
},
{
closed = 1;
nodes = (
"427 893 OFFCURVE",
"358 864 OFFCURVE",
"358 813 CURVE SMOOTH",
"358 785 OFFCURVE",
"385 767 OFFCURVE",
"422 767 CURVE SMOOTH",
"467 767 OFFCURVE",
"528 800 OFFCURVE",
"528 844 CURVE SMOOTH",
"528 871 OFFCURVE",
"500 893 OFFCURVE",
"463 893 CURVE SMOOTH"
);
},
{
closed = 1;
nodes = (
"525 33 LINE",
"471 1 LINE",
"440 261 LINE",
"164 206 LINE",
"44 0 LINE",
"0 26 LINE",
"97 192 LINE",
"55 184 LINE",
"55 238 LINE",
"133 253 LINE",
"376 667 LINE",
"449 680 LINE"
);
},
{
closed = 1;
nodes = (
"434 313 LINE",
"400 607 LINE",
"200 267 LINE"
);
}
);
userData = {
com.fontlab.hintData = {
hhints = (
{
position = 0;
width = 22;
},
{
position = 660;
width = 20;
},
{
position = 721;
width = 46;
},
{
position = 893;
width = 47;
}
);
vhints = (
{
position = 315;
width = 43;
},
{
position = 528;
width = 42;
}
);
};
};
width = 623;
}
);
unicode = 00C5;
},
{
glyphname = Atilde;
layers = (
{
layerId = master01;
paths = (
{
closed = 1;
nodes = (
"525 33 LINE",
"471 1 LINE",
"440 261 LINE",
"164 206 LINE",
"44 0 LINE",
"0 26 LINE",
"97 192 LINE",
"55 184 LINE",
"55 238 LINE",
"133 253 LINE",
"376 667 LINE",
"449 680 LINE"
);
},
{
closed = 1;
nodes = (
"434 313 LINE",
"400 607 LINE",
"200 267 LINE"
);
},
{
closed = 1;
nodes = (
"528 762 OFFCURVE",
"564 824 OFFCURVE",
"579 853 CURVE",
"624 837 LINE",
"596 772 OFFCURVE",
"538 721 OFFCURVE",
"487 721 CURVE SMOOTH",
"439 721 OFFCURVE",
"420 758 OFFCURVE",
"406 789 CURVE SMOOTH",
"396 811 OFFCURVE",
"388 829 OFFCURVE",
"374 829 CURVE SMOOTH",
"343 829 OFFCURVE",
"306 770 OFFCURVE",
"295 745 CURVE",
"250 763 LINE",
"276 813 OFFCURVE",
"321 870 OFFCURVE",
"382 870 CURVE SMOOTH",
"436 870 OFFCURVE",
"453 826 OFFCURVE",
"467 794 CURVE SMOOTH",
"475 776 OFFCURVE",
"482 762 OFFCURVE",
"495 762 CURVE SMOOTH"
);
}
);
userData = {
com.fontlab.hintData = {
hhints = (
{
position = 0;
width = 22;
},
{
position = 660;
width = 20;
},
{
position = 721;
width = 41;
},
{
position = 829;
width = 41;
}
);
};
};
width = 623;
}
);
unicode = 00C3;
},
{
glyphname = AE;
layers = (
{
layerId = master01;
paths = (
{
closed = 1;
nodes = (
"945 56 LINE",
"914 0 LINE",
"448 0 LINE",
"513 307 LINE",
"282 261 LINE",
"43 0 LINE",
"0 26 LINE",
"202 246 LINE",
"161 237 LINE",
"161 290 LINE",
"261 310 LINE",
"602 681 LINE",
"1073 681 LINE",
"1051 625 LINE",
"636 625 LINE",
"585 382 LINE",
"970 382 LINE",
"941 326 LINE",
"573 326 LINE",
"515 56 LINE"
);
},
{
closed = 1;
nodes = (
"569 572 LINE",
"343 326 LINE",
"524 362 LINE"
);
}
);
userData = {
com.fontlab.hintData = {
hhints = (
{
position = 0;
width = 56;
},
{
position = 326;
width = 56;
},
{
position = 625;
width = 56;
}
);
};
};
width = 1049;
}
);
unicode = 00C6;
},
{
glyphname = B;
layers = (
{
layerId = master01;
paths = (
{
closed = 1;
nodes = (
"154 681 LINE",
"365 681 LINE SMOOTH",
"482 681 OFFCURVE",
"548 630 OFFCURVE",
"548 544 CURVE SMOOTH",
"548 468 OFFCURVE",
"503 402 OFFCURVE",
"414 369 CURVE",
"470 364 OFFCURVE",
"543 315 OFFCURVE",
"543 234 CURVE SMOOTH",
"543 22 OFFCURVE",
"202 0 OFFCURVE",
"77 0 CURVE SMOOTH",
"10 0 LINE"
);
},
{
closed = 1;
nodes = (
"75 54 LINE",
"87 53 OFFCURVE",
"90 53 OFFCURVE",
"99 53 CURVE SMOOTH",
"215 53 OFFCURVE",
"489 81 OFFCURVE",
"489 229 CURVE SMOOTH",
"489 315 OFFCURVE",
"384 332 OFFCURVE",
"318 332 CURVE SMOOTH",
"134 332 LINE"
);
},
{
closed = 1;
nodes = (
"145 385 LINE",
"285 385 LINE SMOOTH",
"368 385 OFFCURVE",
"493 414 OFFCURVE",
"493 534 CURVE SMOOTH",
"493 582 OFFCURVE",
"464 627 OFFCURVE",
"354 627 CURVE SMOOTH",
"197 627 LINE"
);
}
);
userData = {
com.fontlab.hintData = {
hhints = (
{
position = 0;
width = 53;
},
{
position = 332;
width = 53;
},
{
position = 627;
width = 54;
}
);
vhints = (
{
position = 489;
width = 54;
}
);
};
};
width = 602;
}
);
unicode = 0042;
},
{
glyphname = C;
layers = (
{
layerId = master01;
paths = (
{
closed = 1;
nodes = (
"144 -1 OFFCURVE",
"50 94 OFFCURVE",
"50 227 CURVE SMOOTH",
"50 383 OFFCURVE",
"229 681 OFFCURVE",
"435 681 CURVE SMOOTH",
"491 681 OFFCURVE",
"539 665 OFFCURVE",
"572 635 CURVE",
"577 658 LINE",
"623 658 LINE",
"598 539 LINE",
"552 539 LINE",
"557 564 LINE",
"537 594 OFFCURVE",
"499 628 OFFCURVE",
"418 628 CURVE SMOOTH",
"262 628 OFFCURVE",
"104 366 OFFCURVE",
"104 241 CURVE SMOOTH",
"104 134 OFFCURVE",
"179 52 OFFCURVE",
"290 52 CURVE SMOOTH",
"384 52 OFFCURVE",
"467 94 OFFCURVE",
"523 170 CURVE",
"553 131 LINE",
"486 49 OFFCURVE",
"382 -1 OFFCURVE",
"278 -1 CURVE SMOOTH"
);
}
);
userData = {
com.fontlab.hintData = {
hhints = (
{
position = -1;
width = 53;
},
{
position = 628;
width = 53;
}
);
vhints = (
{
position = 50;
width = 54;
}
);
};
};
width = 631;
}
);
unicode = 0043;
},
{
glyphname = Cacute;
layers = (
{
layerId = master01;
paths = (
{
closed = 1;
nodes = (
"144 -1 OFFCURVE",
"50 94 OFFCURVE",
"50 227 CURVE SMOOTH",
"50 383 OFFCURVE",
"229 681 OFFCURVE",
"435 681 CURVE SMOOTH",
"491 681 OFFCURVE",
"539 665 OFFCURVE",
"572 635 CURVE",
"577 658 LINE",
"623 658 LINE",
"598 539 LINE",
"552 539 LINE",
"557 564 LINE",
"537 594 OFFCURVE",
"499 628 OFFCURVE",
"418 628 CURVE SMOOTH",
"262 628 OFFCURVE",
"104 366 OFFCURVE",
"104 241 CURVE SMOOTH",
"104 134 OFFCURVE",
"179 52 OFFCURVE",
"290 52 CURVE SMOOTH",
"384 52 OFFCURVE",
"467 94 OFFCURVE",
"523 170 CURVE",
"553 131 LINE",
"486 49 OFFCURVE",
"382 -1 OFFCURVE",
"278 -1 CURVE SMOOTH"
);
},
{
closed = 1;
nodes = (
"536 893 LINE",
"579 848 LINE",
"393 736 LINE",
"360 771 LINE"
);
}
);
userData = {
com.fontlab.hintData = {
hhints = (
{
position = -1;
width = 53;
},
{
position = 628;
width = 53;
}
);
vhints = (
{
position = 50;
width = 54;
}
);
};
};
width = 631;
}
);
unicode = 0106;
},
{
glyphname = Ccaron;
layers = (
{
layerId = master01;
paths = (
{
closed = 1;
nodes = (
"144 -1 OFFCURVE",
"50 94 OFFCURVE",
"50 227 CURVE SMOOTH",
"50 383 OFFCURVE",
"229 681 OFFCURVE",
"435 681 CURVE SMOOTH",
"491 681 OFFCURVE",
"539 665 OFFCURVE",
"572 635 CURVE",
"577 658 LINE",
"623 658 LINE",
"598 539 LINE",
"552 539 LINE",
"557 564 LINE",
"537 594 OFFCURVE",
"499 628 OFFCURVE",
"418 628 CURVE SMOOTH",
"262 628 OFFCURVE",
"104 366 OFFCURVE",
"104 241 CURVE SMOOTH",
"104 134 OFFCURVE",
"179 52 OFFCURVE",
"290 52 CURVE SMOOTH",
"384 52 OFFCURVE",
"467 94 OFFCURVE",
"523 170 CURVE",
"553 131 LINE",
"486 49 OFFCURVE",
"382 -1 OFFCURVE",
"278 -1 CURVE SMOOTH"
);
},
{
closed = 1;
nodes = (
"613 838 LINE",
"436 718 LINE",
"333 840 LINE",
"378 880 LINE",
"455 792 LINE",
"589 881 LINE"
);
}
);
userData = {
com.fontlab.hintData = {
hhints = (
{
position = -1;
width = 53;
},
{
position = 628;
width = 53;
}
);
vhints = (
{
position = 50;
width = 54;
}
);
};
};
width = 631;
}
);
unicode = 010C;
},
{
glyphname = Ccedilla;
layers = (
{
layerId = master01;
paths = (
{
closed = 1;
nodes = (
"285 -159 OFFCURVE",
"315 -131 OFFCURVE",
"315 -99 CURVE SMOOTH",
"315 -77 OFFCURVE",
"299 -61 OFFCURVE",
"276 -61 CURVE SMOOTH",
"263 -61 OFFCURVE",
"247 -67 OFFCURVE",
"241 -72 CURVE",
"219 -42 LINE",
"243 1 LINE",
"127 15 OFFCURVE",
"50 105 OFFCURVE",
"50 227 CURVE SMOOTH",
"50 383 OFFCURVE",
"229 681 OFFCURVE",
"435 681 CURVE SMOOTH",
"491 681 OFFCURVE",
"539 665 OFFCURVE",
"572 635 CURVE",
"577 658 LINE",
"623 658 LINE",
"598 539 LINE",
"552 539 LINE",
"557 564 LINE",
"537 594 OFFCURVE",
"499 628 OFFCURVE",
"418 628 CURVE SMOOTH",
"262 628 OFFCURVE",
"104 366 OFFCURVE",
"104 241 CURVE SMOOTH",
"104 134 OFFCURVE",
"179 52 OFFCURVE",
"290 52 CURVE SMOOTH",
"384 52 OFFCURVE",
"467 94 OFFCURVE",
"523 170 CURVE",
"553 131 LINE",
"486 49 OFFCURVE",
"381 -1 OFFCURVE",
"277 -1 CURVE",
"273 -19 LINE",
"277 -19 LINE SMOOTH",
"325 -19 OFFCURVE",
"358 -46 OFFCURVE",
"358 -89 CURVE SMOOTH",
"358 -148 OFFCURVE",
"303 -201 OFFCURVE",
"246 -201 CURVE SMOOTH",
"217 -201 OFFCURVE",
"194 -188 OFFCURVE",
"181 -166 CURVE",
"218 -136 LINE",
"220 -149 OFFCURVE",
"239 -159 OFFCURVE",
"255 -159 CURVE SMOOTH"
);
}
);
userData = {
com.fontlab.hintData = {
hhints = (
{
position = -201;
width = 42;
},
{
position = -61;
width = 42;
},
{
position = -1;
width = 53;
},
{
position = 628;
width = 53;
}
);
vhints = (
{
position = 50;
width = 54;
},
{
position = 315;
width = 43;
}
);
};
};
width = 631;
}
);
unicode = 00C7;
},
{
glyphname = Ccircumflex;
layers = (
{
layerId = master01;
paths = (
{
closed = 1;
nodes = (
"144 -1 OFFCURVE",
"50 94 OFFCURVE",
"50 227 CURVE SMOOTH",
"50 383 OFFCURVE",
"229 681 OFFCURVE",
"435 681 CURVE SMOOTH",
"491 681 OFFCURVE",
"539 665 OFFCURVE",
"572 635 CURVE",
"577 658 LINE",
"623 658 LINE",
"598 539 LINE",
"552 539 LINE",
"557 564 LINE",
"537 594 OFFCURVE",
"499 628 OFFCURVE",
"418 628 CURVE SMOOTH",
"262 628 OFFCURVE",
"104 366 OFFCURVE",
"104 241 CURVE SMOOTH",
"104 134 OFFCURVE",
"179 52 OFFCURVE",
"290 52 CURVE SMOOTH",
"384 52 OFFCURVE",
"467 94 OFFCURVE",
"523 170 CURVE",
"553 131 LINE",
"486 49 OFFCURVE",
"382 -1 OFFCURVE",
"278 -1 CURVE SMOOTH"
);
},
{
closed = 1;
nodes = (
"311 760 LINE",
"487 881 LINE",
"590 759 LINE",
"545 719 LINE",
"468 806 LINE",
"335 718 LINE"
);
}
);
userData = {
com.fontlab.hintData = {
hhints = (
{
position = -1;
width = 53;
},
{
position = 628;
width = 53;
}
);
vhints = (
{
position = 50;
width = 54;
}
);
};
};
width = 631;
}
);
unicode = 0108;
},
{
glyphname = D;
layers = (
{
layerId = master01;
paths = (
{
closed = 1;
nodes = (
"154 680 LINE",
"180 680 LINE SMOOTH",
"463 680 OFFCURVE",
"574 542 OFFCURVE",
"574 390 CURVE SMOOTH",
"574 141 OFFCURVE",
"401 -15 OFFCURVE",
"148 -15 CURVE SMOOTH",
"110 -15 OFFCURVE",
"47 -10 OFFCURVE",
"10 1 CURVE"
);
},
{
closed = 1;
nodes = (
"73 45 LINE",
"91 42 OFFCURVE",
"123 39 OFFCURVE",
"160 39 CURVE SMOOTH",
"214 39 OFFCURVE",
"295 47 OFFCURVE",
"365 86 CURVE SMOOTH",
"455 137 OFFCURVE",
"519 245 OFFCURVE",
"519 380 CURVE SMOOTH",
"519 470 OFFCURVE",
"479 537 OFFCURVE",
"399 579 CURVE SMOOTH",
"326 617 OFFCURVE",
"238 626 OFFCURVE",
"197 627 CURVE"
);
}
);
userData = {
com.fontlab.hintData = {
hhints = (
{
position = -15;
width = 54;
},
{
position = 627;
width = 53;
}
);
vhints = (
{
position = 519;
width = 55;
}
);
};
};
width = 616;
}
);
unicode = 0044;
},
{
glyphname = Eth;
layers = (
{
layerId = master01;
paths = (
{
closed = 1;
nodes = (
"131 291 LINE",
"32 291 LINE",
"55 350 LINE",
"144 350 LINE",
"214 680 LINE",
"240 680 LINE SMOOTH",
"523 680 OFFCURVE",
"634 542 OFFCURVE",
"634 390 CURVE SMOOTH",
"634 141 OFFCURVE",
"461 -15 OFFCURVE",
"208 -15 CURVE SMOOTH",
"170 -15 OFFCURVE",
"107 -10 OFFCURVE",
"70 1 CURVE"
);
},
{
closed = 1;
nodes = (
"185 291 LINE",
"133 45 LINE",
"151 42 OFFCURVE",
"183 39 OFFCURVE",
"220 39 CURVE SMOOTH",
"274 39 OFFCURVE",
"355 47 OFFCURVE",
"425 86 CURVE SMOOTH",
"515 137 OFFCURVE",
"579 245 OFFCURVE",
"579 380 CURVE SMOOTH",
"579 470 OFFCURVE",
"539 537 OFFCURVE",
"459 579 CURVE SMOOTH",
"386 617 OFFCURVE",
"298 626 OFFCURVE",
"257 627 CURVE",
"198 350 LINE",
"308 350 LINE",
"285 291 LINE"
);
}
);
userData = {
com.fontlab.hintData = {
hhints = (
{
position = -15;
width = 54;
},
{
position = 291;
width = 59;
},
{
position = 627;
width = 53;
}
);
vhints = (
{
position = 579;
width = 55;
}
);
};
};
width = 676;
}
);
unicode = 00D0;
},
{
glyphname = Dcaron;
layers = (
{
layerId = master01;
paths = (
{
closed = 1;
nodes = (
"540 838 LINE",
"364 718 LINE",
"261 840 LINE",
"306 880 LINE",
"383 792 LINE",
"516 881 LINE"
);
},
{
closed = 1;
nodes = (
"154 680 LINE",
"180 680 LINE SMOOTH",
"463 680 OFFCURVE",
"574 542 OFFCURVE",
"574 390 CURVE SMOOTH",
"574 141 OFFCURVE",
"401 -15 OFFCURVE",
"148 -15 CURVE SMOOTH",
"110 -15 OFFCURVE",
"47 -10 OFFCURVE",
"10 1 CURVE"
);
},
{
closed = 1;
nodes = (
"73 45 LINE",
"91 42 OFFCURVE",
"123 39 OFFCURVE",
"160 39 CURVE SMOOTH",
"214 39 OFFCURVE",
"295 47 OFFCURVE",
"365 86 CURVE SMOOTH",
"455 137 OFFCURVE",
"519 245 OFFCURVE",
"519 380 CURVE SMOOTH",
"519 470 OFFCURVE",
"479 537 OFFCURVE",
"399 579 CURVE SMOOTH",
"326 617 OFFCURVE",
"238 626 OFFCURVE",
"197 627 CURVE"
);
}
);
userData = {
com.fontlab.hintData = {
hhints = (
{
position = -15;
width = 54;
},
{
position = 627;
width = 53;
}
);
vhints = (
{
position = 519;
width = 55;
}
);
};
};
width = 616;
}
);
unicode = 010E;
},
{
glyphname = Dcroat;
layers = (
{
layerId = master01;
paths = (
{
closed = 1;
nodes = (
"131 291 LINE",
"32 291 LINE",
"55 350 LINE",
"144 350 LINE",
"214 680 LINE",
"240 680 LINE SMOOTH",
"523 680 OFFCURVE",
"634 542 OFFCURVE",
"634 390 CURVE SMOOTH",
"634 141 OFFCURVE",
"461 -15 OFFCURVE",
"208 -15 CURVE SMOOTH",
"170 -15 OFFCURVE",
"107 -10 OFFCURVE",
"70 1 CURVE"
);
},
{
closed = 1;
nodes = (
"185 291 LINE",
"133 45 LINE",
"151 42 OFFCURVE",
"183 39 OFFCURVE",
"220 39 CURVE SMOOTH",
"274 39 OFFCURVE",
"355 47 OFFCURVE",
"425 86 CURVE SMOOTH",
"515 137 OFFCURVE",
"579 245 OFFCURVE",
"579 380 CURVE SMOOTH",
"579 470 OFFCURVE",
"539 537 OFFCURVE",
"459 579 CURVE SMOOTH",
"386 617 OFFCURVE",
"298 626 OFFCURVE",
"257 627 CURVE",
"198 350 LINE",
"308 350 LINE",
"285 291 LINE"
);
}
);
userData = {
com.fontlab.hintData = {
hhints = (
{
position = -15;
width = 54;
},
{
position = 291;
width = 59;
},
{
position = 627;
width = 53;
}
);
vhints = (
{
position = 579;
width = 55;
}
);
};
};
width = 676;
}
);
unicode = 0110;
},
{
glyphname = E;
layers = (
{
layerId = master01;
paths = (
{
closed = 1;
nodes = (
"507 56 LINE",
"476 0 LINE",
"10 0 LINE",
"154 681 LINE",
"635 681 LINE",
"613 625 LINE",
"198 625 LINE",
"147 382 LINE",
"532 382 LINE",
"503 326 LINE",
"135 326 LINE",
"77 56 LINE"
);
}
);
userData = {
com.fontlab.hintData = {
hhints = (
{
position = 0;
width = 56;
},
{
position = 326;
width = 56;
},
{
position = 625;
width = 56;
}
);
};
};
width = 611;
}
);
unicode = 0045;
},
{
glyphname = Eacute;
layers = (
{
layerId = master01;
paths = (
{
closed = 1;
nodes = (
"507 56 LINE",
"476 0 LINE",
"10 0 LINE",
"154 681 LINE",
"635 681 LINE",
"613 625 LINE",
"198 625 LINE",
"147 382 LINE",
"532 382 LINE",
"503 326 LINE",
"135 326 LINE",
"77 56 LINE"
);
},
{
closed = 1;
nodes = (
"482 893 LINE",
"526 848 LINE",
"340 736 LINE",
"306 771 LINE"
);
}
);
userData = {
com.fontlab.hintData = {
hhints = (
{
position = 0;
width = 56;
},
{
position = 326;
width = 56;
},
{
position = 625;
width = 56;
}
);
};
};
width = 611;
}
);
unicode = 00C9;
},
{
glyphname = Ecaron;
layers = (
{
layerId = master01;
paths = (
{
closed = 1;
nodes = (
"507 56 LINE",
"476 0 LINE",
"10 0 LINE",
"154 681 LINE",
"635 681 LINE",
"613 625 LINE",
"198 625 LINE",
"147 382 LINE",
"532 382 LINE",
"503 326 LINE",
"135 326 LINE",
"77 56 LINE"
);
},
{
closed = 1;
nodes = (
"570 838 LINE",
"393 718 LINE",
"290 840 LINE",
"335 880 LINE",
"412 792 LINE",
"546 881 LINE"
);
}
);
userData = {
com.fontlab.hintData = {
hhints = (
{
position = 0;
width = 56;
},
{
position = 326;
width = 56;
},
{
position = 625;
width = 56;
}
);
};
};
width = 611;
}
);
unicode = 011A;
},
{
glyphname = Ecircumflex;
layers = (
{
layerId = master01;
paths = (
{
closed = 1;
nodes = (
"507 56 LINE",
"476 0 LINE",
"10 0 LINE",
"154 681 LINE",
"635 681 LINE",
"613 625 LINE",
"198 625 LINE",
"147 382 LINE",
"532 382 LINE",
"503 326 LINE",
"135 326 LINE",
"77 56 LINE"
);
},
{
closed = 1;
nodes = (
"273 760 LINE",
"449 881 LINE",
"552 759 LINE",
"507 719 LINE",
"430 806 LINE",
"297 718 LINE"
);
}
);
userData = {
com.fontlab.hintData = {
hhints = (
{
position = 0;
width = 56;
},
{
position = 326;
width = 56;
},
{
position = 625;
width = 56;
}
);
};
};
width = 611;
}
);
unicode = 00CA;
},
{
glyphname = Edieresis;
layers = (
{
layerId = master01;
paths = (
{
closed = 1;
nodes = (
"507 56 LINE",
"476 0 LINE",
"10 0 LINE",
"154 681 LINE",
"635 681 LINE",
"613 625 LINE",
"198 625 LINE",
"147 382 LINE",
"532 382 LINE",
"503 326 LINE",
"135 326 LINE",
"77 56 LINE"
);
},
{
closed = 1;
nodes = (
"364 737 LINE",
"288 727 LINE",
"314 809 LINE",
"390 819 LINE"
);
},
{
closed = 1;
nodes = (
"525 737 LINE",
"449 727 LINE",
"475 809 LINE",
"551 819 LINE"
);
}
);
userData = {
com.fontlab.hintData = {
hhints = (
{
position = 0;
width = 56;
},
{
position = 326;
width = 56;
},
{
position = 625;
width = 56;
}
);
};
};
width = 611;
}
);
unicode = 00CB;
},
{
glyphname = Egrave;
layers = (
{
layerId = master01;
paths = (
{
closed = 1;
nodes = (
"507 56 LINE",
"476 0 LINE",
"10 0 LINE",
"154 681 LINE",
"635 681 LINE",
"613 625 LINE",
"198 625 LINE",
"147 382 LINE",
"532 382 LINE",
"503 326 LINE",
"135 326 LINE",
"77 56 LINE"
);
},
{
closed = 1;
nodes = (
"428 726 LINE",
"318 866 LINE",
"385 900 LINE",
"480 754 LINE"
);
}
);
userData = {
com.fontlab.hintData = {
hhints = (
{
position = 0;
width = 56;
},
{
position = 326;
width = 56;
},
{
position = 625;
width = 56;
}
);
};
};
width = 611;
}
);
unicode = 00C8;
},
{
glyphname = Eogonek;
layers = (
{
layerId = master01;
paths = (
{
closed = 1;
nodes = (
"473 -159 LINE",
"451 -180 OFFCURVE",
"407 -201 OFFCURVE",
"366 -201 CURVE SMOOTH",
"315 -201 OFFCURVE",
"282 -169 OFFCURVE",
"282 -122 CURVE SMOOTH",
"282 -75 OFFCURVE",
"316 -31 OFFCURVE",
"356 0 CURVE",
"10 0 LINE",
"154 681 LINE",
"635 681 LINE",
"613 625 LINE",
"198 625 LINE",
"147 382 LINE",
"532 382 LINE",
"503 326 LINE",
"135 326 LINE",
"77 56 LINE",
"507 56 LINE",
"476 0 LINE",
"426 0 LINE",
"408 -11 LINE SMOOTH",
"377 -30 OFFCURVE",
"325 -64 OFFCURVE",
"325 -113 CURVE SMOOTH",
"325 -141 OFFCURVE",
"345 -158 OFFCURVE",
"375 -158 CURVE SMOOTH",
"407 -158 OFFCURVE",
"429 -145 OFFCURVE",
"456 -127 CURVE"
);
}
);
userData = {
com.fontlab.hintData = {
hhints = (
{
position = -201;
width = 43;
},
{
position = 0;
width = 56;
},
{
position = 326;
width = 56;
},
{
position = 625;
width = 56;
}
);
vhints = (
{
position = 282;
width = 43;
}
);
};
};
width = 611;
}
);
unicode = 0118;
},
{
glyphname = F;
layers = (
{
layerId = master01;
paths = (
{
closed = 1;
nodes = (
"193 625 LINE",
"140 374 LINE",
"478 374 LINE",
"456 317 LINE",
"128 317 LINE",
"63 10 LINE",
"5 0 LINE",
"149 681 LINE",
"594 681 LINE",
"572 625 LINE"
);
}
);
userData = {
com.fontlab.hintData = {
hhints = (
{
position = 0;
width = 21;
},
{
position = 317;
width = 57;
},
{
position = 625;
width = 56;
}
);
};
};
width = 505;
}
);
unicode = 0046;
},
{
glyphname = G;
layers = (
{
layerId = master01;
paths = (
{
closed = 1;
nodes = (
"620 182 OFFCURVE",
"531 -2 OFFCURVE",
"299 -2 CURVE SMOOTH",
"154 -2 OFFCURVE",
"67 104 OFFCURVE",
"67 252 CURVE SMOOTH",
"67 445 OFFCURVE",
"241 682 OFFCURVE",
"463 682 CURVE SMOOTH",
"614 682 OFFCURVE",
"692 598 OFFCURVE",
"696 477 CURVE",
"641 466 LINE",
"637 565 OFFCURVE",
"575 629 OFFCURVE",
"452 629 CURVE SMOOTH",
"274 629 OFFCURVE",
"123 440 OFFCURVE",
"123 265 CURVE SMOOTH",
"123 151 OFFCURVE",
"181 52 OFFCURVE",
"311 52 CURVE SMOOTH",
"438 52 OFFCURVE",
"534 120 OFFCURVE",
"588 235 CURVE",
"579 236 OFFCURVE",
"567 236 OFFCURVE",
"562 236 CURVE SMOOTH",
"502 236 OFFCURVE",
"435 224 OFFCURVE",
"395 208 CURVE",
"407 266 LINE",
"456 281 OFFCURVE",
"518 289 OFFCURVE",
"576 289 CURVE SMOOTH",
"617 289 OFFCURVE",
"656 285 OFFCURVE",
"687 277 CURVE",
"675 221 LINE",
"667 224 OFFCURVE",
"653 229 OFFCURVE",
"640 230 CURVE"
);
}
);
userData = {
com.fontlab.hintData = {
hhints = (
{
position = -2;
width = 54;
},
{
position = 236;
width = 53;
},
{
position = 629;
width = 53;
}
);
vhints = (
{
position = 67;
width = 56;
},
{
position = 641;
width = 55;
}
);
};
};
width = 744;
}
);
unicode = 0047;
},
{
glyphname = Gcircumflex;
layers = (
{
layerId = master01;
paths = (
{
closed = 1;
nodes = (
"620 182 OFFCURVE",
"531 -2 OFFCURVE",
"299 -2 CURVE SMOOTH",
"154 -2 OFFCURVE",
"67 104 OFFCURVE",
"67 252 CURVE SMOOTH",
"67 445 OFFCURVE",
"241 682 OFFCURVE",
"463 682 CURVE SMOOTH",
"614 682 OFFCURVE",
"692 598 OFFCURVE",
"696 477 CURVE",
"641 466 LINE",
"637 565 OFFCURVE",
"575 629 OFFCURVE",
"452 629 CURVE SMOOTH",
"274 629 OFFCURVE",
"123 440 OFFCURVE",
"123 265 CURVE SMOOTH",
"123 151 OFFCURVE",
"181 52 OFFCURVE",
"311 52 CURVE SMOOTH",
"438 52 OFFCURVE",
"534 120 OFFCURVE",
"588 235 CURVE",
"579 236 OFFCURVE",
"567 236 OFFCURVE",
"562 236 CURVE SMOOTH",
"502 236 OFFCURVE",
"435 224 OFFCURVE",
"395 208 CURVE",
"407 266 LINE",
"456 281 OFFCURVE",
"518 289 OFFCURVE",
"576 289 CURVE SMOOTH",
"617 289 OFFCURVE",
"656 285 OFFCURVE",
"687 277 CURVE",
"675 221 LINE",
"667 224 OFFCURVE",
"653 229 OFFCURVE",
"640 230 CURVE"
);
},
{
closed = 1;
nodes = (
"331 760 LINE",
"507 881 LINE",
"610 759 LINE",
"565 719 LINE",
"488 806 LINE",
"355 718 LINE"
);
}
);
userData = {
com.fontlab.hintData = {
hhints = (
{
position = -2;
width = 54;
},
{
position = 236;
width = 53;
},
{
position = 629;
width = 53;
}
);
vhints = (
{
position = 67;
width = 56;
},
{
position = 641;
width = 55;
}
);
};
};
width = 744;
}
);
unicode = 011C;
},
{
glyphname = H;
layers = (
{
layerId = master01;
paths = (
{
closed = 1;
nodes = (
"707 681 LINE",
"567 20 LINE",
"507 0 LINE",
"581 349 LINE",
"127 287 LINE",
"70 20 LINE",
"10 0 LINE",
"152 671 LINE",
"210 681 LINE",
"139 344 LINE",
"593 406 LINE",
"649 671 LINE"
);
}
);
userData = {
com.fontlab.hintData = {
hhints = (
{
position = 0;
width = 21;
},
{
position = 661;
width = 20;
}
);
};
};
width = 683;
}
);
unicode = 0048;
},
{
glyphname = Hcircumflex;
layers = (
{
layerId = master01;
paths = (
{
closed = 1;
nodes = (
"707 681 LINE",
"567 20 LINE",
"507 0 LINE",
"581 349 LINE",
"127 287 LINE",
"70 20 LINE",
"10 0 LINE",
"152 671 LINE",
"210 681 LINE",
"139 344 LINE",
"593 406 LINE",
"649 671 LINE"
);
},
{
closed = 1;
nodes = (
"301 760 LINE",
"477 881 LINE",
"580 759 LINE",
"535 719 LINE",
"458 806 LINE",
"325 718 LINE"
);
}
);
userData = {
com.fontlab.hintData = {
hhints = (
{
position = 0;
width = 21;
},
{
position = 661;
width = 20;
}
);
};
};
width = 683;
}
);
unicode = 0124;
},
{
glyphname = I;
layers = (
{
layerId = master01;
paths = (
{
closed = 1;
nodes = (
"326 625 LINE",
"205 56 LINE",
"333 56 LINE",
"312 0 LINE",
"5 0 LINE",
"26 56 LINE",
"149 56 LINE",
"270 625 LINE",
"137 625 LINE",
"159 681 LINE",
"466 681 LINE",
"444 625 LINE"
);
}
);
userData = {
com.fontlab.hintData = {
hhints = (
{
position = 0;
width = 56;
},
{
position = 625;
width = 56;
}
);
};
};
width = 437;
}
);
unicode = 0049;
},
{
glyphname = Iacute;
layers = (
{
layerId = master01;
paths = (
{
closed = 1;
nodes = (
"326 625 LINE",
"205 56 LINE",
"333 56 LINE",
"312 0 LINE",
"5 0 LINE",
"26 56 LINE",
"149 56 LINE",
"270 625 LINE",
"137 625 LINE",
"159 681 LINE",
"466 681 LINE",
"444 625 LINE"
);
},
{
closed = 1;
nodes = (
"408 893 LINE",
"452 848 LINE",
"266 736 LINE",
"232 771 LINE"
);
}
);
userData = {
com.fontlab.hintData = {
hhints = (
{
position = 0;
width = 56;
},
{
position = 625;
width = 56;
}
);
};
};
width = 437;
}
);
unicode = 00CD;
},
{
glyphname = Icircumflex;
layers = (
{
layerId = master01;
paths = (
{
closed = 1;
nodes = (
"326 625 LINE",
"205 56 LINE",
"333 56 LINE",
"312 0 LINE",
"5 0 LINE",
"26 56 LINE",
"149 56 LINE",
"270 625 LINE",
"137 625 LINE",
"159 681 LINE",
"466 681 LINE",
"444 625 LINE"
);
},
{
closed = 1;
nodes = (
"187 760 LINE",
"363 881 LINE",
"466 759 LINE",
"421 719 LINE",
"344 806 LINE",
"211 718 LINE"
);
}
);
userData = {
com.fontlab.hintData = {
hhints = (
{
position = 0;
width = 56;
},
{
position = 625;
width = 56;
}
);
};
};
width = 437;
}
);
unicode = 00CE;
},
{
glyphname = Idieresis;
layers = (
{
layerId = master01;
paths = (
{
closed = 1;
nodes = (
"326 625 LINE",
"205 56 LINE",
"333 56 LINE",
"312 0 LINE",
"5 0 LINE",
"26 56 LINE",
"149 56 LINE",
"270 625 LINE",
"137 625 LINE",
"159 681 LINE",
"466 681 LINE",
"444 625 LINE"
);
},
{
closed = 1;
nodes = (
"278 737 LINE",
"202 727 LINE",
"228 809 LINE",
"304 819 LINE"
);
},
{
closed = 1;
nodes = (
"439 737 LINE",
"363 727 LINE",
"389 809 LINE",
"465 819 LINE"
);
}
);
userData = {
com.fontlab.hintData = {
hhints = (
{
position = 0;
width = 56;
},
{
position = 625;
width = 56;
}
);
};
};
width = 437;
}
);
unicode = 00CF;
},
{
glyphname = Igrave;
layers = (
{
layerId = master01;
paths = (
{
closed = 1;
nodes = (
"326 625 LINE",
"205 56 LINE",
"333 56 LINE",
"312 0 LINE",
"5 0 LINE",
"26 56 LINE",
"149 56 LINE",
"270 625 LINE",
"137 625 LINE",
"159 681 LINE",
"466 681 LINE",
"444 625 LINE"
);
},
{
closed = 1;
nodes = (
"357 726 LINE",
"247 866 LINE",
"314 900 LINE",
"409 754 LINE"
);
}
);
userData = {
com.fontlab.hintData = {
hhints = (
{
position = 0;
width = 56;
},
{
position = 625;
width = 56;
}
);
};
};
width = 437;
}
);
unicode = 00CC;
},
{
glyphname = J;
layers = (
{
layerId = master01;
paths = (
{
closed = 1;
nodes = (
"538 679 LINE",
"526 622 LINE",
"475 622 LINE",
"377 162 LINE SMOOTH",
"357 67 OFFCURVE",
"272 1 OFFCURVE",
"169 1 CURVE SMOOTH",
"81 1 OFFCURVE",
"25 52 OFFCURVE",
"25 127 CURVE SMOOTH",
"25 138 OFFCURVE",
"26 150 OFFCURVE",
"29 162 CURVE SMOOTH",
"36 197 LINE",
"94 207 LINE",
"85 162 LINE SMOOTH",
"83 154 OFFCURVE",
"82 146 OFFCURVE",
"82 138 CURVE SMOOTH",
"82 87 OFFCURVE",
"119 52 OFFCURVE",
"180 52 CURVE SMOOTH",
"252 52 OFFCURVE",
"307 98 OFFCURVE",
"321 162 CURVE SMOOTH",
"419 622 LINE",
"265 622 LINE",
"277 679 LINE"
);
}
);
userData = {
com.fontlab.hintData = {
hhints = (
{
position = 1;
width = 51;
},
{
position = 622;
width = 57;
}
);
vhints = (
{
position = 25;
width = 57;
}
);
};
};
width = 469;
}
);
unicode = 004A;
},
{
glyphname = Jcircumflex;
layers = (
{
layerId = master01;
paths = (
{
closed = 1;
nodes = (
"538 679 LINE",
"526 622 LINE",
"475 622 LINE",
"377 162 LINE SMOOTH",
"357 67 OFFCURVE",
"272 1 OFFCURVE",
"169 1 CURVE SMOOTH",
"81 1 OFFCURVE",
"25 52 OFFCURVE",
"25 127 CURVE SMOOTH",
"25 138 OFFCURVE",
"26 150 OFFCURVE",
"29 162 CURVE SMOOTH",
"36 197 LINE",
"94 207 LINE",
"85 162 LINE SMOOTH",
"83 154 OFFCURVE",
"82 146 OFFCURVE",
"82 138 CURVE SMOOTH",
"82 87 OFFCURVE",
"119 52 OFFCURVE",
"180 52 CURVE SMOOTH",
"252 52 OFFCURVE",
"307 98 OFFCURVE",
"321 162 CURVE SMOOTH",
"419 622 LINE",
"265 622 LINE",
"277 679 LINE"
);
},
{
closed = 1;
nodes = (
"291 760 LINE",
"467 881 LINE",
"570 759 LINE",
"525 719 LINE",
"448 806 LINE",
"315 718 LINE"
);
}
);
userData = {
com.fontlab.hintData = {
hhints = (
{
position = 1;
width = 51;
},
{
position = 622;
width = 57;
}
);
vhints = (
{
position = 25;
width = 57;
}
);
};
};
width = 469;
}
);
unicode = 0134;
},
{
glyphname = K;
layers = (
{
layerId = master01;
paths = (
{
closed = 1;
nodes = (
"439 0 LINE",
"124 285 LINE",
"66 10 LINE",
"10 0 LINE",
"152 671 LINE",
"208 681 LINE",
"146 388 LINE",
"555 680 LINE",
"581 639 LINE",
"156 336 LINE",
"481 43 LINE"
);
}
);
userData = {
com.fontlab.hintData = {
hhints = (
{
position = 0;
width = 21;
},
{
position = 661;
width = 20;
}
);
};
};
width = 577;
}
);
unicode = 004B;
},
{
glyphname = L;
layers = (
{
layerId = master01;
paths = (
{
closed = 1;
nodes = (
"151 668 LINE",
"210 678 LINE",
"78 60 LINE",
"425 85 LINE",
"417 29 LINE",
"10 0 LINE"
);
}
);
userData = {
com.fontlab.hintData = {
hhints = (
{
position = 0;
width = 21;
}
);
};
};
width = 487;
}
);
unicode = 004C;
},
{
glyphname = Lacute;
layers = (
{
layerId = master01;
paths = (
{
closed = 1;
nodes = (
"151 668 LINE",
"210 678 LINE",
"78 60 LINE",
"425 85 LINE",
"417 29 LINE",
"10 0 LINE"
);
},
{
closed = 1;
nodes = (
"397 893 LINE",
"440 848 LINE",
"254 736 LINE",
"221 771 LINE"
);
}
);
userData = {
com.fontlab.hintData = {
hhints = (
{
position = 0;
width = 21;
}
);
};
};
width = 487;
}
);
unicode = 0139;
},
{
glyphname = Lcaron;
layers = (
{
layerId = master01;
paths = (
{
closed = 1;
nodes = (
"196 668 LINE",
"255 678 LINE",
"123 60 LINE",
"470 85 LINE",
"462 29 LINE",
"55 0 LINE"
);
},
{
closed = 1;
nodes = (
"467 838 LINE",
"291 718 LINE",
"188 840 LINE",
"233 880 LINE",
"310 792 LINE",
"443 881 LINE"
);
}
);
userData = {
com.fontlab.hintData = {
hhints = (
{
position = 0;
width = 21;
}
);
};
};
width = 532;
}
);
unicode = 013D;
},
{
glyphname = Lslash;
layers = (
{
layerId = master01;
paths = (
{
closed = 1;
nodes = (
"72 0 LINE",
"134 295 LINE",
"74 261 LINE",
"52 308 LINE",
"148 362 LINE",
"213 668 LINE",
"272 678 LINE",
"212 397 LINE",
"273 432 LINE",
"294 384 LINE",
"198 330 LINE",
"140 60 LINE",
"487 85 LINE",
"479 29 LINE"
);
}
);
userData = {
com.fontlab.hintData = {
hhints = (
{
position = 0;
width = 21;
}
);
};
};
width = 549;
}
);
unicode = 0141;
},
{
glyphname = M;
layers = (
{
layerId = master01;
paths = (
{
closed = 1;
nodes = (
"53 10 LINE",
"-5 0 LINE",
"277 671 LINE",
"332 681 LINE",
"376 65 LINE",
"699 671 LINE",
"758 681 LINE",
"762 10 LINE",
"702 0 LINE",
"702 573 LINE",
"403 10 LINE",
"325 0 LINE",
"284 557 LINE"
);
}
);
userData = {
com.fontlab.hintData = {
hhints = (
{
position = 0;
width = 21;
},
{
position = 661;
width = 20;
}
);
vhints = (
{
position = 702;
width = 60;
}
);
};
};
width = 865;
}
);
unicode = 004D;
},
{
glyphname = N;
layers = (
{
layerId = master01;
paths = (
{
closed = 1;
nodes = (
"639 681 LINE",
"497 13 LINE",
"431 0 LINE",
"188 588 LINE",
"66 12 LINE",
"11 1 LINE",
"151 664 LINE",
"213 681 LINE",
"460 88 LINE",
"584 671 LINE"
);
}
);
userData = {
com.fontlab.hintData = {
hhints = (
{
position = 1;
width = 20;
},
{
position = 661;
width = 20;
}
);
};
};
width = 615;
}
);
unicode = 004E;
},
{
glyphname = Nacute;
layers = (
{
layerId = master01;
paths = (
{
closed = 1;
nodes = (
"639 681 LINE",
"497 13 LINE",
"431 0 LINE",
"188 588 LINE",
"66 12 LINE",
"11 1 LINE",
"151 664 LINE",
"213 681 LINE",
"460 88 LINE",
"584 671 LINE"
);
},
{
closed = 1;
nodes = (
"491 893 LINE",
"535 848 LINE",
"349 736 LINE",
"315 771 LINE"
);
}
);
userData = {
com.fontlab.hintData = {
hhints = (
{
position = 1;
width = 20;
},
{
position = 661;
width = 20;
}
);
};
};
width = 615;
}
);
unicode = 0143;
},
{
glyphname = Ncaron;
layers = (
{
layerId = master01;
paths = (
{
closed = 1;
nodes = (
"639 681 LINE",
"497 13 LINE",
"431 0 LINE",
"188 588 LINE",
"66 12 LINE",
"11 1 LINE",
"151 664 LINE",
"213 681 LINE",
"460 88 LINE",
"584 671 LINE"
);
},
{
closed = 1;
nodes = (
"581 838 LINE",
"404 718 LINE",
"301 840 LINE",
"346 880 LINE",
"423 792 LINE",
"557 881 LINE"
);
}
);
userData = {
com.fontlab.hintData = {
hhints = (
{
position = 1;
width = 20;
},
{
position = 661;
width = 20;
}
);
};
};
width = 615;
}
);
unicode = 0147;
},
{
glyphname = Ntilde;
layers = (
{
layerId = master01;
paths = (
{
closed = 1;
nodes = (
"639 681 LINE",
"497 13 LINE",
"431 0 LINE",
"188 588 LINE",
"66 12 LINE",
"11 1 LINE",
"151 664 LINE",
"213 681 LINE",
"460 88 LINE",
"584 671 LINE"
);
},
{
closed = 1;
nodes = (
"518 762 OFFCURVE",
"554 824 OFFCURVE",
"569 853 CURVE",
"614 837 LINE",
"586 772 OFFCURVE",
"528 721 OFFCURVE",
"477 721 CURVE SMOOTH",
"429 721 OFFCURVE",
"410 758 OFFCURVE",
"396 789 CURVE SMOOTH",
"386 811 OFFCURVE",
"378 829 OFFCURVE",
"364 829 CURVE SMOOTH",
"333 829 OFFCURVE",
"296 770 OFFCURVE",
"285 745 CURVE",
"240 763 LINE",
"266 813 OFFCURVE",
"311 870 OFFCURVE",
"372 870 CURVE SMOOTH",
"426 870 OFFCURVE",
"443 826 OFFCURVE",
"457 794 CURVE SMOOTH",
"465 776 OFFCURVE",
"472 762 OFFCURVE",
"485 762 CURVE SMOOTH"
);
}
);
userData = {
com.fontlab.hintData = {
hhints = (
{
position = 1;
width = 20;
},
{
position = 661;
width = 20;
},
{
position = 721;
width = 41;
},
{
position = 829;
width = 41;
}
);
};
};
width = 615;
}
);
unicode = 00D1;
},
{
glyphname = O;
layers = (
{
layerId = master01;
paths = (
{
closed = 1;
nodes = (
"133 -2 OFFCURVE",
"62 98 OFFCURVE",
"62 229 CURVE SMOOTH",
"62 463 OFFCURVE",
"266 682 OFFCURVE",
"440 682 CURVE SMOOTH",
"560 682 OFFCURVE",
"632 583 OFFCURVE",
"632 450 CURVE SMOOTH",
"632 217 OFFCURVE",
"427 -2 OFFCURVE",
"253 -2 CURVE SMOOTH"
);
},
{
closed = 1;
nodes = (
"286 630 OFFCURVE",
"116 446 OFFCURVE",
"116 237 CURVE SMOOTH",
"116 130 OFFCURVE",
"171 50 OFFCURVE",
"264 50 CURVE SMOOTH",
"400 50 OFFCURVE",
"576 233 OFFCURVE",
"576 431 CURVE SMOOTH",
"576 539 OFFCURVE",
"521 630 OFFCURVE",
"422 630 CURVE SMOOTH"
);
}
);
userData = {
com.fontlab.hintData = {
hhints = (
{
position = -2;
width = 52;
},
{
position = 630;
width = 52;
}
);
vhints = (
{
position = 62;
width = 54;
},
{
position = 576;
width = 56;
}
);
};
};
width = 660;
}
);
unicode = 004F;
},
{
glyphname = Oacute;
layers = (
{
layerId = master01;
paths = (
{
closed = 1;
nodes = (
"546 893 LINE",
"590 848 LINE",
"404 736 LINE",
"370 771 LINE"
);
},
{
closed = 1;
nodes = (
"133 0 OFFCURVE",
"62 100 OFFCURVE",
"62 232 CURVE SMOOTH",
"62 465 OFFCURVE",
"267 684 OFFCURVE",
"441 684 CURVE SMOOTH",
"561 684 OFFCURVE",
"632 585 OFFCURVE",
"632 453 CURVE SMOOTH",
"632 219 OFFCURVE",
"428 0 OFFCURVE",
"254 0 CURVE SMOOTH"
);
},
{
closed = 1;
nodes = (
"289 632 OFFCURVE",
"116 449 OFFCURVE",
"116 241 CURVE SMOOTH",
"116 132 OFFCURVE",
"171 52 OFFCURVE",
"265 52 CURVE SMOOTH",
"402 52 OFFCURVE",
"576 236 OFFCURVE",
"576 435 CURVE SMOOTH",
"576 542 OFFCURVE",
"521 632 OFFCURVE",
"423 632 CURVE SMOOTH"
);
}
);
userData = {
com.fontlab.hintData = {
hhints = (
{
position = 0;
width = 52;
},
{
position = 632;
width = 52;
}
);
vhints = (
{
position = 62;
width = 54;
},
{
position = 576;
width = 56;
}
);
};
};
width = 660;
}
);
unicode = 00D3;
},
{
glyphname = Ocircumflex;
layers = (
{
layerId = master01;
paths = (
{
closed = 1;
nodes = (
"323 760 LINE",
"500 881 LINE",
"603 759 LINE",
"558 719 LINE",
"481 806 LINE",
"347 718 LINE"
);
},
{
closed = 1;
nodes = (
"133 0 OFFCURVE",
"62 100 OFFCURVE",
"62 232 CURVE SMOOTH",
"62 465 OFFCURVE",
"267 684 OFFCURVE",
"441 684 CURVE SMOOTH",
"561 684 OFFCURVE",
"632 585 OFFCURVE",
"632 453 CURVE SMOOTH",
"632 219 OFFCURVE",
"428 0 OFFCURVE",
"254 0 CURVE SMOOTH"
);
},
{
closed = 1;
nodes = (
"289 632 OFFCURVE",
"116 449 OFFCURVE",
"116 241 CURVE SMOOTH",
"116 132 OFFCURVE",
"171 52 OFFCURVE",
"265 52 CURVE SMOOTH",
"402 52 OFFCURVE",
"576 236 OFFCURVE",
"576 435 CURVE SMOOTH",
"576 542 OFFCURVE",
"521 632 OFFCURVE",
"423 632 CURVE SMOOTH"
);
}
);
userData = {
com.fontlab.hintData = {
hhints = (
{
position = 0;
width = 52;
},
{
position = 632;
width = 52;
}
);
vhints = (
{
position = 62;
width = 54;
},
{
position = 576;
width = 56;
}
);
};
};
width = 660;
}
);
unicode = 00D4;
},
{
glyphname = Odieresis;
layers = (
{
layerId = master01;
paths = (
{
closed = 1;
nodes = (
"406 737 LINE",
"330 727 LINE",
"356 809 LINE",
"432 819 LINE"
);
},
{
closed = 1;
nodes = (
"566 737 LINE",
"490 727 LINE",
"516 809 LINE",
"592 819 LINE"
);
},
{
closed = 1;
nodes = (
"133 0 OFFCURVE",
"62 100 OFFCURVE",
"62 232 CURVE SMOOTH",
"62 465 OFFCURVE",
"267 684 OFFCURVE",
"441 684 CURVE SMOOTH",
"561 684 OFFCURVE",
"632 585 OFFCURVE",
"632 453 CURVE SMOOTH",
"632 219 OFFCURVE",
"428 0 OFFCURVE",
"254 0 CURVE SMOOTH"
);
},
{
closed = 1;
nodes = (
"289 632 OFFCURVE",
"116 449 OFFCURVE",
"116 241 CURVE SMOOTH",
"116 132 OFFCURVE",
"171 52 OFFCURVE",
"265 52 CURVE SMOOTH",
"402 52 OFFCURVE",
"576 236 OFFCURVE",
"576 435 CURVE SMOOTH",
"576 542 OFFCURVE",
"521 632 OFFCURVE",
"423 632 CURVE SMOOTH"
);
}
);
userData = {
com.fontlab.hintData = {
hhints = (
{
position = 0;
width = 52;
},
{
position = 632;
width = 52;
}
);
vhints = (
{
position = 62;
width = 54;
},
{
position = 576;
width = 56;
}
);
};
};
width = 660;
}
);
unicode = 00D6;
},
{
glyphname = Ograve;
layers = (
{
layerId = master01;
paths = (
{
closed = 1;
nodes = (
"486 726 LINE",
"376 866 LINE",
"443 900 LINE",
"538 754 LINE"
);
},
{
closed = 1;
nodes = (
"133 0 OFFCURVE",
"62 100 OFFCURVE",
"62 232 CURVE SMOOTH",
"62 465 OFFCURVE",
"267 684 OFFCURVE",
"441 684 CURVE SMOOTH",
"561 684 OFFCURVE",
"632 585 OFFCURVE",
"632 453 CURVE SMOOTH",
"632 219 OFFCURVE",
"428 0 OFFCURVE",
"254 0 CURVE SMOOTH"
);
},
{
closed = 1;
nodes = (
"289 632 OFFCURVE",
"116 449 OFFCURVE",
"116 241 CURVE SMOOTH",
"116 132 OFFCURVE",
"171 52 OFFCURVE",
"265 52 CURVE SMOOTH",
"402 52 OFFCURVE",
"576 236 OFFCURVE",
"576 435 CURVE SMOOTH",
"576 542 OFFCURVE",
"521 632 OFFCURVE",
"423 632 CURVE SMOOTH"
);
}
);
userData = {
com.fontlab.hintData = {
hhints = (
{
position = 0;
width = 52;
},
{
position = 632;
width = 52;
}
);
vhints = (
{
position = 62;
width = 54;
},
{
position = 576;
width = 56;
}
);
};
};
width = 660;
}
);
unicode = 00D2;
},
{
glyphname = Ohungarumlaut;
layers = (
{
layerId = master01;
paths = (
{
closed = 1;
nodes = (
"457 893 LINE",
"500 848 LINE",
"314 736 LINE",
"281 771 LINE"
);
},
{
closed = 1;
nodes = (
"617 893 LINE",
"661 848 LINE",
"474 736 LINE",
"441 771 LINE"
);
},
{
closed = 1;
nodes = (
"133 0 OFFCURVE",
"62 100 OFFCURVE",
"62 232 CURVE SMOOTH",
"62 465 OFFCURVE",
"267 684 OFFCURVE",
"441 684 CURVE SMOOTH",
"561 684 OFFCURVE",
"632 585 OFFCURVE",
"632 453 CURVE SMOOTH",
"632 219 OFFCURVE",
"428 0 OFFCURVE",
"254 0 CURVE SMOOTH"
);
},
{
closed = 1;
nodes = (
"289 632 OFFCURVE",
"116 449 OFFCURVE",
"116 241 CURVE SMOOTH",
"116 132 OFFCURVE",
"171 52 OFFCURVE",
"265 52 CURVE SMOOTH",
"402 52 OFFCURVE",
"576 236 OFFCURVE",
"576 435 CURVE SMOOTH",
"576 542 OFFCURVE",
"521 632 OFFCURVE",
"423 632 CURVE SMOOTH"
);
}
);
userData = {
com.fontlab.hintData = {
hhints = (
{
position = 0;
width = 52;
},
{
position = 632;
width = 52;
}
);
vhints = (
{
position = 62;
width = 54;
},
{
position = 576;
width = 56;
}
);
};
};
width = 660;
}
);
unicode = 0150;
},
{
glyphname = Oslash;
layers = (
{
layerId = master01;
paths = (
{
closed = 1;
nodes = (
"615 585 OFFCURVE",
"632 522 OFFCURVE",
"632 455 CURVE SMOOTH",
"632 220 OFFCURVE",
"429 -1 OFFCURVE",
"253 -1 CURVE SMOOTH",
"205 -1 OFFCURVE",
"162 16 OFFCURVE",
"129 46 CURVE",
"67 -33 LINE",
"28 -7 LINE",
"98 84 LINE",
"74 123 OFFCURVE",
"61 172 OFFCURVE",
"61 227 CURVE SMOOTH",
"61 462 OFFCURVE",
"266 683 OFFCURVE",
"441 683 CURVE SMOOTH",
"477 683 OFFCURVE",
"510 674 OFFCURVE",
"538 656 CURVE",
"602 741 LINE",
"642 714 LINE",
"575 626 LINE"
);
},
{
closed = 1;
nodes = (
"501 608 LINE",
"478 623 OFFCURVE",
"452 631 OFFCURVE",
"423 631 CURVE SMOOTH",
"289 631 OFFCURVE",
"116 448 OFFCURVE",
"116 240 CURVE SMOOTH",
"116 200 OFFCURVE",
"123 164 OFFCURVE",
"137 134 CURVE"
);
},
{
closed = 1;
nodes = (
"443 51 OFFCURVE",
"576 293 OFFCURVE",
"576 432 CURVE SMOOTH",
"576 487 OFFCURVE",
"562 538 OFFCURVE",
"536 575 CURVE",
"164 92 LINE",
"190 65 OFFCURVE",
"224 51 OFFCURVE",
"264 51 CURVE SMOOTH"
);
}
);
userData = {
com.fontlab.hintData = {
hhints = (
{
position = -1;
width = 52;
},
{
position = 631;
width = 52;
}
);
vhints = (
{
position = 61;
width = 55;
},
{
position = 576;
width = 56;
}
);
};
};
width = 660;
}
);
unicode = 00D8;
},
{
glyphname = Otilde;
layers = (
{
layerId = master01;
paths = (
{
closed = 1;
nodes = (
"133 0 OFFCURVE",
"62 100 OFFCURVE",
"62 232 CURVE SMOOTH",
"62 465 OFFCURVE",
"267 684 OFFCURVE",
"441 684 CURVE SMOOTH",
"561 684 OFFCURVE",
"632 585 OFFCURVE",
"632 453 CURVE SMOOTH",
"632 219 OFFCURVE",
"428 0 OFFCURVE",
"254 0 CURVE SMOOTH"
);
},
{
closed = 1;
nodes = (
"289 632 OFFCURVE",
"116 449 OFFCURVE",
"116 241 CURVE SMOOTH",
"116 132 OFFCURVE",
"171 52 OFFCURVE",
"265 52 CURVE SMOOTH",
"402 52 OFFCURVE",
"576 236 OFFCURVE",
"576 435 CURVE SMOOTH",
"576 542 OFFCURVE",
"521 632 OFFCURVE",
"423 632 CURVE SMOOTH"
);
},
{
closed = 1;
nodes = (
"558 762 OFFCURVE",
"594 824 OFFCURVE",
"609 853 CURVE",
"654 837 LINE",
"626 772 OFFCURVE",
"568 721 OFFCURVE",
"517 721 CURVE SMOOTH",
"469 721 OFFCURVE",
"450 758 OFFCURVE",
"436 789 CURVE SMOOTH",
"426 811 OFFCURVE",
"418 829 OFFCURVE",
"404 829 CURVE SMOOTH",
"373 829 OFFCURVE",
"336 770 OFFCURVE",
"325 745 CURVE",
"280 763 LINE",
"306 813 OFFCURVE",
"351 870 OFFCURVE",
"412 870 CURVE SMOOTH",
"466 870 OFFCURVE",
"483 826 OFFCURVE",
"497 794 CURVE SMOOTH",
"505 776 OFFCURVE",
"512 762 OFFCURVE",
"525 762 CURVE SMOOTH"
);
}
);
userData = {
com.fontlab.hintData = {
hhints = (
{
position = 0;
width = 52;
},
{
position = 632;
width = 52;
},
{
position = 721;
width = 41;
},
{
position = 829;
width = 41;
}
);
vhints = (
{
position = 62;
width = 54;
},
{
position = 576;
width = 56;
}
);
};
};
width = 660;
}
);
unicode = 00D5;
},
{
glyphname = OE;
layers = (
{
layerId = master01;
paths = (
{
closed = 1;
nodes = (
"989 56 LINE",
"958 0 LINE",
"492 0 LINE",
"526 162 LINE",
"452 65 OFFCURVE",
"350 0 OFFCURVE",
"254 0 CURVE SMOOTH",
"133 0 OFFCURVE",
"62 100 OFFCURVE",
"62 232 CURVE SMOOTH",
"62 465 OFFCURVE",
"267 684 OFFCURVE",
"441 684 CURVE SMOOTH",
"516 684 OFFCURVE",
"586 641 OFFCURVE",
"612 567 CURVE",
"636 681 LINE",
"1117 681 LINE",
"1095 625 LINE",
"680 625 LINE",
"629 382 LINE",
"1014 382 LINE",
"985 326 LINE",
"617 326 LINE",
"559 56 LINE"
);
},
{
closed = 1;
nodes = (
"433 52 OFFCURVE",
"576 276 OFFCURVE",
"576 435 CURVE SMOOTH",
"576 542 OFFCURVE",
"521 632 OFFCURVE",
"423 632 CURVE SMOOTH",
"289 632 OFFCURVE",
"116 449 OFFCURVE",
"116 241 CURVE SMOOTH",
"116 132 OFFCURVE",
"171 52 OFFCURVE",
"265 52 CURVE SMOOTH"
);
}
);
userData = {
com.fontlab.hintData = {
hhints = (
{
position = 0;
width = 52;
},
{
position = 326;
width = 56;
},
{
position = 625;
width = 56;
},
{
position = 632;
width = 52;
}
);
vhints = (
{
position = 62;
width = 54;
}
);
};
};
width = 1093;
}
);
unicode = 0152;
},
{
glyphname = P;
layers = (
{
layerId = master01;
paths = (
{
closed = 1;
nodes = (
"67 10 LINE",
"10 0 LINE",
"153 674 LINE",
"176 676 OFFCURVE",
"232 679 OFFCURVE",
"266 679 CURVE SMOOTH",
"393 679 OFFCURVE",
"565 655 OFFCURVE",
"565 515 CURVE SMOOTH",
"565 318 OFFCURVE",
"304 244 OFFCURVE",
"115 238 CURVE"
);
},
{
closed = 1;
nodes = (
"127 293 LINE",
"368 303 OFFCURVE",
"506 387 OFFCURVE",
"506 497 CURVE SMOOTH",
"506 568 OFFCURVE",
"446 623 OFFCURVE",
"243 623 CURVE SMOOTH",
"197 623 LINE"
);
}
);
userData = {
com.fontlab.hintData = {
hhints = (
{
position = 0;
width = 21;
},
{
position = 238;
width = 55;
},
{
position = 623;
width = 56;
}
);
vhints = (
{
position = 506;
width = 59;
}
);
};
};
width = 545;
}
);
unicode = 0050;
},
{
glyphname = Thorn;
layers = (
{
layerId = master01;
paths = (
{
closed = 1;
nodes = (
"210 686 LINE",
"187 576 LINE",
"314 576 OFFCURVE",
"506 562 OFFCURVE",
"506 418 CURVE SMOOTH",
"506 207 OFFCURVE",
"242 152 OFFCURVE",
"93 143 CURVE",
"65 12 LINE",
"10 0 LINE",
"153 674 LINE"
);
},
{
closed = 1;
nodes = (
"292 210 OFFCURVE",
"449 277 OFFCURVE",
"449 401 CURVE SMOOTH",
"449 488 OFFCURVE",
"337 519 OFFCURVE",
"175 519 CURVE",
"106 202 LINE"
);
}
);
userData = {
com.fontlab.hintData = {
hhints = (
{
position = 0;
width = 21;
},
{
position = 143;
width = 59;
},
{
position = 519;
width = 57;
}
);
vhints = (
{
position = 449;
width = 57;
}
);
};
};
width = 506;
}
);
unicode = 00DE;
},
{
glyphname = Q;
layers = (
{
layerId = master01;
paths = (
{
closed = 1;
nodes = (
"618 12 LINE",
"584 -35 LINE",
"463 57 LINE",
"404 20 OFFCURVE",
"339 -1 OFFCURVE",
"277 -1 CURVE SMOOTH",
"139 -1 OFFCURVE",
"54 101 OFFCURVE",
"54 237 CURVE SMOOTH",
"54 466 OFFCURVE",
"273 679 OFFCURVE",
"469 679 CURVE SMOOTH",
"607 679 OFFCURVE",
"692 575 OFFCURVE",
"692 440 CURVE SMOOTH",
"692 306 OFFCURVE",
"614 174 OFFCURVE",
"512 92 CURVE"
);
},
{
closed = 1;
nodes = (
"558 194 OFFCURVE",
"629 307 OFFCURVE",
"629 420 CURVE SMOOTH",
"629 531 OFFCURVE",
"563 625 OFFCURVE",
"449 625 CURVE SMOOTH",
"296 625 OFFCURVE",
"116 445 OFFCURVE",
"116 245 CURVE SMOOTH",
"116 133 OFFCURVE",
"182 52 OFFCURVE",
"289 52 CURVE SMOOTH",
"334 52 OFFCURVE",
"381 67 OFFCURVE",
"424 92 CURVE",
"326 163 LINE",
"383 193 LINE",
"474 126 LINE"
);
}
);
userData = {
com.fontlab.hintData = {
hhints = (
{
position = -1;
width = 53;
},
{
position = 625;
width = 54;
}
);
vhints = (
{
position = 54;
width = 62;
},
{
position = 629;
width = 63;
}
);
};
};
width = 721;
}
);
unicode = 0051;
},
{
glyphname = R;
layers = (
{
layerId = master01;
paths = (
{
closed = 1;
nodes = (
"128 295 LINE",
"355 303 OFFCURVE",
"514 389 OFFCURVE",
"514 501 CURVE SMOOTH",
"514 574 OFFCURVE",
"450 630 OFFCURVE",
"241 630 CURVE SMOOTH",
"199 630 LINE"
);
},
{
closed = 1;
nodes = (
"67 10 LINE",
"10 0 LINE",
"154 681 LINE",
"177 683 OFFCURVE",
"231 687 OFFCURVE",
"265 687 CURVE SMOOTH",
"395 687 OFFCURVE",
"573 663 OFFCURVE",
"573 519 CURVE SMOOTH",
"573 419 OFFCURVE",
"486 318 OFFCURVE",
"338 275 CURVE",
"388 240 OFFCURVE",
"452 172 OFFCURVE",
"496 37 CURVE",
"446 0 LINE",
"400 151 OFFCURVE",
"326 213 OFFCURVE",
"283 238 CURVE SMOOTH",
"269 246 OFFCURVE",
"242 249 OFFCURVE",
"221 249 CURVE SMOOTH",
"197 249 OFFCURVE",
"150 244 OFFCURVE",
"115 237 CURVE"
);
}
);
userData = {
com.fontlab.hintData = {
hhints = (
{
position = 0;
width = 21;
},
{
position = 249;
width = 46;
},
{
position = 630;
width = 57;
}
);
vhints = (
{
position = 446;
width = 50;
},
{
position = 514;
width = 59;
}
);
};
};
width = 594;
}
);
unicode = 0052;
},
{
glyphname = Racute;
layers = (
{
layerId = master01;
paths = (
{
closed = 1;
nodes = (
"67 10 LINE",
"10 0 LINE",
"154 681 LINE",
"177 683 OFFCURVE",
"231 687 OFFCURVE",
"265 687 CURVE SMOOTH",
"395 687 OFFCURVE",
"573 663 OFFCURVE",
"573 519 CURVE SMOOTH",
"573 419 OFFCURVE",
"486 318 OFFCURVE",
"338 275 CURVE",
"388 240 OFFCURVE",
"452 172 OFFCURVE",
"496 37 CURVE",
"446 0 LINE",
"400 151 OFFCURVE",
"326 213 OFFCURVE",
"283 238 CURVE SMOOTH",
"269 246 OFFCURVE",
"242 249 OFFCURVE",
"221 249 CURVE SMOOTH",
"197 249 OFFCURVE",
"150 244 OFFCURVE",
"115 237 CURVE"
);
},
{
closed = 1;
nodes = (
"128 295 LINE",
"355 303 OFFCURVE",
"514 389 OFFCURVE",
"514 501 CURVE SMOOTH",
"514 574 OFFCURVE",
"450 630 OFFCURVE",
"241 630 CURVE SMOOTH",
"199 630 LINE"
);
},
{
closed = 1;
nodes = (
"442 893 LINE",
"486 848 LINE",
"299 736 LINE",
"266 771 LINE"
);
}
);
userData = {
com.fontlab.hintData = {
hhints = (
{
position = 0;
width = 21;
},
{
position = 249;
width = 46;
},
{
position = 630;
width = 57;
}
);
vhints = (
{
position = 446;
width = 50;
},
{
position = 514;
width = 59;
}
);
};
};
width = 594;
}
);
unicode = 0154;
},
{
glyphname = Rcaron;
layers = (
{
layerId = master01;
paths = (
{
closed = 1;
nodes = (
"67 10 LINE",
"10 0 LINE",
"154 681 LINE",
"177 683 OFFCURVE",
"231 687 OFFCURVE",
"265 687 CURVE SMOOTH",
"395 687 OFFCURVE",
"573 663 OFFCURVE",
"573 519 CURVE SMOOTH",
"573 419 OFFCURVE",
"486 318 OFFCURVE",
"338 275 CURVE",
"388 240 OFFCURVE",
"452 172 OFFCURVE",
"496 37 CURVE",
"446 0 LINE",
"400 151 OFFCURVE",
"326 213 OFFCURVE",
"283 238 CURVE SMOOTH",
"269 246 OFFCURVE",
"242 249 OFFCURVE",
"221 249 CURVE SMOOTH",
"197 249 OFFCURVE",
"150 244 OFFCURVE",
"115 237 CURVE"
);
},
{
closed = 1;
nodes = (
"128 295 LINE",
"355 303 OFFCURVE",
"514 389 OFFCURVE",
"514 501 CURVE SMOOTH",
"514 574 OFFCURVE",
"450 630 OFFCURVE",
"241 630 CURVE SMOOTH",
"199 630 LINE"
);
},
{
closed = 1;
nodes = (
"546 838 LINE",
"369 718 LINE",
"266 840 LINE",
"311 880 LINE",
"388 792 LINE",
"522 881 LINE"
);
}
);
userData = {
com.fontlab.hintData = {
hhints = (
{
position = 0;
width = 21;
},
{
position = 249;
width = 46;
},
{
position = 630;
width = 57;
}
);
vhints = (
{
position = 446;
width = 50;
},
{
position = 514;
width = 59;
}
);
};
};
width = 594;
}
);
unicode = 0158;
},
{
glyphname = S;
layers = (
{
layerId = master01;
paths = (
{
closed = 1;
nodes = (
"266 631 OFFCURVE",
"210 557 OFFCURVE",
"210 491 CURVE SMOOTH",
"210 447 OFFCURVE",
"244 419 OFFCURVE",
"346 387 CURVE SMOOTH",
"479 345 OFFCURVE",
"526 302 OFFCURVE",
"526 223 CURVE SMOOTH",
"526 70 OFFCURVE",
"352 -1 OFFCURVE",
"249 -1 CURVE SMOOTH",
"131 -1 OFFCURVE",
"47 60 OFFCURVE",
"37 152 CURVE",
"100 162 LINE",
"111 86 OFFCURVE",
"188 52 OFFCURVE",
"260 52 CURVE SMOOTH",
"354 52 OFFCURVE",
"463 116 OFFCURVE",
"463 220 CURVE SMOOTH",
"463 256 OFFCURVE",
"442 295 OFFCURVE",
"321 330 CURVE SMOOTH",
"237 354 OFFCURVE",
"145 400 OFFCURVE",
"145 483 CURVE SMOOTH",
"145 615 OFFCURVE",
"289 681 OFFCURVE",
"395 681 CURVE SMOOTH",
"513 681 OFFCURVE",
"597 653 OFFCURVE",
"597 567 CURVE SMOOTH",
"597 554 OFFCURVE",
"595 534 OFFCURVE",
"589 521 CURVE",
"535 510 LINE",
"540 523 OFFCURVE",
"541 536 OFFCURVE",
"541 546 CURVE SMOOTH",
"541 613 OFFCURVE",
"461 631 OFFCURVE",
"408 631 CURVE SMOOTH"
);
}
);
userData = {
com.fontlab.hintData = {
hhints = (
{
position = -1;
width = 53;
},
{
position = 631;
width = 50;
}
);
vhints = (
{
position = 37;
width = 63;
},
{
position = 145;
width = 65;
},
{
position = 463;
width = 63;
},
{
position = 541;
width = 56;
}
);
};
};
width = 599;
}
);
unicode = 0053;
},
{
glyphname = Sacute;
layers = (
{
layerId = master01;
paths = (
{
closed = 1;
nodes = (
"499 893 LINE",
"543 848 LINE",
"356 736 LINE",
"323 771 LINE"
);
},
{
closed = 1;
nodes = (
"266 631 OFFCURVE",
"210 557 OFFCURVE",
"210 491 CURVE SMOOTH",
"210 447 OFFCURVE",
"244 419 OFFCURVE",
"346 387 CURVE SMOOTH",
"479 345 OFFCURVE",
"526 302 OFFCURVE",
"526 223 CURVE SMOOTH",
"526 70 OFFCURVE",
"352 -1 OFFCURVE",
"249 -1 CURVE SMOOTH",
"131 -1 OFFCURVE",
"47 60 OFFCURVE",
"37 152 CURVE",
"100 162 LINE",
"111 86 OFFCURVE",
"188 52 OFFCURVE",
"260 52 CURVE SMOOTH",
"354 52 OFFCURVE",
"463 116 OFFCURVE",
"463 220 CURVE SMOOTH",
"463 256 OFFCURVE",
"442 295 OFFCURVE",
"321 330 CURVE SMOOTH",
"237 354 OFFCURVE",
"145 400 OFFCURVE",
"145 483 CURVE SMOOTH",
"145 615 OFFCURVE",
"289 681 OFFCURVE",
"395 681 CURVE SMOOTH",
"513 681 OFFCURVE",
"597 653 OFFCURVE",
"597 567 CURVE SMOOTH",
"597 554 OFFCURVE",
"595 534 OFFCURVE",
"589 521 CURVE",
"535 510 LINE",
"540 523 OFFCURVE",
"541 536 OFFCURVE",
"541 546 CURVE SMOOTH",
"541 613 OFFCURVE",
"461 631 OFFCURVE",
"408 631 CURVE SMOOTH"
);
}
);
userData = {
com.fontlab.hintData = {
hhints = (
{
position = -1;
width = 53;
},
{
position = 631;
width = 50;
}
);
vhints = (
{
position = 37;
width = 63;
},
{
position = 145;
width = 65;
},
{
position = 463;
width = 63;
},
{
position = 541;
width = 56;
}
);
};
};
width = 599;
}
);
unicode = 015A;
},
{
glyphname = Scaron;
layers = (
{
layerId = master01;
paths = (
{
closed = 1;
nodes = (
"594 838 LINE",
"418 718 LINE",
"315 840 LINE",
"360 880 LINE",
"437 792 LINE",
"570 881 LINE"
);
},
{
closed = 1;
nodes = (
"266 631 OFFCURVE",
"210 557 OFFCURVE",
"210 491 CURVE SMOOTH",
"210 447 OFFCURVE",
"244 419 OFFCURVE",
"346 387 CURVE SMOOTH",
"479 345 OFFCURVE",
"526 302 OFFCURVE",
"526 223 CURVE SMOOTH",
"526 70 OFFCURVE",
"352 -1 OFFCURVE",
"249 -1 CURVE SMOOTH",
"131 -1 OFFCURVE",
"47 60 OFFCURVE",
"37 152 CURVE",
"100 162 LINE",
"111 86 OFFCURVE",
"188 52 OFFCURVE",
"260 52 CURVE SMOOTH",
"354 52 OFFCURVE",
"463 116 OFFCURVE",
"463 220 CURVE SMOOTH",
"463 256 OFFCURVE",
"442 295 OFFCURVE",
"321 330 CURVE SMOOTH",
"237 354 OFFCURVE",
"145 400 OFFCURVE",
"145 483 CURVE SMOOTH",
"145 615 OFFCURVE",
"289 681 OFFCURVE",
"395 681 CURVE SMOOTH",
"513 681 OFFCURVE",
"597 653 OFFCURVE",
"597 567 CURVE SMOOTH",
"597 554 OFFCURVE",
"595 534 OFFCURVE",
"589 521 CURVE",
"535 510 LINE",
"540 523 OFFCURVE",
"541 536 OFFCURVE",
"541 546 CURVE SMOOTH",
"541 613 OFFCURVE",
"461 631 OFFCURVE",
"408 631 CURVE SMOOTH"
);
}
);
userData = {
com.fontlab.hintData = {
hhints = (
{
position = -1;
width = 53;
},
{
position = 631;
width = 50;
}
);
vhints = (
{
position = 37;
width = 63;
},
{
position = 145;
width = 65;
},
{
position = 463;
width = 63;
},
{
position = 541;
width = 56;
}
);
};
};
width = 599;
}
);
unicode = 0160;
},
{
glyphname = Scedilla;
layers = (
{
layerId = master01;
paths = (
{
closed = 1;
nodes = (
"266 631 OFFCURVE",
"210 557 OFFCURVE",
"210 491 CURVE SMOOTH",
"210 447 OFFCURVE",
"244 419 OFFCURVE",
"346 387 CURVE SMOOTH",
"479 345 OFFCURVE",
"526 302 OFFCURVE",
"526 223 CURVE SMOOTH",
"526 70 OFFCURVE",
"352 -1 OFFCURVE",
"249 -1 CURVE SMOOTH",
"243 -1 OFFCURVE",
"237 -1 OFFCURVE",
"231 0 CURVE",
"226 -19 LINE",
"230 -19 LINE SMOOTH",
"278 -19 OFFCURVE",
"311 -46 OFFCURVE",
"311 -89 CURVE SMOOTH",
"311 -148 OFFCURVE",
"256 -201 OFFCURVE",
"199 -201 CURVE SMOOTH",
"170 -201 OFFCURVE",
"147 -188 OFFCURVE",
"134 -166 CURVE",
"171 -136 LINE",
"173 -149 OFFCURVE",
"192 -159 OFFCURVE",
"208 -159 CURVE SMOOTH",
"238 -159 OFFCURVE",
"268 -131 OFFCURVE",
"268 -99 CURVE SMOOTH",
"268 -77 OFFCURVE",
"252 -61 OFFCURVE",
"229 -61 CURVE SMOOTH",
"216 -61 OFFCURVE",
"200 -67 OFFCURVE",
"194 -72 CURVE",
"172 -42 LINE",
"197 3 LINE",
"107 19 OFFCURVE",
"45 74 OFFCURVE",
"37 152 CURVE",
"100 162 LINE",
"111 86 OFFCURVE",
"188 52 OFFCURVE",
"260 52 CURVE SMOOTH",
"354 52 OFFCURVE",
"463 116 OFFCURVE",
"463 220 CURVE SMOOTH",
"463 256 OFFCURVE",
"442 295 OFFCURVE",
"321 330 CURVE SMOOTH",
"237 354 OFFCURVE",
"145 400 OFFCURVE",
"145 483 CURVE SMOOTH",
"145 615 OFFCURVE",
"289 681 OFFCURVE",
"395 681 CURVE SMOOTH",
"513 681 OFFCURVE",
"597 653 OFFCURVE",
"597 567 CURVE SMOOTH",
"597 554 OFFCURVE",
"595 534 OFFCURVE",
"589 521 CURVE",
"535 510 LINE",
"540 523 OFFCURVE",
"541 536 OFFCURVE",
"541 546 CURVE SMOOTH",
"541 613 OFFCURVE",
"461 631 OFFCURVE",
"408 631 CURVE SMOOTH"
);
}
);
userData = {
com.fontlab.hintData = {
hhints = (
{
position = -201;
width = 42;
},
{
position = -61;
width = 42;
},
{
position = -1;
width = 53;
},
{
position = 631;
width = 50;
}
);
vhints = (
{
position = 37;
width = 63;
},
{
position = 145;
width = 65;
},
{
position = 268;
width = 43;
},
{
position = 463;
width = 63;
},
{
position = 541;
width = 56;
}
);
};
};
width = 599;
}
);
unicode = 015E;
},
{
glyphname = Scircumflex;
layers = (
{
layerId = master01;
paths = (
{
closed = 1;
nodes = (
"266 631 OFFCURVE",
"210 557 OFFCURVE",
"210 491 CURVE SMOOTH",
"210 447 OFFCURVE",
"244 419 OFFCURVE",
"346 387 CURVE SMOOTH",
"479 345 OFFCURVE",
"526 302 OFFCURVE",
"526 223 CURVE SMOOTH",
"526 70 OFFCURVE",
"352 -1 OFFCURVE",
"249 -1 CURVE SMOOTH",
"131 -1 OFFCURVE",
"47 60 OFFCURVE",
"37 152 CURVE",
"100 162 LINE",
"111 86 OFFCURVE",
"188 52 OFFCURVE",
"260 52 CURVE SMOOTH",
"354 52 OFFCURVE",
"463 116 OFFCURVE",
"463 220 CURVE SMOOTH",
"463 256 OFFCURVE",
"442 295 OFFCURVE",
"321 330 CURVE SMOOTH",
"237 354 OFFCURVE",
"145 400 OFFCURVE",
"145 483 CURVE SMOOTH",
"145 615 OFFCURVE",
"289 681 OFFCURVE",
"395 681 CURVE SMOOTH",
"513 681 OFFCURVE",
"597 653 OFFCURVE",
"597 567 CURVE SMOOTH",
"597 554 OFFCURVE",
"595 534 OFFCURVE",
"589 521 CURVE",
"535 510 LINE",
"540 523 OFFCURVE",
"541 536 OFFCURVE",
"541 546 CURVE SMOOTH",
"541 613 OFFCURVE",
"461 631 OFFCURVE",
"408 631 CURVE SMOOTH"
);
},
{
closed = 1;
nodes = (
"281 760 LINE",
"457 881 LINE",
"560 759 LINE",
"515 719 LINE",
"438 806 LINE",
"305 718 LINE"
);
}
);
userData = {
com.fontlab.hintData = {
hhints = (
{
position = -1;
width = 53;
},
{
position = 631;
width = 50;
}
);
vhints = (
{
position = 37;
width = 63;
},
{
position = 145;
width = 65;
},
{
position = 463;
width = 63;
},
{
position = 541;
width = 56;
}
);
};
};
width = 599;
}
);
unicode = 015C;
},
{
glyphname = T;
layers = (
{
layerId = master01;
paths = (
{
closed = 1;
nodes = (
"302 625 LINE",
"87 625 LINE",
"99 681 LINE",
"601 681 LINE",
"589 625 LINE",
"359 625 LINE",
"229 10 LINE",
"170 0 LINE"
);
}
);
userData = {
com.fontlab.hintData = {
hhints = (
{
position = 0;
width = 21;
},
{
position = 625;
width = 56;
}
);
};
};
width = 522;
}
);
unicode = 0054;
},
{
glyphname = Tcaron;
layers = (
{
layerId = master01;
paths = (
{
closed = 1;
nodes = (
"302 625 LINE",
"87 625 LINE",
"99 681 LINE",
"601 681 LINE",
"589 625 LINE",
"359 625 LINE",
"229 10 LINE",
"170 0 LINE"
);
},
{
closed = 1;
nodes = (
"529 838 LINE",
"353 718 LINE",
"250 840 LINE",
"295 880 LINE",
"372 792 LINE",
"505 881 LINE"
);
}
);
userData = {
com.fontlab.hintData = {
hhints = (
{
position = 0;
width = 21;
},
{
position = 625;
width = 56;
}
);
};
};
width = 522;
}
);
unicode = 0164;
},
{
glyphname = U;
layers = (
{
layerId = master01;
paths = (
{
closed = 1;
nodes = (
"128 0 OFFCURVE",
"77 88 OFFCURVE",
"77 225 CURVE SMOOTH",
"77 346 OFFCURVE",
"132 572 OFFCURVE",
"155 670 CURVE",
"214 680 LINE",
"195 612 OFFCURVE",
"133 364 OFFCURVE",
"133 237 CURVE SMOOTH",
"133 127 OFFCURVE",
"172 49 OFFCURVE",
"297 49 CURVE SMOOTH",
"501 49 OFFCURVE",
"562 260 OFFCURVE",
"598 431 CURVE SMOOTH",
"616 514 OFFCURVE",
"640 634 OFFCURVE",
"647 669 CURVE",
"705 680 LINE",
"700 656 OFFCURVE",
"679 550 OFFCURVE",
"664 476 CURVE SMOOTH",
"615 245 OFFCURVE",
"542 0 OFFCURVE",
"287 0 CURVE SMOOTH"
);
}
);
userData = {
com.fontlab.hintData = {
hhints = (
{
position = 0;
width = 49;
},
{
position = 660;
width = 20;
}
);
vhints = (
{
position = 77;
width = 56;
}
);
};
};
width = 684;
}
);
unicode = 0055;
},
{
glyphname = Uacute;
layers = (
{
layerId = master01;
paths = (
{
closed = 1;
nodes = (
"128 0 OFFCURVE",
"77 88 OFFCURVE",
"77 225 CURVE SMOOTH",
"77 346 OFFCURVE",
"132 572 OFFCURVE",
"155 670 CURVE",
"214 680 LINE",
"195 612 OFFCURVE",
"133 364 OFFCURVE",
"133 237 CURVE SMOOTH",
"133 127 OFFCURVE",
"172 49 OFFCURVE",
"297 49 CURVE SMOOTH",
"501 49 OFFCURVE",
"562 260 OFFCURVE",
"598 431 CURVE SMOOTH",
"616 514 OFFCURVE",
"640 634 OFFCURVE",
"647 669 CURVE",
"705 680 LINE",
"700 656 OFFCURVE",
"679 550 OFFCURVE",
"664 476 CURVE SMOOTH",
"615 245 OFFCURVE",
"542 0 OFFCURVE",
"287 0 CURVE SMOOTH"
);
},
{
closed = 1;
nodes = (
"548 893 LINE",
"592 848 LINE",
"406 736 LINE",
"372 771 LINE"
);
}
);
userData = {
com.fontlab.hintData = {
hhints = (
{
position = 0;
width = 49;
},
{
position = 660;
width = 20;
}
);
vhints = (
{
position = 77;
width = 56;
}
);
};
};
width = 684;
}
);
unicode = 00DA;
},
{
glyphname = Ubreve;
layers = (
{
layerId = master01;
paths = (
{
closed = 1;
nodes = (
"128 0 OFFCURVE",
"77 88 OFFCURVE",
"77 225 CURVE SMOOTH",
"77 346 OFFCURVE",
"132 572 OFFCURVE",
"155 670 CURVE",
"214 680 LINE",
"195 612 OFFCURVE",
"133 364 OFFCURVE",
"133 237 CURVE SMOOTH",
"133 127 OFFCURVE",
"172 49 OFFCURVE",
"297 49 CURVE SMOOTH",
"501 49 OFFCURVE",
"562 260 OFFCURVE",
"598 431 CURVE SMOOTH",
"616 514 OFFCURVE",
"640 634 OFFCURVE",
"647 669 CURVE",
"705 680 LINE",
"700 656 OFFCURVE",
"679 550 OFFCURVE",
"664 476 CURVE SMOOTH",
"615 245 OFFCURVE",
"542 0 OFFCURVE",
"287 0 CURVE SMOOTH"
);
},
{
closed = 1;
nodes = (
"507 785 OFFCURVE",
"543 814 OFFCURVE",
"571 863 CURVE",
"595 832 LINE",
"565 777 OFFCURVE",
"497 739 OFFCURVE",
"434 739 CURVE SMOOTH",
"364 739 OFFCURVE",
"313 775 OFFCURVE",
"300 828 CURVE",
"337 858 LINE",
"358 797 OFFCURVE",
"407 785 OFFCURVE",
"444 785 CURVE SMOOTH"
);
}
);
userData = {
com.fontlab.hintData = {
hhints = (
{
position = 0;
width = 49;
},
{
position = 660;
width = 20;
},
{
position = 739;
width = 46;
}
);
vhints = (
{
position = 77;
width = 56;
},
{
position = 300;
width = 37;
}
);
};
};
width = 684;
}
);
unicode = 016C;
},
{
glyphname = Ucircumflex;
layers = (
{
layerId = master01;
paths = (
{
closed = 1;
nodes = (
"128 0 OFFCURVE",
"77 88 OFFCURVE",
"77 225 CURVE SMOOTH",
"77 346 OFFCURVE",
"132 572 OFFCURVE",
"155 670 CURVE",
"214 680 LINE",
"195 612 OFFCURVE",
"133 364 OFFCURVE",
"133 237 CURVE SMOOTH",
"133 127 OFFCURVE",
"172 49 OFFCURVE",
"297 49 CURVE SMOOTH",
"501 49 OFFCURVE",
"562 260 OFFCURVE",
"598 431 CURVE SMOOTH",
"616 514 OFFCURVE",
"640 634 OFFCURVE",
"647 669 CURVE",
"705 680 LINE",
"700 656 OFFCURVE",
"679 550 OFFCURVE",
"664 476 CURVE SMOOTH",
"615 245 OFFCURVE",
"542 0 OFFCURVE",
"287 0 CURVE SMOOTH"
);
},
{
closed = 1;
nodes = (
"312 760 LINE",
"488 881 LINE",
"591 759 LINE",
"546 719 LINE",
"470 806 LINE",
"336 718 LINE"
);
}
);
userData = {
com.fontlab.hintData = {
hhints = (
{
position = 0;
width = 49;
},
{
position = 660;
width = 20;
}
);
vhints = (
{
position = 77;
width = 56;
}
);
};
};
width = 684;
}
);
unicode = 00DB;
},
{
glyphname = Udieresis;
layers = (
{
layerId = master01;
paths = (
{
closed = 1;
nodes = (
"128 0 OFFCURVE",
"77 88 OFFCURVE",
"77 225 CURVE SMOOTH",
"77 346 OFFCURVE",
"132 572 OFFCURVE",
"155 670 CURVE",
"214 680 LINE",
"195 612 OFFCURVE",
"133 364 OFFCURVE",
"133 237 CURVE SMOOTH",
"133 127 OFFCURVE",
"172 49 OFFCURVE",
"297 49 CURVE SMOOTH",
"501 49 OFFCURVE",
"562 260 OFFCURVE",
"598 431 CURVE SMOOTH",
"616 514 OFFCURVE",
"640 634 OFFCURVE",
"647 669 CURVE",
"705 680 LINE",
"700 656 OFFCURVE",
"679 550 OFFCURVE",
"664 476 CURVE SMOOTH",
"615 245 OFFCURVE",
"542 0 OFFCURVE",
"287 0 CURVE SMOOTH"
);
},
{
closed = 1;
nodes = (
"406 737 LINE",
"330 727 LINE",
"356 809 LINE",
"432 819 LINE"
);
},
{
closed = 1;
nodes = (
"566 737 LINE",
"490 727 LINE",
"516 809 LINE",
"592 819 LINE"
);
}
);
userData = {
com.fontlab.hintData = {
hhints = (
{
position = 0;
width = 49;
},
{
position = 660;
width = 20;
}
);
vhints = (
{
position = 77;
width = 56;
}
);
};
};
width = 684;
}
);
unicode = 00DC;
},
{
glyphname = Ugrave;
layers = (
{
layerId = master01;
paths = (
{
closed = 1;
nodes = (
"492 726 LINE",
"382 866 LINE",
"449 900 LINE",
"544 754 LINE"
);
},
{
closed = 1;
nodes = (
"128 0 OFFCURVE",
"77 88 OFFCURVE",
"77 225 CURVE SMOOTH",
"77 346 OFFCURVE",
"132 572 OFFCURVE",
"155 670 CURVE",
"214 680 LINE",
"195 612 OFFCURVE",
"133 364 OFFCURVE",
"133 237 CURVE SMOOTH",
"133 127 OFFCURVE",
"172 49 OFFCURVE",
"297 49 CURVE SMOOTH",
"501 49 OFFCURVE",
"562 260 OFFCURVE",
"598 431 CURVE SMOOTH",
"616 514 OFFCURVE",
"640 634 OFFCURVE",
"647 669 CURVE",
"705 680 LINE",
"700 656 OFFCURVE",
"679 550 OFFCURVE",
"664 476 CURVE SMOOTH",
"615 245 OFFCURVE",
"542 0 OFFCURVE",
"287 0 CURVE SMOOTH"
);
}
);
userData = {
com.fontlab.hintData = {
hhints = (
{
position = 0;
width = 49;
},
{
position = 660;
width = 20;
}
);
vhints = (
{
position = 77;
width = 56;
}
);
};
};
width = 684;
}
);
unicode = 00D9;
},
{
glyphname = Uhungarumlaut;
layers = (
{
layerId = master01;
paths = (
{
closed = 1;
nodes = (
"128 0 OFFCURVE",
"77 88 OFFCURVE",
"77 225 CURVE SMOOTH",
"77 346 OFFCURVE",
"132 572 OFFCURVE",
"155 670 CURVE",
"214 680 LINE",
"195 612 OFFCURVE",
"133 364 OFFCURVE",
"133 237 CURVE SMOOTH",
"133 127 OFFCURVE",
"172 49 OFFCURVE",
"297 49 CURVE SMOOTH",
"501 49 OFFCURVE",
"562 260 OFFCURVE",
"598 431 CURVE SMOOTH",
"616 514 OFFCURVE",
"640 634 OFFCURVE",
"647 669 CURVE",
"705 680 LINE",
"700 656 OFFCURVE",
"679 550 OFFCURVE",
"664 476 CURVE SMOOTH",
"615 245 OFFCURVE",
"542 0 OFFCURVE",
"287 0 CURVE SMOOTH"
);
},
{
closed = 1;
nodes = (
"471 893 LINE",
"515 848 LINE",
"329 736 LINE",
"295 771 LINE"
);
},
{
closed = 1;
nodes = (
"632 893 LINE",
"675 848 LINE",
"489 736 LINE",
"456 771 LINE"
);
}
);
userData = {
com.fontlab.hintData = {
hhints = (
{
position = 0;
width = 49;
},
{
position = 660;
width = 20;
}
);
vhints = (
{
position = 77;
width = 56;
}
);
};
};
width = 684;
}
);
unicode = 0170;
},
{
glyphname = Uring;
layers = (
{
layerId = master01;
paths = (
{
closed = 1;
nodes = (
"128 0 OFFCURVE",
"77 88 OFFCURVE",
"77 225 CURVE SMOOTH",
"77 346 OFFCURVE",
"132 572 OFFCURVE",
"155 670 CURVE",
"214 680 LINE",
"195 612 OFFCURVE",
"133 364 OFFCURVE",
"133 237 CURVE SMOOTH",
"133 127 OFFCURVE",
"172 49 OFFCURVE",
"297 49 CURVE SMOOTH",
"501 49 OFFCURVE",
"562 260 OFFCURVE",
"598 431 CURVE SMOOTH",
"616 514 OFFCURVE",
"640 634 OFFCURVE",
"647 669 CURVE",
"705 680 LINE",
"700 656 OFFCURVE",
"679 550 OFFCURVE",
"664 476 CURVE SMOOTH",
"615 245 OFFCURVE",
"542 0 OFFCURVE",
"287 0 CURVE SMOOTH"
);
},
{
closed = 1;
nodes = (
"381 721 OFFCURVE",
"345 757 OFFCURVE",
"345 804 CURVE SMOOTH",
"345 875 OFFCURVE",
"426 940 OFFCURVE",
"506 940 CURVE SMOOTH",
"567 940 OFFCURVE",
"600 900 OFFCURVE",
"600 856 CURVE SMOOTH",
"600 770 OFFCURVE",
"506 721 OFFCURVE",
"440 721 CURVE SMOOTH"
);
},
{
closed = 1;
nodes = (
"457 893 OFFCURVE",
"388 864 OFFCURVE",
"388 813 CURVE SMOOTH",
"388 785 OFFCURVE",
"415 767 OFFCURVE",
"452 767 CURVE SMOOTH",
"497 767 OFFCURVE",
"558 800 OFFCURVE",
"558 844 CURVE SMOOTH",
"558 871 OFFCURVE",
"530 893 OFFCURVE",
"493 893 CURVE SMOOTH"
);
}
);
userData = {
com.fontlab.hintData = {
hhints = (
{
position = 0;
width = 49;
},
{
position = 660;
width = 20;
},
{
position = 721;
width = 46;
},
{
position = 893;
width = 47;
}
);
vhints = (
{
position = 77;
width = 56;
},
{
position = 345;
width = 43;
},
{
position = 558;
width = 42;
}
);
};
};
width = 684;
}
);
unicode = 016E;
},
{
glyphname = V;
layers = (
{
layerId = master01;
paths = (
{
closed = 1;
nodes = (
"567 680 LINE",
"615 659 LINE",
"232 11 LINE",
"167 0 LINE",
"95 659 LINE",
"152 679 LINE",
"216 86 LINE"
);
}
);
userData = {
com.fontlab.hintData = {
hhints = (
{
position = 0;
width = 21;
},
{
position = 660;
width = 20;
}
);
};
};
width = 540;
}
);
unicode = 0056;
},
{
glyphname = W;
layers = (
{
layerId = master01;
paths = (
{
closed = 1;
nodes = (
"587 11 LINE",
"525 0 LINE",
"503 579 LINE",
"212 11 LINE",
"152 0 LINE",
"97 671 LINE",
"153 681 LINE",
"201 100 LINE",
"492 670 LINE",
"553 681 LINE",
"575 92 LINE",
"894 669 LINE",
"957 680 LINE"
);
}
);
userData = {
com.fontlab.hintData = {
hhints = (
{
position = 0;
width = 21;
},
{
position = 660;
width = 21;
}
);
vhints = (
{
position = 503;
width = 50;
},
{
position = 525;
width = 50;
}
);
};
};
width = 878;
}
);
unicode = 0057;
},
{
glyphname = X;
layers = (
{
layerId = master01;
paths = (
{
closed = 1;
nodes = (
"578 36 LINE",
"528 0 LINE",
"351 301 LINE",
"35 0 LINE",
"3 39 LINE",
"325 345 LINE",
"151 645 LINE",
"201 681 LINE",
"371 389 LINE",
"679 681 LINE",
"711 642 LINE",
"397 344 LINE"
);
}
);
userData = {
com.fontlab.hintData = {
hhints = (
{
position = 0;
width = 21;
},
{
position = 661;
width = 20;
}
);
};
};
width = 680;
}
);
unicode = 0058;
},
{
glyphname = Y;
layers = (
{
layerId = master01;
paths = (
{
closed = 1;
nodes = (
"654 677 LINE",
"716 677 LINE",
"171 0 LINE",
"109 0 LINE",
"280 214 LINE",
"108 677 LINE",
"170 677 LINE",
"323 266 LINE"
);
}
);
userData = {
com.fontlab.hintData = {
hhints = (
{
position = 0;
width = 21;
}
);
};
};
width = 628;
}
);
unicode = 0059;
},
{
glyphname = Yacute;
layers = (
{
layerId = master01;
paths = (
{
closed = 1;
nodes = (
"654 677 LINE",
"716 677 LINE",
"171 0 LINE",
"109 0 LINE",
"280 214 LINE",
"108 677 LINE",
"170 677 LINE",
"323 266 LINE"
);
},
{
closed = 1;
nodes = (
"520 893 LINE",
"564 848 LINE",
"378 736 LINE",
"344 771 LINE"
);
}
);
userData = {
com.fontlab.hintData = {
hhints = (
{
position = 0;
width = 21;
}
);
};
};
width = 628;
}
);
unicode = 00DD;
},
{
glyphname = Ydieresis;
layers = (
{
layerId = master01;
paths = (
{
closed = 1;
nodes = (
"654 677 LINE",
"716 677 LINE",
"171 0 LINE",
"109 0 LINE",
"280 214 LINE",
"108 677 LINE",
"170 677 LINE",
"323 266 LINE"
);
},
{
closed = 1;
nodes = (
"390 737 LINE",
"314 727 LINE",
"340 809 LINE",
"416 819 LINE"
);
},
{
closed = 1;
nodes = (
"550 737 LINE",
"474 727 LINE",
"500 809 LINE",
"576 819 LINE"
);
}
);
userData = {
com.fontlab.hintData = {
hhints = (
{
position = 0;
width = 21;
}
);
};
};
width = 628;
}
);
unicode = 0178;
},
{
glyphname = Z;
layers = (
{
layerId = master01;
paths = (
{
closed = 1;
nodes = (
"4 55 LINE",
"577 620 LINE",
"155 620 LINE",
"179 681 LINE",
"635 681 LINE",
"649 626 LINE",
"75 61 LINE",
"519 61 LINE",
"496 0 LINE",
"18 0 LINE"
);
}
);
userData = {
com.fontlab.hintData = {
hhints = (
{
position = 0;
width = 61;
},
{
position = 620;
width = 61;
}
);
};
};
width = 621;
}
);
unicode = 005A;
},
{
glyphname = Zacute;
layers = (
{
layerId = master01;
paths = (
{
closed = 1;
nodes = (
"4 55 LINE",
"577 620 LINE",
"155 620 LINE",
"179 681 LINE",
"635 681 LINE",
"649 626 LINE",
"75 61 LINE",
"519 61 LINE",
"496 0 LINE",
"18 0 LINE"
);
},
{
closed = 1;
nodes = (
"523 893 LINE",
"567 848 LINE",
"380 736 LINE",
"347 771 LINE"
);
}
);
userData = {
com.fontlab.hintData = {
hhints = (
{
position = 0;
width = 61;
},
{
position = 620;
width = 61;
}
);
};
};
width = 621;
}
);
unicode = 0179;
},
{
glyphname = Zcaron;
layers = (
{
layerId = master01;
paths = (
{
closed = 1;
nodes = (
"4 55 LINE",
"577 620 LINE",
"155 620 LINE",
"179 681 LINE",
"635 681 LINE",
"649 626 LINE",
"75 61 LINE",
"519 61 LINE",
"496 0 LINE",
"18 0 LINE"
);
},
{
closed = 1;
nodes = (
"581 838 LINE",
"405 718 LINE",
"302 840 LINE",
"347 880 LINE",
"424 792 LINE",
"557 881 LINE"
);
}
);
userData = {
com.fontlab.hintData = {
hhints = (
{
position = 0;
width = 61;
},
{
position = 620;
width = 61;
}
);
};
};
width = 621;
}
);
unicode = 017D;
},
{
glyphname = Zdotaccent;
layers = (
{
layerId = master01;
paths = (
{
closed = 1;
nodes = (
"4 55 LINE",
"577 620 LINE",
"155 620 LINE",
"179 681 LINE",
"635 681 LINE",
"649 626 LINE",
"75 61 LINE",
"519 61 LINE",
"496 0 LINE",
"18 0 LINE"
);
},
{
closed = 1;
nodes = (
"444 738 LINE",
"368 728 LINE",
"395 810 LINE",
"470 820 LINE"
);
}
);
userData = {
com.fontlab.hintData = {
hhints = (
{
position = 0;
width = 61;
},
{
position = 620;
width = 61;
}
);
};
};
width = 621;
}
);
unicode = 017B;
},
{
glyphname = uni0162;
layers = (
{
layerId = master01;
paths = (
{
closed = 1;
nodes = (
"302 625 LINE",
"87 625 LINE",
"99 681 LINE",
"601 681 LINE",
"589 625 LINE",
"359 625 LINE",
"229 10 LINE",
"170 0 LINE"
);
},
{
closed = 1;
nodes = (
"261 -58 LINE",
"133 -224 LINE",
"90 -196 LINE",
"164 -100 LINE",
"130 -78 LINE",
"199 -19 LINE"
);
}
);
userData = {
com.fontlab.hintData = {
hhints = (
{
position = 0;
width = 21;
},
{
position = 625;
width = 56;
}
);
};
};
width = 522;
}
);
unicode = 0162;
},
{
glyphname = a;
layers = (
{
layerId = master01;
paths = (
{
closed = 1;
nodes = (
"386 11 LINE",
"328 0 LINE",
"339 54 LINE",
"300 33 OFFCURVE",
"240 7 OFFCURVE",
"184 7 CURVE SMOOTH",
"92 7 OFFCURVE",
"35 69 OFFCURVE",
"35 164 CURVE SMOOTH",
"35 310 OFFCURVE",
"172 513 OFFCURVE",
"341 513 CURVE SMOOTH",
"396 513 OFFCURVE",
"444 495 OFFCURVE",
"484 472 CURVE"
);
},
{
closed = 1;
nodes = (
"254 62 OFFCURVE",
"325 103 OFFCURVE",
"351 120 CURVE",
"423 436 LINE",
"406 444 OFFCURVE",
"368 458 OFFCURVE",
"334 458 CURVE SMOOTH",
"158 458 OFFCURVE",
"94 235 OFFCURVE",
"94 178 CURVE SMOOTH",
"94 119 OFFCURVE",
"119 63 OFFCURVE",
"194 62 CURVE SMOOTH"
);
}
);
userData = {
com.fontlab.hintData = {
hhints = (
{
position = 0;
width = 21;
},
{
position = 7;
width = 55;
},
{
position = 458;
width = 55;
}
);
vhints = (
{
position = 35;
width = 59;
}
);
};
};
width = 504;
}
);
unicode = 0061;
},
{
glyphname = aacute;
layers = (
{
layerId = master01;
paths = (
{
closed = 1;
nodes = (
"386 11 LINE",
"328 0 LINE",
"339 54 LINE",
"300 33 OFFCURVE",
"240 7 OFFCURVE",
"184 7 CURVE SMOOTH",
"92 7 OFFCURVE",
"35 69 OFFCURVE",
"35 164 CURVE SMOOTH",
"35 310 OFFCURVE",
"172 513 OFFCURVE",
"341 513 CURVE SMOOTH",
"396 513 OFFCURVE",
"444 495 OFFCURVE",
"484 472 CURVE"
);
},
{
closed = 1;
nodes = (
"254 62 OFFCURVE",
"325 103 OFFCURVE",
"351 120 CURVE",
"423 436 LINE",
"406 444 OFFCURVE",
"368 458 OFFCURVE",
"334 458 CURVE SMOOTH",
"158 458 OFFCURVE",
"94 235 OFFCURVE",
"94 178 CURVE SMOOTH",
"94 119 OFFCURVE",
"119 63 OFFCURVE",
"194 62 CURVE SMOOTH"
);
},
{
closed = 1;
nodes = (
"416 724 LINE",
"459 679 LINE",
"273 567 LINE",
"240 602 LINE"
);
}
);
userData = {
com.fontlab.hintData = {
hhints = (
{
position = 0;
width = 21;
},
{
position = 7;
width = 55;
},
{
position = 458;
width = 55;
}
);
vhints = (
{
position = 35;
width = 59;
}
);
};
};
width = 504;
}
);
unicode = 00E1;
},
{
glyphname = abreve;
layers = (
{
layerId = master01;
paths = (
{
closed = 1;
nodes = (
"386 11 LINE",
"328 0 LINE",
"339 54 LINE",
"300 33 OFFCURVE",
"240 7 OFFCURVE",
"184 7 CURVE SMOOTH",
"92 7 OFFCURVE",
"35 69 OFFCURVE",
"35 164 CURVE SMOOTH",
"35 310 OFFCURVE",
"172 513 OFFCURVE",
"341 513 CURVE SMOOTH",
"396 513 OFFCURVE",
"444 495 OFFCURVE",
"484 472 CURVE"
);
},
{
closed = 1;
nodes = (
"254 62 OFFCURVE",
"325 103 OFFCURVE",
"351 120 CURVE",
"423 436 LINE",
"406 444 OFFCURVE",
"368 458 OFFCURVE",
"334 458 CURVE SMOOTH",
"158 458 OFFCURVE",
"94 235 OFFCURVE",
"94 178 CURVE SMOOTH",
"94 119 OFFCURVE",
"119 63 OFFCURVE",
"194 62 CURVE SMOOTH"
);
},
{
closed = 1;
nodes = (
"422 605 OFFCURVE",
"457 634 OFFCURVE",
"486 683 CURVE",
"510 652 LINE",
"479 597 OFFCURVE",
"411 559 OFFCURVE",
"348 559 CURVE SMOOTH",
"278 559 OFFCURVE",
"228 595 OFFCURVE",
"215 648 CURVE",
"252 678 LINE",
"273 617 OFFCURVE",
"322 605 OFFCURVE",
"359 605 CURVE SMOOTH"
);
}
);
userData = {
com.fontlab.hintData = {
hhints = (
{
position = 0;
width = 21;
},
{
position = 7;
width = 55;
},
{
position = 458;
width = 55;
},
{
position = 559;
width = 46;
},
{
position = 663;
width = 20;
}
);
vhints = (
{
position = 35;
width = 59;
},
{
position = 215;
width = 37;
}
);
};
};
width = 504;
}
);
unicode = 0103;
},
{
glyphname = acircumflex;
layers = (
{
layerId = master01;
paths = (
{
closed = 1;
nodes = (
"386 11 LINE",
"328 0 LINE",
"339 54 LINE",
"300 33 OFFCURVE",
"240 7 OFFCURVE",
"184 7 CURVE SMOOTH",
"92 7 OFFCURVE",
"35 69 OFFCURVE",
"35 164 CURVE SMOOTH",
"35 310 OFFCURVE",
"172 513 OFFCURVE",
"341 513 CURVE SMOOTH",
"396 513 OFFCURVE",
"444 495 OFFCURVE",
"484 472 CURVE"
);
},
{
closed = 1;
nodes = (
"254 62 OFFCURVE",
"325 103 OFFCURVE",
"351 120 CURVE",
"423 436 LINE",
"406 444 OFFCURVE",
"368 458 OFFCURVE",
"334 458 CURVE SMOOTH",
"158 458 OFFCURVE",
"94 235 OFFCURVE",
"94 178 CURVE SMOOTH",
"94 119 OFFCURVE",
"119 63 OFFCURVE",
"194 62 CURVE SMOOTH"
);
},
{
closed = 1;
nodes = (
"211 591 LINE",
"388 712 LINE",
"491 590 LINE",
"446 550 LINE",
"369 637 LINE",
"235 549 LINE"
);
}
);
userData = {
com.fontlab.hintData = {
hhints = (
{
position = 0;
width = 21;
},
{
position = 7;
width = 55;
},
{
position = 458;
width = 55;
}
);
vhints = (
{
position = 35;
width = 59;
}
);
};
};
width = 504;
}
);
unicode = 00E2;
},
{
glyphname = adieresis;
layers = (
{
layerId = master01;
paths = (
{
closed = 1;
nodes = (
"386 11 LINE",
"328 0 LINE",
"339 54 LINE",
"300 33 OFFCURVE",
"240 7 OFFCURVE",
"184 7 CURVE SMOOTH",
"92 7 OFFCURVE",
"35 69 OFFCURVE",
"35 164 CURVE SMOOTH",
"35 310 OFFCURVE",
"172 513 OFFCURVE",
"341 513 CURVE SMOOTH",
"396 513 OFFCURVE",
"444 495 OFFCURVE",
"484 472 CURVE"
);
},
{
closed = 1;
nodes = (
"254 62 OFFCURVE",
"325 103 OFFCURVE",
"351 120 CURVE",
"423 436 LINE",
"406 444 OFFCURVE",
"368 458 OFFCURVE",
"334 458 CURVE SMOOTH",
"158 458 OFFCURVE",
"94 235 OFFCURVE",
"94 178 CURVE SMOOTH",
"94 119 OFFCURVE",
"119 63 OFFCURVE",
"194 62 CURVE SMOOTH"
);
},
{
closed = 1;
nodes = (
"304 581 LINE",
"228 571 LINE",
"254 653 LINE",
"329 663 LINE"
);
},
{
closed = 1;
nodes = (
"464 581 LINE",
"388 571 LINE",
"414 653 LINE",
"489 663 LINE"
);
}
);
userData = {
com.fontlab.hintData = {
hhints = (
{
position = 0;
width = 21;
},
{
position = 7;
width = 55;
},
{
position = 458;
width = 55;
}
);
vhints = (
{
position = 35;
width = 59;
}
);
};
};
width = 504;
}
);
unicode = 00E4;
},
{
glyphname = agrave;
layers = (
{
layerId = master01;
paths = (
{
closed = 1;
nodes = (
"361 557 LINE",
"251 697 LINE",
"317 731 LINE",
"413 585 LINE"
);
},
{
closed = 1;
nodes = (
"386 11 LINE",
"328 0 LINE",
"339 54 LINE",
"300 33 OFFCURVE",
"240 7 OFFCURVE",
"184 7 CURVE SMOOTH",
"92 7 OFFCURVE",
"35 69 OFFCURVE",
"35 164 CURVE SMOOTH",
"35 310 OFFCURVE",
"172 513 OFFCURVE",
"341 513 CURVE SMOOTH",
"396 513 OFFCURVE",
"444 495 OFFCURVE",
"484 472 CURVE"
);
},
{
closed = 1;
nodes = (
"254 62 OFFCURVE",
"325 103 OFFCURVE",
"351 120 CURVE",
"423 436 LINE",
"406 444 OFFCURVE",
"368 458 OFFCURVE",
"334 458 CURVE SMOOTH",
"158 458 OFFCURVE",
"94 235 OFFCURVE",
"94 178 CURVE SMOOTH",
"94 119 OFFCURVE",
"119 63 OFFCURVE",
"194 62 CURVE SMOOTH"
);
}
);
userData = {
com.fontlab.hintData = {
hhints = (
{
position = 0;
width = 21;
},
{
position = 7;
width = 55;
},
{
position = 458;
width = 55;
}
);
vhints = (
{
position = 35;
width = 59;
}
);
};
};
width = 504;
}
);
unicode = 00E0;
},
{
glyphname = aogonek;
layers = (
{
layerId = master01;
paths = (
{
closed = 1;
nodes = (
"345 -11 LINE SMOOTH",
"317 -29 OFFCURVE",
"262 -63 OFFCURVE",
"262 -113 CURVE SMOOTH",
"262 -141 OFFCURVE",
"282 -158 OFFCURVE",
"312 -158 CURVE SMOOTH",
"344 -158 OFFCURVE",
"366 -145 OFFCURVE",
"393 -127 CURVE",
"410 -159 LINE",
"388 -180 OFFCURVE",
"344 -201 OFFCURVE",
"303 -201 CURVE SMOOTH",
"252 -201 OFFCURVE",
"219 -169 OFFCURVE",
"219 -122 CURVE SMOOTH",
"219 -58 OFFCURVE",
"281 -4 OFFCURVE",
"332 26 CURVE",
"338 54 LINE",
"299 33 OFFCURVE",
"239 7 OFFCURVE",
"183 7 CURVE SMOOTH",
"91 7 OFFCURVE",
"34 69 OFFCURVE",
"34 164 CURVE SMOOTH",
"34 310 OFFCURVE",
"171 513 OFFCURVE",
"340 513 CURVE SMOOTH",
"395 513 OFFCURVE",
"443 495 OFFCURVE",
"483 472 CURVE",
"386 15 LINE"
);
},
{
closed = 1;
nodes = (
"253 62 OFFCURVE",
"324 103 OFFCURVE",
"350 120 CURVE",
"422 436 LINE",
"405 444 OFFCURVE",
"367 458 OFFCURVE",
"333 458 CURVE SMOOTH",
"157 458 OFFCURVE",
"93 235 OFFCURVE",
"93 178 CURVE SMOOTH",
"93 119 OFFCURVE",
"118 63 OFFCURVE",
"193 62 CURVE SMOOTH"
);
}
);
userData = {
com.fontlab.hintData = {
hhints = (
{
position = -201;
width = 43;
},
{
position = 7;
width = 55;
},
{
position = 458;
width = 55;
}
);
vhints = (
{
position = 34;
width = 59;
},
{
position = 219;
width = 43;
}
);
};
};
width = 510;
}
);
unicode = 0105;
},
{
glyphname = aring;
layers = (
{
layerId = master01;
paths = (
{
closed = 1;
nodes = (
"267 563 OFFCURVE",
"234 603 OFFCURVE",
"234 647 CURVE SMOOTH",
"234 719 OFFCURVE",
"316 778 OFFCURVE",
"384 782 CURVE",
"442 782 OFFCURVE",
"490 754 OFFCURVE",
"490 701 CURVE SMOOTH",
"490 619 OFFCURVE",
"400 563 OFFCURVE",
"328 563 CURVE SMOOTH"
);
},
{
closed = 1;
nodes = (
"324 736 OFFCURVE",
"277 688 OFFCURVE",
"277 656 CURVE SMOOTH",
"277 625 OFFCURVE",
"309 610 OFFCURVE",
"340 610 CURVE SMOOTH",
"377 610 OFFCURVE",
"446 635 OFFCURVE",
"446 687 CURVE SMOOTH",
"446 716 OFFCURVE",
"417 736 OFFCURVE",
"383 736 CURVE SMOOTH"
);
},
{
closed = 1;
nodes = (
"386 11 LINE",
"328 0 LINE",
"339 54 LINE",
"300 33 OFFCURVE",
"240 7 OFFCURVE",
"184 7 CURVE SMOOTH",
"92 7 OFFCURVE",
"35 69 OFFCURVE",
"35 164 CURVE SMOOTH",
"35 310 OFFCURVE",
"172 513 OFFCURVE",
"341 513 CURVE SMOOTH",
"396 513 OFFCURVE",
"444 495 OFFCURVE",
"484 472 CURVE"
);
},
{
closed = 1;
nodes = (
"254 62 OFFCURVE",
"325 103 OFFCURVE",
"351 120 CURVE",
"423 436 LINE",
"406 444 OFFCURVE",
"368 458 OFFCURVE",
"334 458 CURVE SMOOTH",
"158 458 OFFCURVE",
"94 235 OFFCURVE",
"94 178 CURVE SMOOTH",
"94 119 OFFCURVE",
"119 63 OFFCURVE",
"194 62 CURVE SMOOTH"
);
}
);
userData = {
com.fontlab.hintData = {
hhints = (
{
position = 0;
width = 21;
},
{
position = 7;
width = 55;
},
{
position = 458;
width = 55;
},
{
position = 563;
width = 47;
},
{
position = 736;
width = 46;
}
);
vhints = (
{
position = 35;
width = 59;
},
{
position = 234;
width = 43;
},
{
position = 446;
width = 44;
}
);
};
};
width = 504;
}
);
unicode = 00E5;
},
{
glyphname = atilde;
layers = (
{
layerId = master01;
paths = (
{
closed = 1;
nodes = (
"386 11 LINE",
"328 0 LINE",
"339 54 LINE",
"300 33 OFFCURVE",
"240 7 OFFCURVE",
"184 7 CURVE SMOOTH",
"92 7 OFFCURVE",
"35 69 OFFCURVE",
"35 164 CURVE SMOOTH",
"35 310 OFFCURVE",
"172 513 OFFCURVE",
"341 513 CURVE SMOOTH",
"396 513 OFFCURVE",
"444 495 OFFCURVE",
"484 472 CURVE"
);
},
{
closed = 1;
nodes = (
"254 62 OFFCURVE",
"325 103 OFFCURVE",
"351 120 CURVE",
"423 436 LINE",
"406 444 OFFCURVE",
"368 458 OFFCURVE",
"334 458 CURVE SMOOTH",
"158 458 OFFCURVE",
"94 235 OFFCURVE",
"94 178 CURVE SMOOTH",
"94 119 OFFCURVE",
"119 63 OFFCURVE",
"194 62 CURVE SMOOTH"
);
},
{
closed = 1;
nodes = (
"439 597 OFFCURVE",
"475 659 OFFCURVE",
"490 688 CURVE",
"535 672 LINE",
"507 607 OFFCURVE",
"449 556 OFFCURVE",
"398 556 CURVE SMOOTH",
"350 556 OFFCURVE",
"331 593 OFFCURVE",
"317 624 CURVE SMOOTH",
"307 646 OFFCURVE",
"299 664 OFFCURVE",
"285 664 CURVE SMOOTH",
"254 664 OFFCURVE",
"217 605 OFFCURVE",
"206 580 CURVE",
"161 598 LINE",
"187 648 OFFCURVE",
"232 705 OFFCURVE",
"293 705 CURVE SMOOTH",
"347 705 OFFCURVE",
"364 661 OFFCURVE",
"378 629 CURVE SMOOTH",
"386 611 OFFCURVE",
"393 597 OFFCURVE",
"406 597 CURVE SMOOTH"
);
}
);
userData = {
com.fontlab.hintData = {
hhints = (
{
position = 0;
width = 21;
},
{
position = 7;
width = 55;
},
{
position = 458;
width = 55;
},
{
position = 556;
width = 41;
},
{
position = 664;
width = 41;
}
);
vhints = (
{
position = 35;
width = 59;
}
);
};
};
width = 513;
}
);
unicode = 00E3;
},
{
glyphname = ae;
layers = (
{
layerId = master01;
paths = (
{
closed = 1;
nodes = (
"497 0 OFFCURVE",
"435 37 OFFCURVE",
"404 95 CURVE",
"386 11 LINE",
"328 0 LINE",
"339 54 LINE",
"300 33 OFFCURVE",
"240 7 OFFCURVE",
"184 7 CURVE SMOOTH",
"92 7 OFFCURVE",
"35 69 OFFCURVE",
"35 164 CURVE SMOOTH",
"35 310 OFFCURVE",
"172 513 OFFCURVE",
"341 513 CURVE SMOOTH",
"396 513 OFFCURVE",
"444 495 OFFCURVE",
"484 472 CURVE",
"470 406 LINE",
"526 464 OFFCURVE",
"602 502 OFFCURVE",
"680 502 CURVE SMOOTH",
"769 502 OFFCURVE",
"828 435 OFFCURVE",
"834 355 CURVE",
"438 159 LINE",
"456 95 OFFCURVE",
"510 51 OFFCURVE",
"584 51 CURVE SMOOTH",
"635 51 OFFCURVE",
"688 72 OFFCURVE",
"733 111 CURVE",
"763 76 LINE",
"706 27 OFFCURVE",
"639 0 OFFCURVE",
"574 0 CURVE SMOOTH"
);
},
{
closed = 1;
nodes = (
"254 62 OFFCURVE",
"325 103 OFFCURVE",
"351 120 CURVE",
"423 436 LINE",
"406 444 OFFCURVE",
"368 458 OFFCURVE",
"334 458 CURVE SMOOTH",
"158 458 OFFCURVE",
"94 235 OFFCURVE",
"94 178 CURVE SMOOTH",
"94 119 OFFCURVE",
"119 63 OFFCURVE",
"194 62 CURVE SMOOTH"
);
},
{
closed = 1;
nodes = (
"545 451 OFFCURVE",
"433 330 OFFCURVE",
"433 208 CURVE",
"773 378 LINE",
"757 424 OFFCURVE",
"717 451 OFFCURVE",
"670 451 CURVE SMOOTH"
);
}
);
userData = {
com.fontlab.hintData = {
hhints = (
{
position = 0;
width = 51;
},
{
position = 7;
width = 55;
},
{
position = 451;
width = 51;
},
{
position = 458;
width = 55;
}
);
vhints = (
{
position = 35;
width = 59;
}
);
};
};
width = 864;
}
);
unicode = 00E6;
},
{
glyphname = b;
layers = (
{
layerId = master01;
paths = (
{
closed = 1;
nodes = (
"454 490 OFFCURVE",
"487 419 OFFCURVE",
"487 339 CURVE SMOOTH",
"487 188 OFFCURVE",
"390 1 OFFCURVE",
"204 1 CURVE SMOOTH",
"152 1 OFFCURVE",
"100 16 OFFCURVE",
"72 29 CURVE",
"66 0 LINE",
"12 10 LINE",
"154 681 LINE",
"213 692 LINE",
"152 409 LINE",
"198 459 OFFCURVE",
"278 490 OFFCURVE",
"353 490 CURVE SMOOTH"
);
},
{
closed = 1;
nodes = (
"343 55 OFFCURVE",
"432 177 OFFCURVE",
"432 323 CURVE SMOOTH",
"432 377 OFFCURVE",
"413 434 OFFCURVE",
"344 434 CURVE SMOOTH",
"237 434 OFFCURVE",
"144 370 OFFCURVE",
"127 291 CURVE SMOOTH",
"83 82 LINE",
"99 73 OFFCURVE",
"150 55 OFFCURVE",
"207 55 CURVE SMOOTH"
);
}
);
userData = {
com.fontlab.hintData = {
hhints = (
{
position = 1;
width = 54;
},
{
position = 434;
width = 56;
}
);
vhints = (
{
position = 432;
width = 55;
}
);
};
};
width = 528;
}
);
unicode = 0062;
},
{
glyphname = c;
layers = (
{
layerId = master01;
paths = (
{
closed = 1;
nodes = (
"295 55 OFFCURVE",
"354 88 OFFCURVE",
"391 137 CURVE",
"422 97 LINE",
"371 38 OFFCURVE",
"293 0 OFFCURVE",
"213 0 CURVE SMOOTH",
"112 0 OFFCURVE",
"36 73 OFFCURVE",
"36 173 CURVE SMOOTH",
"36 279 OFFCURVE",
"166 502 OFFCURVE",
"325 502 CURVE SMOOTH",
"389 502 OFFCURVE",
"437 477 OFFCURVE",
"462 430 CURVE",
"414 391 LINE",
"399 429 OFFCURVE",
"362 450 OFFCURVE",
"316 450 CURVE SMOOTH",
"192 450 OFFCURVE",
"90 258 OFFCURVE",
"90 176 CURVE SMOOTH",
"90 71 OFFCURVE",
"189 52 OFFCURVE",
"233 52 CURVE"
);
}
);
userData = {
com.fontlab.hintData = {
hhints = (
{
position = 0;
width = 52;
},
{
position = 450;
width = 52;
}
);
vhints = (
{
position = 36;
width = 54;
}
);
};
};
width = 507;
}
);
unicode = 0063;
},
{
glyphname = cacute;
layers = (
{
layerId = master01;
paths = (
{
closed = 1;
nodes = (
"295 55 OFFCURVE",
"354 88 OFFCURVE",
"391 137 CURVE",
"422 97 LINE",
"371 38 OFFCURVE",
"293 0 OFFCURVE",
"213 0 CURVE SMOOTH",
"112 0 OFFCURVE",
"36 73 OFFCURVE",
"36 173 CURVE SMOOTH",
"36 279 OFFCURVE",
"166 502 OFFCURVE",
"325 502 CURVE SMOOTH",
"389 502 OFFCURVE",
"437 477 OFFCURVE",
"462 430 CURVE",
"414 391 LINE",
"399 429 OFFCURVE",
"362 450 OFFCURVE",
"316 450 CURVE SMOOTH",
"192 450 OFFCURVE",
"90 258 OFFCURVE",
"90 176 CURVE SMOOTH",
"90 71 OFFCURVE",
"189 52 OFFCURVE",
"233 52 CURVE"
);
},
{
closed = 1;
nodes = (
"435 724 LINE",
"478 679 LINE",
"292 567 LINE",
"259 602 LINE"
);
}
);
userData = {
com.fontlab.hintData = {
hhints = (
{
position = 0;
width = 52;
},
{
position = 450;
width = 52;
}
);
vhints = (
{
position = 36;
width = 54;
}
);
};
};
width = 507;
}
);
unicode = 0107;
},
{
glyphname = ccaron;
layers = (
{
layerId = master01;
paths = (
{
closed = 1;
nodes = (
"295 55 OFFCURVE",
"354 88 OFFCURVE",
"391 137 CURVE",
"422 97 LINE",
"371 38 OFFCURVE",
"293 0 OFFCURVE",
"213 0 CURVE SMOOTH",
"112 0 OFFCURVE",
"36 73 OFFCURVE",
"36 173 CURVE SMOOTH",
"36 279 OFFCURVE",
"166 502 OFFCURVE",
"325 502 CURVE SMOOTH",
"389 502 OFFCURVE",
"437 477 OFFCURVE",
"462 430 CURVE",
"414 391 LINE",
"399 429 OFFCURVE",
"362 450 OFFCURVE",
"316 450 CURVE SMOOTH",
"192 450 OFFCURVE",
"90 258 OFFCURVE",
"90 176 CURVE SMOOTH",
"90 71 OFFCURVE",
"189 52 OFFCURVE",
"233 52 CURVE"
);
},
{
closed = 1;
nodes = (
"517 669 LINE",
"341 549 LINE",
"238 671 LINE",
"283 711 LINE",
"360 623 LINE",
"493 712 LINE"
);
}
);
userData = {
com.fontlab.hintData = {
hhints = (
{
position = 0;
width = 52;
},
{
position = 450;
width = 52;
}
);
vhints = (
{
position = 36;
width = 54;
}
);
};
};
width = 507;
}
);
unicode = 010D;
},
{
glyphname = ccedilla;
layers = (
{
layerId = master01;
paths = (
{
closed = 1;
nodes = (
"209 -159 OFFCURVE",
"239 -131 OFFCURVE",
"239 -99 CURVE SMOOTH",
"239 -77 OFFCURVE",
"223 -61 OFFCURVE",
"200 -61 CURVE SMOOTH",
"187 -61 OFFCURVE",
"171 -67 OFFCURVE",
"165 -72 CURVE",
"143 -42 LINE",
"170 5 LINE",
"91 23 OFFCURVE",
"36 88 OFFCURVE",
"36 173 CURVE SMOOTH",
"36 278 OFFCURVE",
"166 502 OFFCURVE",
"325 502 CURVE SMOOTH",
"389 502 OFFCURVE",
"437 477 OFFCURVE",
"462 430 CURVE",
"414 391 LINE",
"399 429 OFFCURVE",
"362 450 OFFCURVE",
"316 450 CURVE SMOOTH",
"192 450 OFFCURVE",
"90 258 OFFCURVE",
"90 176 CURVE SMOOTH",
"90 76 OFFCURVE",
"182 52 OFFCURVE",
"228 52 CURVE SMOOTH",
"291 52 OFFCURVE",
"353 87 OFFCURVE",
"391 137 CURVE",
"422 97 LINE",
"373 41 OFFCURVE",
"300 3 OFFCURVE",
"224 0 CURVE",
"203 0 LINE",
"197 -19 LINE",
"201 -19 LINE SMOOTH",
"249 -19 OFFCURVE",
"282 -46 OFFCURVE",
"282 -89 CURVE SMOOTH",
"282 -148 OFFCURVE",
"227 -201 OFFCURVE",
"170 -201 CURVE SMOOTH",
"141 -201 OFFCURVE",
"118 -188 OFFCURVE",
"105 -166 CURVE",
"142 -136 LINE",
"144 -149 OFFCURVE",
"163 -159 OFFCURVE",
"179 -159 CURVE SMOOTH"
);
}
);
userData = {
com.fontlab.hintData = {
hhints = (
{
position = -201;
width = 42;
},
{
position = -61;
width = 42;
},
{
position = 0;
width = 52;
},
{
position = 450;
width = 52;
}
);
vhints = (
{
position = 36;
width = 54;
},
{
position = 239;
width = 43;
}
);
};
};
width = 507;
}
);
unicode = 00E7;
},
{
glyphname = ccircumflex;
layers = (
{
layerId = master01;
paths = (
{
closed = 1;
nodes = (
"295 55 OFFCURVE",
"354 88 OFFCURVE",
"391 137 CURVE",
"422 97 LINE",
"371 38 OFFCURVE",
"293 0 OFFCURVE",
"213 0 CURVE SMOOTH",
"112 0 OFFCURVE",
"36 73 OFFCURVE",
"36 173 CURVE SMOOTH",
"36 279 OFFCURVE",
"166 502 OFFCURVE",
"325 502 CURVE SMOOTH",
"389 502 OFFCURVE",
"437 477 OFFCURVE",
"462 430 CURVE",
"414 391 LINE",
"399 429 OFFCURVE",
"362 450 OFFCURVE",
"316 450 CURVE SMOOTH",
"192 450 OFFCURVE",
"90 258 OFFCURVE",
"90 176 CURVE SMOOTH",
"90 71 OFFCURVE",
"189 52 OFFCURVE",
"233 52 CURVE SMOOTH"
);
},
{
closed = 1;
nodes = (
"201 591 LINE",
"378 712 LINE",
"481 590 LINE",
"436 550 LINE",
"359 637 LINE",
"225 549 LINE"
);
}
);
userData = {
com.fontlab.hintData = {
hhints = (
{
position = 0;
width = 52;
},
{
position = 450;
width = 52;
}
);
vhints = (
{
position = 36;
width = 54;
}
);
};
};
width = 507;
}
);
unicode = 0109;
},
{
glyphname = d;
layers = (
{
layerId = master01;
paths = (
{
closed = 1;
nodes = (
"554 697 LINE",
"392 10 LINE",
"334 0 LINE",
"353 80 LINE",
"311 48 OFFCURVE",
"246 6 OFFCURVE",
"167 6 CURVE SMOOTH",
"74 6 OFFCURVE",
"36 75 OFFCURVE",
"36 158 CURVE SMOOTH",
"36 344 OFFCURVE",
"158 495 OFFCURVE",
"315 495 CURVE SMOOTH",
"370 495 OFFCURVE",
"413 479 OFFCURVE",
"442 464 CURVE",
"495 687 LINE"
);
},
{
closed = 1;
nodes = (
"428 404 LINE",
"412 414 OFFCURVE",
"361 442 OFFCURVE",
"302 442 CURVE SMOOTH",
"136 442 OFFCURVE",
"92 225 OFFCURVE",
"92 164 CURVE SMOOTH",
"92 109 OFFCURVE",
"110 55 OFFCURVE",
"177 55 CURVE SMOOTH",
"278 55 OFFCURVE",
"365 131 OFFCURVE",
"372 162 CURVE SMOOTH"
);
}
);
userData = {
com.fontlab.hintData = {
hhints = (
{
position = 0;
width = 21;
},
{
position = 6;
width = 49;
},
{
position = 442;
width = 53;
}
);
vhints = (
{
position = 36;
width = 56;
}
);
};
};
width = 526;
}
);
unicode = 0064;
},
{
glyphname = eth;
layers = (
{
layerId = master01;
paths = (
{
closed = 1;
nodes = (
"394 513 OFFCURVE",
"438 422 OFFCURVE",
"438 323 CURVE SMOOTH",
"438 178 OFFCURVE",
"322 0 OFFCURVE",
"160 0 CURVE SMOOTH",
"80 0 OFFCURVE",
"27 52 OFFCURVE",
"27 133 CURVE SMOOTH",
"27 307 OFFCURVE",
"191 429 OFFCURVE",
"360 435 CURVE",
"342 482 OFFCURVE",
"316 524 OFFCURVE",
"293 557 CURVE",
"236 529 OFFCURVE",
"171 492 OFFCURVE",
"159 484 CURVE",
"148 520 LINE",
"184 541 OFFCURVE",
"234 568 OFFCURVE",
"270 587 CURVE",
"253 608 OFFCURVE",
"236 627 OFFCURVE",
"232 630 CURVE",
"273 668 LINE",
"283 660 OFFCURVE",
"304 635 OFFCURVE",
"322 613 CURVE",
"362 633 OFFCURVE",
"418 659 OFFCURVE",
"459 674 CURVE",
"465 638 LINE",
"435 626 OFFCURVE",
"381 602 OFFCURVE",
"343 583 CURVE"
);
},
{
closed = 1;
nodes = (
"297 51 OFFCURVE",
"386 201 OFFCURVE",
"386 313 CURVE SMOOTH",
"386 338 OFFCURVE",
"382 362 OFFCURVE",
"376 385 CURVE",
"228 385 OFFCURVE",
"79 299 OFFCURVE",
"79 142 CURVE SMOOTH",
"79 85 OFFCURVE",
"115 51 OFFCURVE",
"170 51 CURVE SMOOTH"
);
}
);
userData = {
com.fontlab.hintData = {
hhints = (
{
position = 0;
width = 51;
},
{
position = 385;
width = 50;
}
);
vhints = (
{
position = 27;
width = 52;
},
{
position = 386;
width = 52;
}
);
};
};
width = 482;
}
);
unicode = 00F0;
},
{
glyphname = dcaron;
layers = (
{
layerId = master01;
paths = (
{
closed = 1;
nodes = (
"717 652 LINE",
"589 486 LINE",
"546 514 LINE",
"620 610 LINE",
"586 632 LINE",
"655 691 LINE"
);
},
{
closed = 1;
nodes = (
"554 697 LINE",
"392 10 LINE",
"334 0 LINE",
"353 80 LINE",
"311 48 OFFCURVE",
"246 6 OFFCURVE",
"167 6 CURVE SMOOTH",
"74 6 OFFCURVE",
"36 75 OFFCURVE",
"36 158 CURVE SMOOTH",
"36 162 OFFCURVE",
"48 495 OFFCURVE",
"320 495 CURVE SMOOTH",
"375 495 OFFCURVE",
"413 479 OFFCURVE",
"442 464 CURVE",
"495 687 LINE"
);
},
{
closed = 1;
nodes = (
"428 404 LINE",
"412 414 OFFCURVE",
"361 442 OFFCURVE",
"302 442 CURVE SMOOTH",
"127 442 OFFCURVE",
"92 225 OFFCURVE",
"92 164 CURVE SMOOTH",
"92 109 OFFCURVE",
"110 55 OFFCURVE",
"177 55 CURVE SMOOTH",
"278 55 OFFCURVE",
"365 131 OFFCURVE",
"372 162 CURVE SMOOTH"
);
}
);
userData = {
com.fontlab.hintData = {
hhints = (
{
position = 0;
width = 21;
},
{
position = 6;
width = 49;
},
{
position = 442;
width = 53;
}
);
vhints = (
{
position = 36;
width = 56;
}
);
};
};
width = 609;
}
);
unicode = 010F;
},
{
glyphname = dcroat;
layers = (
{
layerId = master01;
paths = (
{
closed = 1;
nodes = (
"554 697 LINE",
"532 605 LINE",
"632 605 LINE",
"611 553 LINE",
"519 553 LINE",
"392 10 LINE",
"334 0 LINE",
"353 80 LINE",
"311 48 OFFCURVE",
"246 6 OFFCURVE",
"167 6 CURVE SMOOTH",
"74 6 OFFCURVE",
"36 75 OFFCURVE",
"36 158 CURVE SMOOTH",
"36 162 OFFCURVE",
"48 495 OFFCURVE",
"320 495 CURVE SMOOTH",
"375 495 OFFCURVE",
"413 479 OFFCURVE",
"442 464 CURVE",
"463 553 LINE",
"365 553 LINE",
"386 605 LINE",
"475 605 LINE",
"495 687 LINE"
);
},
{
closed = 1;
nodes = (
"428 404 LINE",
"412 414 OFFCURVE",
"361 442 OFFCURVE",
"302 442 CURVE SMOOTH",
"127 442 OFFCURVE",
"92 225 OFFCURVE",
"92 164 CURVE SMOOTH",
"92 109 OFFCURVE",
"110 55 OFFCURVE",
"177 55 CURVE SMOOTH",
"278 55 OFFCURVE",
"365 131 OFFCURVE",
"372 162 CURVE SMOOTH"
);
}
);
userData = {
com.fontlab.hintData = {
hhints = (
{
position = 0;
width = 21;
},
{
position = 6;
width = 49;
},
{
position = 442;
width = 53;
},
{
position = 553;
width = 52;
}
);
vhints = (
{
position = 36;
width = 56;
}
);
};
};
width = 550;
}
);
unicode = 0111;
},
{
glyphname = e;
layers = (
{
layerId = master01;
paths = (
{
closed = 1;
nodes = (
"121 0 OFFCURVE",
"42 85 OFFCURVE",
"42 197 CURVE SMOOTH",
"42 357 OFFCURVE",
"191 502 OFFCURVE",
"343 502 CURVE SMOOTH",
"432 502 OFFCURVE",
"491 435 OFFCURVE",
"497 355 CURVE",
"101 159 LINE",
"119 95 OFFCURVE",
"173 51 OFFCURVE",
"247 51 CURVE SMOOTH",
"298 51 OFFCURVE",
"351 72 OFFCURVE",
"396 111 CURVE",
"426 76 LINE",
"369 27 OFFCURVE",
"302 0 OFFCURVE",
"237 0 CURVE SMOOTH"
);
},
{
closed = 1;
nodes = (
"207 451 OFFCURVE",
"95 330 OFFCURVE",
"95 208 CURVE",
"435 378 LINE",
"419 424 OFFCURVE",
"379 451 OFFCURVE",
"332 451 CURVE SMOOTH"
);
}
);
userData = {
com.fontlab.hintData = {
hhints = (
{
position = 0;
width = 51;
},
{
position = 451;
width = 51;
}
);
vhints = (
{
position = 42;
width = 53;
}
);
};
};
width = 527;
}
);
unicode = 0065;
},
{
glyphname = eacute;
layers = (
{
layerId = master01;
paths = (
{
closed = 1;
nodes = (
"121 0 OFFCURVE",
"42 85 OFFCURVE",
"42 197 CURVE SMOOTH",
"42 357 OFFCURVE",
"191 502 OFFCURVE",
"343 502 CURVE SMOOTH",
"432 502 OFFCURVE",
"491 435 OFFCURVE",
"497 355 CURVE",
"101 159 LINE",
"119 95 OFFCURVE",
"173 51 OFFCURVE",
"247 51 CURVE SMOOTH",
"298 51 OFFCURVE",
"351 72 OFFCURVE",
"396 111 CURVE",
"426 76 LINE",
"369 27 OFFCURVE",
"302 0 OFFCURVE",
"237 0 CURVE SMOOTH"
);
},
{
closed = 1;
nodes = (
"207 451 OFFCURVE",
"95 330 OFFCURVE",
"95 208 CURVE",
"435 378 LINE",
"419 424 OFFCURVE",
"379 451 OFFCURVE",
"332 451 CURVE SMOOTH"
);
},
{
closed = 1;
nodes = (
"416 724 LINE",
"459 679 LINE",
"273 567 LINE",
"240 602 LINE"
);
}
);
userData = {
com.fontlab.hintData = {
hhints = (
{
position = 0;
width = 51;
},
{
position = 451;
width = 51;
}
);
vhints = (
{
position = 42;
width = 53;
}
);
};
};
width = 527;
}
);
unicode = 00E9;
},
{
glyphname = ecaron;
layers = (
{
layerId = master01;
paths = (
{
closed = 1;
nodes = (
"121 0 OFFCURVE",
"42 85 OFFCURVE",
"42 197 CURVE SMOOTH",
"42 357 OFFCURVE",
"191 502 OFFCURVE",
"343 502 CURVE SMOOTH",
"432 502 OFFCURVE",
"491 435 OFFCURVE",
"497 355 CURVE",
"101 159 LINE",
"119 95 OFFCURVE",
"173 51 OFFCURVE",
"247 51 CURVE SMOOTH",
"298 51 OFFCURVE",
"351 72 OFFCURVE",
"396 111 CURVE",
"426 76 LINE",
"369 27 OFFCURVE",
"302 0 OFFCURVE",
"237 0 CURVE SMOOTH"
);
},
{
closed = 1;
nodes = (
"207 451 OFFCURVE",
"95 330 OFFCURVE",
"95 208 CURVE",
"435 378 LINE",
"419 424 OFFCURVE",
"379 451 OFFCURVE",
"332 451 CURVE SMOOTH"
);
},
{
closed = 1;
nodes = (
"513 669 LINE",
"336 549 LINE",
"233 671 LINE",
"278 711 LINE",
"355 623 LINE",
"489 712 LINE"
);
}
);
userData = {
com.fontlab.hintData = {
hhints = (
{
position = 0;
width = 51;
},
{
position = 451;
width = 51;
}
);
vhints = (
{
position = 42;
width = 53;
}
);
};
};
width = 527;
}
);
unicode = 011B;
},
{
glyphname = ecircumflex;
layers = (
{
layerId = master01;
paths = (
{
closed = 1;
nodes = (
"121 0 OFFCURVE",
"42 85 OFFCURVE",
"42 197 CURVE SMOOTH",
"42 357 OFFCURVE",
"191 502 OFFCURVE",
"343 502 CURVE SMOOTH",
"432 502 OFFCURVE",
"491 435 OFFCURVE",
"497 355 CURVE",
"101 159 LINE",
"119 95 OFFCURVE",
"173 51 OFFCURVE",
"247 51 CURVE SMOOTH",
"298 51 OFFCURVE",
"351 72 OFFCURVE",
"396 111 CURVE",
"426 76 LINE",
"369 27 OFFCURVE",
"302 0 OFFCURVE",
"237 0 CURVE SMOOTH"
);
},
{
closed = 1;
nodes = (
"207 451 OFFCURVE",
"95 330 OFFCURVE",
"95 208 CURVE",
"435 378 LINE",
"419 424 OFFCURVE",
"379 451 OFFCURVE",
"332 451 CURVE SMOOTH"
);
},
{
closed = 1;
nodes = (
"195 591 LINE",
"371 712 LINE",
"474 590 LINE",
"429 550 LINE",
"352 637 LINE",
"219 549 LINE"
);
}
);
userData = {
com.fontlab.hintData = {
hhints = (
{
position = 0;
width = 51;
},
{
position = 451;
width = 51;
}
);
vhints = (
{
position = 42;
width = 53;
}
);
};
};
width = 527;
}
);
unicode = 00EA;
},
{
glyphname = edieresis;
layers = (
{
layerId = master01;
paths = (
{
closed = 1;
nodes = (
"121 0 OFFCURVE",
"42 85 OFFCURVE",
"42 197 CURVE SMOOTH",
"42 357 OFFCURVE",
"191 502 OFFCURVE",
"343 502 CURVE SMOOTH",
"432 502 OFFCURVE",
"491 435 OFFCURVE",
"497 355 CURVE",
"101 159 LINE",
"119 95 OFFCURVE",
"173 51 OFFCURVE",
"247 51 CURVE SMOOTH",
"298 51 OFFCURVE",
"351 72 OFFCURVE",
"396 111 CURVE",
"426 76 LINE",
"369 27 OFFCURVE",
"302 0 OFFCURVE",
"237 0 CURVE SMOOTH"
);
},
{
closed = 1;
nodes = (
"207 451 OFFCURVE",
"95 330 OFFCURVE",
"95 208 CURVE",
"435 378 LINE",
"419 424 OFFCURVE",
"379 451 OFFCURVE",
"332 451 CURVE SMOOTH"
);
},
{
closed = 1;
nodes = (
"300 581 LINE",
"224 571 LINE",
"250 653 LINE",
"325 663 LINE"
);
},
{
closed = 1;
nodes = (
"460 581 LINE",
"384 571 LINE",
"410 653 LINE",
"485 663 LINE"
);
}
);
userData = {
com.fontlab.hintData = {
hhints = (
{
position = 0;
width = 51;
},
{
position = 451;
width = 51;
}
);
vhints = (
{
position = 42;
width = 53;
}
);
};
};
width = 527;
}
);
unicode = 00EB;
},
{
glyphname = egrave;
layers = (
{
layerId = master01;
paths = (
{
closed = 1;
nodes = (
"368 557 LINE",
"258 697 LINE",
"325 731 LINE",
"420 585 LINE"
);
},
{
closed = 1;
nodes = (
"121 0 OFFCURVE",
"42 85 OFFCURVE",
"42 197 CURVE SMOOTH",
"42 357 OFFCURVE",
"191 502 OFFCURVE",
"343 502 CURVE SMOOTH",
"432 502 OFFCURVE",
"491 435 OFFCURVE",
"497 355 CURVE",
"101 159 LINE",
"119 95 OFFCURVE",
"173 51 OFFCURVE",
"247 51 CURVE SMOOTH",
"298 51 OFFCURVE",
"351 72 OFFCURVE",
"396 111 CURVE",
"426 76 LINE",
"369 27 OFFCURVE",
"302 0 OFFCURVE",
"237 0 CURVE SMOOTH"
);
},
{
closed = 1;
nodes = (
"207 451 OFFCURVE",
"95 330 OFFCURVE",
"95 208 CURVE",
"435 378 LINE",
"419 424 OFFCURVE",
"379 451 OFFCURVE",
"332 451 CURVE SMOOTH"
);
}
);
userData = {
com.fontlab.hintData = {
hhints = (
{
position = 0;
width = 51;
},
{
position = 451;
width = 51;
}
);
vhints = (
{
position = 42;
width = 53;
}
);
};
};
width = 527;
}
);
unicode = 00E8;
},
{
glyphname = eogonek;
layers = (
{
layerId = master01;
paths = (
{
closed = 1;
nodes = (
"331 -159 LINE",
"309 -180 OFFCURVE",
"265 -201 OFFCURVE",
"224 -201 CURVE SMOOTH",
"173 -201 OFFCURVE",
"140 -169 OFFCURVE",
"140 -122 CURVE SMOOTH",
"140 -73 OFFCURVE",
"175 -30 OFFCURVE",
"215 1 CURVE",
"110 10 OFFCURVE",
"42 91 OFFCURVE",
"42 196 CURVE SMOOTH",
"42 356 OFFCURVE",
"191 502 OFFCURVE",
"343 502 CURVE SMOOTH",
"432 502 OFFCURVE",
"491 435 OFFCURVE",
"497 355 CURVE",
"101 159 LINE",
"119 95 OFFCURVE",
"173 51 OFFCURVE",
"247 51 CURVE SMOOTH",
"298 51 OFFCURVE",
"351 72 OFFCURVE",
"396 111 CURVE",
"426 76 LINE",
"400 50 OFFCURVE",
"357 31 OFFCURVE",
"314 11 CURVE SMOOTH",
"248 -20 OFFCURVE",
"183 -52 OFFCURVE",
"183 -113 CURVE SMOOTH",
"183 -141 OFFCURVE",
"203 -158 OFFCURVE",
"233 -158 CURVE SMOOTH",
"265 -158 OFFCURVE",
"287 -145 OFFCURVE",
"314 -127 CURVE"
);
},
{
closed = 1;
nodes = (
"207 451 OFFCURVE",
"95 330 OFFCURVE",
"95 208 CURVE",
"435 378 LINE",
"419 424 OFFCURVE",
"379 451 OFFCURVE",
"332 451 CURVE SMOOTH"
);
}
);
userData = {
com.fontlab.hintData = {
hhints = (
{
position = -201;
width = 43;
},
{
position = 451;
width = 51;
}
);
vhints = (
{
position = 42;
width = 53;
},
{
position = 140;
width = 43;
}
);
};
};
width = 527;
}
);
unicode = 0119;
},
{
glyphname = f;
layers = (
{
layerId = master01;
paths = (
{
closed = 1;
nodes = (
"390 640 LINE",
"378 640 LINE SMOOTH",
"269 640 OFFCURVE",
"238 600 OFFCURVE",
"217 502 CURVE",
"348 502 LINE",
"325 451 LINE",
"201 451 LINE",
"108 10 LINE",
"50 0 LINE",
"145 451 LINE",
"60 451 LINE",
"80 502 LINE",
"156 502 LINE",
"186 642 OFFCURVE",
"259 694 OFFCURVE",
"393 694 CURVE SMOOTH",
"403 694 OFFCURVE",
"412 694 OFFCURVE",
"424 693 CURVE"
);
}
);
userData = {
com.fontlab.hintData = {
hhints = (
{
position = 0;
width = 21;
},
{
position = 451;
width = 51;
},
{
position = 640;
width = 54;
}
);
};
};
width = 332;
}
);
unicode = 0066;
},
{
glyphname = g;
layers = (
{
layerId = master01;
paths = (
{
closed = 1;
nodes = (
"395 19 LINE SMOOTH",
"364 -112 OFFCURVE",
"274 -185 OFFCURVE",
"149 -185 CURVE SMOOTH",
"101 -185 OFFCURVE",
"55 -178 OFFCURVE",
"25 -171 CURVE",
"49 -116 LINE",
"76 -122 OFFCURVE",
"118 -129 OFFCURVE",
"161 -129 CURVE SMOOTH",
"292 -129 OFFCURVE",
"327 -25 OFFCURVE",
"338 18 CURVE SMOOTH",
"353 79 LINE",
"307 31 OFFCURVE",
"252 0 OFFCURVE",
"194 0 CURVE SMOOTH",
"99 0 OFFCURVE",
"39 70 OFFCURVE",
"39 173 CURVE SMOOTH",
"39 317 OFFCURVE",
"166 501 OFFCURVE",
"339 501 CURVE SMOOTH",
"386 501 OFFCURVE",
"421 484 OFFCURVE",
"444 469 CURVE",
"451 499 LINE",
"509 508 LINE"
);
},
{
closed = 1;
nodes = (
"408 431 OFFCURVE",
"372 446 OFFCURVE",
"332 446 CURVE SMOOTH",
"205 446 OFFCURVE",
"90 320 OFFCURVE",
"90 192 CURVE SMOOTH",
"90 126 OFFCURVE",
"118 53 OFFCURVE",
"200 53 CURVE SMOOTH",
"271 53 OFFCURVE",
"362 106 OFFCURVE",
"397 268 CURVE SMOOTH",
"428 413 LINE"
);
}
);
userData = {
com.fontlab.hintData = {
hhints = (
{
position = -185;
width = 56;
},
{
position = 0;
width = 53;
},
{
position = 446;
width = 55;
}
);
vhints = (
{
position = 39;
width = 51;
}
);
};
};
width = 522;
}
);
unicode = 0067;
},
{
glyphname = gcircumflex;
layers = (
{
layerId = master01;
paths = (
{
closed = 1;
nodes = (
"395 19 LINE SMOOTH",
"364 -112 OFFCURVE",
"274 -185 OFFCURVE",
"149 -185 CURVE SMOOTH",
"101 -185 OFFCURVE",
"55 -178 OFFCURVE",
"25 -171 CURVE",
"49 -116 LINE",
"76 -122 OFFCURVE",
"118 -129 OFFCURVE",
"161 -129 CURVE SMOOTH",
"292 -129 OFFCURVE",
"327 -25 OFFCURVE",
"338 18 CURVE SMOOTH",
"353 79 LINE",
"307 31 OFFCURVE",
"252 0 OFFCURVE",
"194 0 CURVE SMOOTH",
"99 0 OFFCURVE",
"39 70 OFFCURVE",
"39 173 CURVE SMOOTH",
"39 317 OFFCURVE",
"166 501 OFFCURVE",
"339 501 CURVE SMOOTH",
"386 501 OFFCURVE",
"421 484 OFFCURVE",
"444 469 CURVE",
"451 499 LINE",
"509 508 LINE"
);
},
{
closed = 1;
nodes = (
"408 431 OFFCURVE",
"372 446 OFFCURVE",
"332 446 CURVE SMOOTH",
"205 446 OFFCURVE",
"90 320 OFFCURVE",
"90 192 CURVE SMOOTH",
"90 126 OFFCURVE",
"118 53 OFFCURVE",
"200 53 CURVE SMOOTH",
"271 53 OFFCURVE",
"362 106 OFFCURVE",
"397 268 CURVE SMOOTH",
"428 413 LINE"
);
},
{
closed = 1;
nodes = (
"211 591 LINE",
"388 712 LINE",
"491 590 LINE",
"446 550 LINE",
"369 637 LINE",
"235 549 LINE"
);
}
);
userData = {
com.fontlab.hintData = {
hhints = (
{
position = -185;
width = 56;
},
{
position = 0;
width = 53;
},
{
position = 446;
width = 55;
}
);
vhints = (
{
position = 39;
width = 51;
}
);
};
};
width = 522;
}
);
unicode = 011D;
},
{
glyphname = h;
layers = (
{
layerId = master01;
paths = (
{
closed = 1;
nodes = (
"68 10 LINE",
"10 0 LINE",
"154 681 LINE",
"213 692 LINE",
"137 336 LINE",
"190 416 OFFCURVE",
"287 505 OFFCURVE",
"371 505 CURVE SMOOTH",
"434 505 OFFCURVE",
"460 461 OFFCURVE",
"460 374 CURVE SMOOTH",
"460 315 OFFCURVE",
"449 238 OFFCURVE",
"428 142 CURVE SMOOTH",
"414 78 OFFCURVE",
"402 28 OFFCURVE",
"398 10 CURVE",
"342 0 LINE",
"345 14 OFFCURVE",
"358 69 OFFCURVE",
"372 136 CURVE SMOOTH",
"393 234 OFFCURVE",
"405 311 OFFCURVE",
"405 364 CURVE SMOOTH",
"405 421 OFFCURVE",
"391 451 OFFCURVE",
"359 451 CURVE SMOOTH",
"273 451 OFFCURVE",
"164 319 OFFCURVE",
"141 285 CURVE SMOOTH",
"124 260 OFFCURVE",
"114 230 OFFCURVE",
"107 196 CURVE SMOOTH"
);
}
);
userData = {
com.fontlab.hintData = {
hhints = (
{
position = 0;
width = 21;
},
{
position = 451;
width = 54;
}
);
vhints = (
{
position = 405;
width = 55;
}
);
};
};
width = 504;
}
);
unicode = 0068;
},
{
glyphname = hcircumflex;
layers = (
{
layerId = master01;
paths = (
{
closed = 1;
nodes = (
"68 10 LINE",
"10 0 LINE",
"154 681 LINE",
"213 692 LINE",
"137 336 LINE",
"190 416 OFFCURVE",
"287 505 OFFCURVE",
"371 505 CURVE SMOOTH",
"434 505 OFFCURVE",
"460 461 OFFCURVE",
"460 374 CURVE SMOOTH",
"460 315 OFFCURVE",
"449 238 OFFCURVE",
"428 142 CURVE SMOOTH",
"414 78 OFFCURVE",
"402 28 OFFCURVE",
"398 10 CURVE",
"342 0 LINE",
"345 14 OFFCURVE",
"358 69 OFFCURVE",
"372 136 CURVE SMOOTH",
"393 234 OFFCURVE",
"405 311 OFFCURVE",
"405 364 CURVE SMOOTH",
"405 421 OFFCURVE",
"391 451 OFFCURVE",
"359 451 CURVE SMOOTH",
"273 451 OFFCURVE",
"164 319 OFFCURVE",
"141 285 CURVE SMOOTH",
"124 260 OFFCURVE",
"114 230 OFFCURVE",
"107 196 CURVE SMOOTH"
);
},
{
closed = 1;
nodes = (
"201 760 LINE",
"377 881 LINE",
"480 759 LINE",
"435 719 LINE",
"358 806 LINE",
"225 718 LINE"
);
}
);
userData = {
com.fontlab.hintData = {
hhints = (
{
position = 0;
width = 21;
},
{
position = 451;
width = 54;
}
);
vhints = (
{
position = 405;
width = 55;
}
);
};
};
width = 504;
}
);
unicode = 0125;
},
{
glyphname = i;
layers = (
{
layerId = master01;
paths = (
{
closed = 1;
nodes = (
"175 500 LINE",
"71 10 LINE",
"10 0 LINE",
"114 491 LINE"
);
},
{
closed = 1;
nodes = (
"196 607 LINE",
"136 597 LINE",
"161 679 LINE",
"219 689 LINE"
);
}
);
userData = {
com.fontlab.hintData = {
hhints = (
{
position = 0;
width = 21;
}
);
vhints = (
{
position = 10;
width = 209;
}
);
};
};
width = 193;
}
);
unicode = 0069;
},
{
glyphname = iacute;
layers = (
{
layerId = master01;
paths = (
{
closed = 1;
nodes = (
"175 500 LINE",
"71 10 LINE",
"10 0 LINE",
"114 491 LINE"
);
},
{
closed = 1;
nodes = (
"272 724 LINE",
"315 679 LINE",
"129 567 LINE",
"96 602 LINE"
);
}
);
userData = {
com.fontlab.hintData = {
hhints = (
{
position = 0;
width = 21;
}
);
vhints = (
{
position = 10;
width = 305;
}
);
};
};
width = 205;
}
);
unicode = 00ED;
},
{
glyphname = icircumflex;
layers = (
{
layerId = master01;
paths = (
{
closed = 1;
nodes = (
"208 500 LINE",
"104 10 LINE",
"43 0 LINE",
"147 491 LINE"
);
},
{
closed = 1;
nodes = (
"64 591 LINE",
"240 712 LINE",
"343 590 LINE",
"298 550 LINE",
"221 637 LINE",
"88 549 LINE"
);
}
);
userData = {
com.fontlab.hintData = {
hhints = (
{
position = 0;
width = 21;
}
);
vhints = (
{
position = 43;
width = 300;
}
);
};
};
width = 246;
}
);
unicode = 00EE;
},
{
glyphname = idieresis;
layers = (
{
layerId = master01;
paths = (
{
closed = 1;
nodes = (
"203 500 LINE",
"99 10 LINE",
"38 0 LINE",
"142 491 LINE"
);
},
{
closed = 1;
nodes = (
"155 581 LINE",
"79 571 LINE",
"105 653 LINE",
"180 663 LINE"
);
},
{
closed = 1;
nodes = (
"315 581 LINE",
"239 571 LINE",
"265 653 LINE",
"340 663 LINE"
);
}
);
userData = {
com.fontlab.hintData = {
hhints = (
{
position = 0;
width = 21;
}
);
vhints = (
{
position = 38;
width = 302;
}
);
};
};
width = 246;
}
);
unicode = 00EF;
},
{
glyphname = igrave;
layers = (
{
layerId = master01;
paths = (
{
closed = 1;
nodes = (
"204 557 LINE",
"94 697 LINE",
"161 731 LINE",
"256 585 LINE"
);
},
{
closed = 1;
nodes = (
"187 500 LINE",
"83 10 LINE",
"22 0 LINE",
"126 491 LINE"
);
}
);
userData = {
com.fontlab.hintData = {
hhints = (
{
position = 0;
width = 21;
}
);
vhints = (
{
position = 22;
width = 234;
}
);
};
};
width = 217;
}
);
unicode = 00EC;
},
{
glyphname = j;
layers = (
{
layerId = master01;
paths = (
{
closed = 1;
nodes = (
"315 615 LINE",
"257 605 LINE",
"281 687 LINE",
"340 697 LINE"
);
},
{
closed = 1;
nodes = (
"-39 2 LINE",
"-31 -38 OFFCURVE",
"-5 -129 OFFCURVE",
"43 -129 CURVE SMOOTH",
"88 -129 OFFCURVE",
"119 -73 OFFCURVE",
"134 -5 CURVE SMOOTH",
"137 12 OFFCURVE",
"183 239 OFFCURVE",
"235 502 CURVE",
"295 513 LINE",
"241 247 OFFCURVE",
"196 17 OFFCURVE",
"193 0 CURVE",
"177 -72 OFFCURVE",
"130 -180 OFFCURVE",
"37 -180 CURVE SMOOTH",
"-61 -180 OFFCURVE",
"-93 -27 OFFCURVE",
"-97 -10 CURVE"
);
}
);
userData = {
com.fontlab.hintData = {
hhints = (
{
position = -180;
width = 51;
}
);
};
};
width = 313;
}
);
unicode = 006A;
},
{
glyphname = jcircumflex;
layers = (
{
layerId = master01;
paths = (
{
closed = 1;
nodes = (
"-39 2 LINE",
"-31 -38 OFFCURVE",
"-5 -129 OFFCURVE",
"43 -129 CURVE SMOOTH",
"88 -129 OFFCURVE",
"119 -73 OFFCURVE",
"134 -5 CURVE SMOOTH",
"137 12 OFFCURVE",
"183 239 OFFCURVE",
"235 502 CURVE",
"295 513 LINE",
"241 247 OFFCURVE",
"196 17 OFFCURVE",
"193 0 CURVE SMOOTH",
"177 -72 OFFCURVE",
"130 -180 OFFCURVE",
"37 -180 CURVE SMOOTH",
"-61 -180 OFFCURVE",
"-93 -27 OFFCURVE",
"-97 -10 CURVE"
);
},
{
closed = 1;
nodes = (
"141 591 LINE",
"318 712 LINE",
"421 590 LINE",
"376 550 LINE",
"299 637 LINE",
"165 549 LINE"
);
}
);
userData = {
com.fontlab.hintData = {
hhints = (
{
position = -180;
width = 51;
}
);
};
};
width = 313;
}
);
unicode = 0135;
},
{
glyphname = k;
layers = (
{
layerId = master01;
paths = (
{
closed = 1;
nodes = (
"275 286 OFFCURVE",
"342 169 OFFCURVE",
"416 37 CURVE",
"366 0 LINE",
"318 107 OFFCURVE",
"252 214 OFFCURVE",
"217 264 CURVE",
"171 235 OFFCURVE",
"136 214 OFFCURVE",
"110 201 CURVE",
"71 10 LINE",
"12 0 LINE",
"154 681 LINE",
"214 692 LINE",
"121 254 LINE",
"186 291 OFFCURVE",
"362 432 OFFCURVE",
"462 534 CURVE",
"499 502 LINE",
"443 445 OFFCURVE",
"318 334 OFFCURVE",
"266 298 CURVE"
);
}
);
userData = {
com.fontlab.hintData = {
hhints = (
{
position = 0;
width = 21;
}
);
};
};
width = 494;
}
);
unicode = 006B;
},
{
glyphname = l;
layers = (
{
layerId = master01;
paths = (
{
closed = 1;
nodes = (
"233 692 LINE",
"88 10 LINE",
"30 0 LINE",
"174 681 LINE"
);
}
);
userData = {
com.fontlab.hintData = {
hhints = (
{
position = 0;
width = 21;
}
);
vhints = (
{
position = 30;
width = 203;
}
);
};
};
width = 226;
}
);
unicode = 006C;
},
{
glyphname = lacute;
layers = (
{
layerId = master01;
paths = (
{
closed = 1;
nodes = (
"233 692 LINE",
"88 10 LINE",
"30 0 LINE",
"174 681 LINE"
);
},
{
closed = 1;
nodes = (
"324 893 LINE",
"367 848 LINE",
"181 736 LINE",
"148 771 LINE"
);
}
);
userData = {
com.fontlab.hintData = {
hhints = (
{
position = 0;
width = 21;
}
);
};
};
width = 226;
}
);
unicode = 013A;
},
{
glyphname = lcaron;
layers = (
{
layerId = master01;
paths = (
{
closed = 1;
nodes = (
"233 692 LINE",
"88 10 LINE",
"30 0 LINE",
"174 681 LINE"
);
},
{
closed = 1;
nodes = (
"399 655 LINE",
"270 489 LINE",
"227 517 LINE",
"302 613 LINE",
"267 635 LINE",
"337 694 LINE"
);
}
);
userData = {
com.fontlab.hintData = {
hhints = (
{
position = 0;
width = 21;
}
);
};
};
width = 290;
}
);
unicode = 013E;
},
{
glyphname = lslash;
layers = (
{
layerId = master01;
paths = (
{
closed = 1;
nodes = (
"176 330 LINE",
"108 10 LINE",
"50 0 LINE",
"112 294 LINE",
"52 261 LINE",
"30 308 LINE",
"126 362 LINE",
"194 681 LINE",
"253 692 LINE",
"190 397 LINE",
"251 432 LINE",
"272 384 LINE"
);
}
);
userData = {
com.fontlab.hintData = {
hhints = (
{
position = 0;
width = 21;
}
);
vhints = (
{
position = 30;
width = 242;
}
);
};
};
width = 266;
}
);
unicode = 0142;
},
{
glyphname = m;
layers = (
{
layerId = master01;
paths = (
{
closed = 1;
nodes = (
"128 288 OFFCURVE",
"122 264 OFFCURVE",
"122 264 CURVE",
"68 10 LINE",
"10 0 LINE",
"112 482 LINE",
"170 492 LINE",
"142 362 LINE",
"211 435 OFFCURVE",
"298 511 OFFCURVE",
"366 511 CURVE SMOOTH",
"416 511 OFFCURVE",
"471 490 OFFCURVE",
"472 400 CURVE",
"533 467 OFFCURVE",
"614 511 OFFCURVE",
"668 511 CURVE SMOOTH",
"719 511 OFFCURVE",
"774 489 OFFCURVE",
"774 396 CURVE SMOOTH",
"774 376 OFFCURVE",
"772 353 OFFCURVE",
"766 326 CURVE SMOOTH",
"699 10 LINE",
"640 0 LINE",
"710 333 LINE SMOOTH",
"715 357 OFFCURVE",
"717 377 OFFCURVE",
"717 393 CURVE SMOOTH",
"717 454 OFFCURVE",
"685 462 OFFCURVE",
"658 462 CURVE SMOOTH",
"604 462 OFFCURVE",
"477 396 OFFCURVE",
"453 282 CURVE SMOOTH",
"396 10 LINE",
"338 0 LINE",
"408 333 LINE SMOOTH",
"413 357 OFFCURVE",
"415 377 OFFCURVE",
"415 393 CURVE SMOOTH",
"415 454 OFFCURVE",
"383 462 OFFCURVE",
"356 462 CURVE SMOOTH",
"314 462 OFFCURVE",
"233 415 OFFCURVE",
"143 306 CURVE SMOOTH"
);
}
);
userData = {
com.fontlab.hintData = {
hhints = (
{
position = 0;
width = 21;
},
{
position = 462;
width = 49;
}
);
vhints = (
{
position = 415;
width = 57;
},
{
position = 717;
width = 57;
}
);
};
};
width = 817;
}
);
unicode = 006D;
},
{
glyphname = n;
layers = (
{
layerId = master01;
paths = (
{
closed = 1;
nodes = (
"129 297 LINE",
"174 411 OFFCURVE",
"276 501 OFFCURVE",
"377 501 CURVE SMOOTH",
"447 501 OFFCURVE",
"482 462 OFFCURVE",
"482 383 CURVE SMOOTH",
"482 323 OFFCURVE",
"465 241 OFFCURVE",
"439 115 CURVE SMOOTH",
"418 12 LINE",
"362 0 LINE",
"385 114 LINE SMOOTH",
"406 219 OFFCURVE",
"426 309 OFFCURVE",
"426 367 CURVE SMOOTH",
"426 425 OFFCURVE",
"411 446 OFFCURVE",
"365 446 CURVE SMOOTH",
"321 446 OFFCURVE",
"264 426 OFFCURVE",
"190 327 CURVE SMOOTH",
"144 265 OFFCURVE",
"104 182 OFFCURVE",
"89 112 CURVE SMOOTH",
"67 11 LINE",
"10 0 LINE",
"114 492 LINE",
"172 502 LINE"
);
}
);
userData = {
com.fontlab.hintData = {
hhints = (
{
position = 0;
width = 21;
},
{
position = 446;
width = 55;
}
);
vhints = (
{
position = 426;
width = 56;
}
);
};
};
width = 536;
}
);
unicode = 006E;
},
{
glyphname = nacute;
layers = (
{
layerId = master01;
paths = (
{
closed = 1;
nodes = (
"129 297 LINE",
"174 411 OFFCURVE",
"276 501 OFFCURVE",
"377 501 CURVE SMOOTH",
"447 501 OFFCURVE",
"482 462 OFFCURVE",
"482 383 CURVE SMOOTH",
"482 323 OFFCURVE",
"465 241 OFFCURVE",
"439 115 CURVE SMOOTH",
"418 12 LINE",
"362 0 LINE",
"385 114 LINE SMOOTH",
"406 219 OFFCURVE",
"426 309 OFFCURVE",
"426 367 CURVE SMOOTH",
"426 425 OFFCURVE",
"411 446 OFFCURVE",
"365 446 CURVE SMOOTH",
"321 446 OFFCURVE",
"264 426 OFFCURVE",
"190 327 CURVE SMOOTH",
"144 265 OFFCURVE",
"104 182 OFFCURVE",
"89 112 CURVE SMOOTH",
"67 11 LINE",
"10 0 LINE",
"114 492 LINE",
"172 502 LINE"
);
},
{
closed = 1;
nodes = (
"450 724 LINE",
"493 679 LINE",
"307 567 LINE",
"274 602 LINE"
);
}
);
userData = {
com.fontlab.hintData = {
hhints = (
{
position = 0;
width = 21;
},
{
position = 446;
width = 55;
}
);
vhints = (
{
position = 426;
width = 56;
}
);
};
};
width = 536;
}
);
unicode = 0144;
},
{
glyphname = ncaron;
layers = (
{
layerId = master01;
paths = (
{
closed = 1;
nodes = (
"129 297 LINE",
"174 411 OFFCURVE",
"276 501 OFFCURVE",
"377 501 CURVE SMOOTH",
"447 501 OFFCURVE",
"482 462 OFFCURVE",
"482 383 CURVE SMOOTH",
"482 323 OFFCURVE",
"465 241 OFFCURVE",
"439 115 CURVE SMOOTH",
"418 12 LINE",
"362 0 LINE",
"385 114 LINE SMOOTH",
"406 219 OFFCURVE",
"426 309 OFFCURVE",
"426 367 CURVE SMOOTH",
"426 425 OFFCURVE",
"411 446 OFFCURVE",
"365 446 CURVE SMOOTH",
"321 446 OFFCURVE",
"264 426 OFFCURVE",
"190 327 CURVE SMOOTH",
"144 265 OFFCURVE",
"104 182 OFFCURVE",
"89 112 CURVE SMOOTH",
"67 11 LINE",
"10 0 LINE",
"114 492 LINE",
"172 502 LINE"
);
},
{
closed = 1;
nodes = (
"523 669 LINE",
"346 549 LINE",
"243 671 LINE",
"288 711 LINE",
"365 623 LINE",
"499 712 LINE"
);
}
);
userData = {
com.fontlab.hintData = {
hhints = (
{
position = 0;
width = 21;
},
{
position = 446;
width = 55;
}
);
vhints = (
{
position = 426;
width = 56;
}
);
};
};
width = 536;
}
);
unicode = 0148;
},
{
glyphname = ntilde;
layers = (
{
layerId = master01;
paths = (
{
closed = 1;
nodes = (
"129 297 LINE",
"174 411 OFFCURVE",
"276 501 OFFCURVE",
"377 501 CURVE SMOOTH",
"447 501 OFFCURVE",
"482 462 OFFCURVE",
"482 383 CURVE SMOOTH",
"482 323 OFFCURVE",
"465 241 OFFCURVE",
"439 115 CURVE SMOOTH",
"418 12 LINE",
"362 0 LINE",
"385 114 LINE SMOOTH",
"406 219 OFFCURVE",
"426 309 OFFCURVE",
"426 367 CURVE SMOOTH",
"426 425 OFFCURVE",
"411 446 OFFCURVE",
"365 446 CURVE SMOOTH",
"321 446 OFFCURVE",
"264 426 OFFCURVE",
"190 327 CURVE SMOOTH",
"144 265 OFFCURVE",
"104 182 OFFCURVE",
"89 112 CURVE SMOOTH",
"67 11 LINE",
"10 0 LINE",
"114 492 LINE",
"172 502 LINE"
);
},
{
closed = 1;
nodes = (
"462 597 OFFCURVE",
"498 659 OFFCURVE",
"513 688 CURVE",
"558 672 LINE",
"530 607 OFFCURVE",
"472 556 OFFCURVE",
"421 556 CURVE SMOOTH",
"373 556 OFFCURVE",
"354 593 OFFCURVE",
"340 624 CURVE SMOOTH",
"330 646 OFFCURVE",
"322 664 OFFCURVE",
"308 664 CURVE SMOOTH",
"277 664 OFFCURVE",
"240 605 OFFCURVE",
"229 580 CURVE",
"184 598 LINE",
"210 648 OFFCURVE",
"255 705 OFFCURVE",
"316 705 CURVE SMOOTH",
"370 705 OFFCURVE",
"387 661 OFFCURVE",
"401 629 CURVE SMOOTH",
"409 611 OFFCURVE",
"416 597 OFFCURVE",
"429 597 CURVE SMOOTH"
);
}
);
userData = {
com.fontlab.hintData = {
hhints = (
{
position = 0;
width = 21;
},
{
position = 446;
width = 55;
},
{
position = 556;
width = 41;
},
{
position = 664;
width = 41;
}
);
vhints = (
{
position = 426;
width = 56;
}
);
};
};
width = 536;
}
);
unicode = 00F1;
},
{
glyphname = o;
layers = (
{
layerId = master01;
paths = (
{
closed = 1;
nodes = (
"99 0 OFFCURVE",
"37 75 OFFCURVE",
"37 176 CURVE SMOOTH",
"37 343 OFFCURVE",
"195 500 OFFCURVE",
"334 500 CURVE SMOOTH",
"431 500 OFFCURVE",
"493 423 OFFCURVE",
"493 323 CURVE SMOOTH",
"493 154 OFFCURVE",
"334 0 OFFCURVE",
"197 0 CURVE SMOOTH"
);
},
{
closed = 1;
nodes = (
"214 452 OFFCURVE",
"95 317 OFFCURVE",
"95 181 CURVE SMOOTH",
"95 106 OFFCURVE",
"135 48 OFFCURVE",
"207 48 CURVE SMOOTH",
"309 48 OFFCURVE",
"433 178 OFFCURVE",
"433 312 CURVE SMOOTH",
"433 390 OFFCURVE",
"389 452 OFFCURVE",
"319 452 CURVE SMOOTH"
);
}
);
userData = {
com.fontlab.hintData = {
hhints = (
{
position = 0;
width = 48;
},
{
position = 452;
width = 48;
}
);
vhints = (
{
position = 37;
width = 58;
},
{
position = 433;
width = 60;
}
);
};
};
width = 535;
}
);
unicode = 006F;
},
{
glyphname = oacute;
layers = (
{
layerId = master01;
paths = (
{
closed = 1;
nodes = (
"461 724 LINE",
"504 679 LINE",
"318 567 LINE",
"285 602 LINE"
);
},
{
closed = 1;
nodes = (
"99 0 OFFCURVE",
"37 75 OFFCURVE",
"37 176 CURVE SMOOTH",
"37 343 OFFCURVE",
"195 500 OFFCURVE",
"334 500 CURVE SMOOTH",
"431 500 OFFCURVE",
"493 423 OFFCURVE",
"493 323 CURVE SMOOTH",
"493 154 OFFCURVE",
"334 0 OFFCURVE",
"197 0 CURVE SMOOTH"
);
},
{
closed = 1;
nodes = (
"214 452 OFFCURVE",
"95 317 OFFCURVE",
"95 181 CURVE SMOOTH",
"95 106 OFFCURVE",
"135 48 OFFCURVE",
"207 48 CURVE SMOOTH",
"309 48 OFFCURVE",
"433 178 OFFCURVE",
"433 312 CURVE SMOOTH",
"433 390 OFFCURVE",
"389 452 OFFCURVE",
"319 452 CURVE SMOOTH"
);
}
);
userData = {
com.fontlab.hintData = {
hhints = (
{
position = 0;
width = 48;
},
{
position = 452;
width = 48;
}
);
vhints = (
{
position = 37;
width = 58;
},
{
position = 433;
width = 60;
}
);
};
};
width = 535;
}
);
unicode = 00F3;
},
{
glyphname = ocircumflex;
layers = (
{
layerId = master01;
paths = (
{
closed = 1;
nodes = (
"219 591 LINE",
"395 712 LINE",
"498 590 LINE",
"453 550 LINE",
"376 637 LINE",
"243 549 LINE"
);
},
{
closed = 1;
nodes = (
"99 0 OFFCURVE",
"37 75 OFFCURVE",
"37 176 CURVE SMOOTH",
"37 343 OFFCURVE",
"195 500 OFFCURVE",
"334 500 CURVE SMOOTH",
"431 500 OFFCURVE",
"493 423 OFFCURVE",
"493 323 CURVE SMOOTH",
"493 154 OFFCURVE",
"334 0 OFFCURVE",
"197 0 CURVE SMOOTH"
);
},
{
closed = 1;
nodes = (
"214 452 OFFCURVE",
"95 317 OFFCURVE",
"95 181 CURVE SMOOTH",
"95 106 OFFCURVE",
"135 48 OFFCURVE",
"207 48 CURVE SMOOTH",
"309 48 OFFCURVE",
"433 178 OFFCURVE",
"433 312 CURVE SMOOTH",
"433 390 OFFCURVE",
"389 452 OFFCURVE",
"319 452 CURVE SMOOTH"
);
}
);
userData = {
com.fontlab.hintData = {
hhints = (
{
position = 0;
width = 48;
},
{
position = 452;
width = 48;
}
);
vhints = (
{
position = 37;
width = 58;
},
{
position = 433;
width = 60;
}
);
};
};
width = 535;
}
);
unicode = 00F4;
},
{
glyphname = odieresis;
layers = (
{
layerId = master01;
paths = (
{
closed = 1;
nodes = (
"315 581 LINE",
"239 571 LINE",
"265 653 LINE",
"340 663 LINE"
);
},
{
closed = 1;
nodes = (
"475 581 LINE",
"399 571 LINE",
"425 653 LINE",
"500 663 LINE"
);
},
{
closed = 1;
nodes = (
"99 0 OFFCURVE",
"37 75 OFFCURVE",
"37 176 CURVE SMOOTH",
"37 343 OFFCURVE",
"195 500 OFFCURVE",
"334 500 CURVE SMOOTH",
"431 500 OFFCURVE",
"493 423 OFFCURVE",
"493 323 CURVE SMOOTH",
"493 154 OFFCURVE",
"334 0 OFFCURVE",
"197 0 CURVE SMOOTH"
);
},
{
closed = 1;
nodes = (
"214 452 OFFCURVE",
"95 317 OFFCURVE",
"95 181 CURVE SMOOTH",
"95 106 OFFCURVE",
"135 48 OFFCURVE",
"207 48 CURVE SMOOTH",
"309 48 OFFCURVE",
"433 178 OFFCURVE",
"433 312 CURVE SMOOTH",
"433 390 OFFCURVE",
"389 452 OFFCURVE",
"319 452 CURVE SMOOTH"
);
}
);
userData = {
com.fontlab.hintData = {
hhints = (
{
position = 0;
width = 48;
},
{
position = 452;
width = 48;
}
);
vhints = (
{
position = 37;
width = 58;
},
{
position = 433;
width = 60;
}
);
};
};
width = 535;
}
);
unicode = 00F6;
},
{
glyphname = ograve;
layers = (
{
layerId = master01;
paths = (
{
closed = 1;
nodes = (
"386 557 LINE",
"276 697 LINE",
"343 731 LINE",
"438 585 LINE"
);
},
{
closed = 1;
nodes = (
"99 0 OFFCURVE",
"37 75 OFFCURVE",
"37 176 CURVE SMOOTH",
"37 343 OFFCURVE",
"195 500 OFFCURVE",
"334 500 CURVE SMOOTH",
"431 500 OFFCURVE",
"493 423 OFFCURVE",
"493 323 CURVE SMOOTH",
"493 154 OFFCURVE",
"334 0 OFFCURVE",
"197 0 CURVE SMOOTH"
);
},
{
closed = 1;
nodes = (
"214 452 OFFCURVE",
"95 317 OFFCURVE",
"95 181 CURVE SMOOTH",
"95 106 OFFCURVE",
"135 48 OFFCURVE",
"207 48 CURVE SMOOTH",
"309 48 OFFCURVE",
"433 178 OFFCURVE",
"433 312 CURVE SMOOTH",
"433 390 OFFCURVE",
"389 452 OFFCURVE",
"319 452 CURVE SMOOTH"
);
}
);
userData = {
com.fontlab.hintData = {
hhints = (
{
position = 0;
width = 48;
},
{
position = 452;
width = 48;
}
);
vhints = (
{
position = 37;
width = 58;
},
{
position = 433;
width = 60;
}
);
};
};
width = 535;
}
);
unicode = 00F2;
},
{
glyphname = ohungarumlaut;
layers = (
{
layerId = master01;
paths = (
{
closed = 1;
nodes = (
"390 724 LINE",
"433 679 LINE",
"247 567 LINE",
"214 602 LINE"
);
},
{
closed = 1;
nodes = (
"550 724 LINE",
"594 679 LINE",
"408 567 LINE",
"374 602 LINE"
);
},
{
closed = 1;
nodes = (
"99 0 OFFCURVE",
"37 75 OFFCURVE",
"37 176 CURVE SMOOTH",
"37 343 OFFCURVE",
"195 500 OFFCURVE",
"334 500 CURVE SMOOTH",
"431 500 OFFCURVE",
"493 423 OFFCURVE",
"493 323 CURVE SMOOTH",
"493 154 OFFCURVE",
"334 0 OFFCURVE",
"197 0 CURVE SMOOTH"
);
},
{
closed = 1;
nodes = (
"214 452 OFFCURVE",
"95 317 OFFCURVE",
"95 181 CURVE SMOOTH",
"95 106 OFFCURVE",
"135 48 OFFCURVE",
"207 48 CURVE SMOOTH",
"309 48 OFFCURVE",
"433 178 OFFCURVE",
"433 312 CURVE SMOOTH",
"433 390 OFFCURVE",
"389 452 OFFCURVE",
"319 452 CURVE SMOOTH"
);
}
);
userData = {
com.fontlab.hintData = {
hhints = (
{
position = 0;
width = 48;
},
{
position = 452;
width = 48;
}
);
vhints = (
{
position = 37;
width = 58;
},
{
position = 433;
width = 60;
}
);
};
};
width = 555;
}
);
unicode = 0151;
},
{
glyphname = oslash;
layers = (
{
layerId = master01;
paths = (
{
closed = 1;
nodes = (
"478 420 OFFCURVE",
"493 374 OFFCURVE",
"493 325 CURVE SMOOTH",
"493 155 OFFCURVE",
"336 0 OFFCURVE",
"197 0 CURVE SMOOTH",
"164 0 OFFCURVE",
"133 9 OFFCURVE",
"108 25 CURVE",
"60 -35 LINE",
"22 -9 LINE",
"74 56 LINE",
"50 87 OFFCURVE",
"37 128 OFFCURVE",
"37 174 CURVE SMOOTH",
"37 342 OFFCURVE",
"194 500 OFFCURVE",
"334 500 CURVE SMOOTH",
"363 500 OFFCURVE",
"389 493 OFFCURVE",
"413 480 CURVE",
"463 545 LINE",
"502 519 LINE",
"448 451 LINE"
);
},
{
closed = 1;
nodes = (
"377 436 LINE",
"359 446 OFFCURVE",
"340 452 OFFCURVE",
"319 452 CURVE SMOOTH",
"215 452 OFFCURVE",
"95 318 OFFCURVE",
"95 183 CURVE SMOOTH",
"95 153 OFFCURVE",
"101 126 OFFCURVE",
"112 104 CURVE"
);
},
{
closed = 1;
nodes = (
"327 48 OFFCURVE",
"432 199 OFFCURVE",
"432 313 CURVE SMOOTH",
"432 347 OFFCURVE",
"424 378 OFFCURVE",
"409 402 CURVE",
"142 68 LINE",
"160 55 OFFCURVE",
"182 48 OFFCURVE",
"207 48 CURVE SMOOTH"
);
}
);
userData = {
com.fontlab.hintData = {
hhints = (
{
position = 0;
width = 48;
},
{
position = 452;
width = 48;
}
);
vhints = (
{
position = 37;
width = 58;
},
{
position = 432;
width = 61;
}
);
};
};
width = 535;
}
);
unicode = 00F8;
},
{
glyphname = otilde;
layers = (
{
layerId = master01;
paths = (
{
closed = 1;
nodes = (
"99 0 OFFCURVE",
"37 75 OFFCURVE",
"37 176 CURVE SMOOTH",
"37 343 OFFCURVE",
"195 500 OFFCURVE",
"334 500 CURVE SMOOTH",
"431 500 OFFCURVE",
"493 423 OFFCURVE",
"493 323 CURVE SMOOTH",
"493 154 OFFCURVE",
"334 0 OFFCURVE",
"197 0 CURVE SMOOTH"
);
},
{
closed = 1;
nodes = (
"214 452 OFFCURVE",
"95 317 OFFCURVE",
"95 181 CURVE SMOOTH",
"95 106 OFFCURVE",
"135 48 OFFCURVE",
"207 48 CURVE SMOOTH",
"309 48 OFFCURVE",
"433 178 OFFCURVE",
"433 312 CURVE SMOOTH",
"433 390 OFFCURVE",
"389 452 OFFCURVE",
"319 452 CURVE SMOOTH"
);
},
{
closed = 1;
nodes = (
"459 597 OFFCURVE",
"495 659 OFFCURVE",
"510 688 CURVE",
"555 672 LINE",
"527 607 OFFCURVE",
"469 556 OFFCURVE",
"418 556 CURVE SMOOTH",
"370 556 OFFCURVE",
"351 593 OFFCURVE",
"337 624 CURVE SMOOTH",
"327 646 OFFCURVE",
"319 664 OFFCURVE",
"305 664 CURVE SMOOTH",
"274 664 OFFCURVE",
"237 605 OFFCURVE",
"226 580 CURVE",
"181 598 LINE",
"207 648 OFFCURVE",
"252 705 OFFCURVE",
"313 705 CURVE SMOOTH",
"367 705 OFFCURVE",
"384 661 OFFCURVE",
"398 629 CURVE SMOOTH",
"406 611 OFFCURVE",
"413 597 OFFCURVE",
"426 597 CURVE SMOOTH"
);
}
);
userData = {
com.fontlab.hintData = {
hhints = (
{
position = 0;
width = 48;
},
{
position = 452;
width = 48;
},
{
position = 556;
width = 41;
},
{
position = 664;
width = 41;
}
);
vhints = (
{
position = 37;
width = 58;
},
{
position = 433;
width = 60;
}
);
};
};
width = 535;
}
);
unicode = 00F5;
},
{
glyphname = oe;
layers = (
{
layerId = master01;
paths = (
{
closed = 1;
nodes = (
"682 51 OFFCURVE",
"735 72 OFFCURVE",
"780 111 CURVE",
"810 76 LINE",
"753 27 OFFCURVE",
"686 0 OFFCURVE",
"621 0 CURVE SMOOTH",
"524 0 OFFCURVE",
"453 59 OFFCURVE",
"432 144 CURVE",
"374 59 OFFCURVE",
"284 0 OFFCURVE",
"197 0 CURVE SMOOTH",
"99 0 OFFCURVE",
"37 75 OFFCURVE",
"37 176 CURVE SMOOTH",
"37 343 OFFCURVE",
"195 500 OFFCURVE",
"334 500 CURVE SMOOTH",
"411 500 OFFCURVE",
"470 451 OFFCURVE",
"488 372 CURVE",
"545 448 OFFCURVE",
"635 502 OFFCURVE",
"727 502 CURVE SMOOTH",
"809 502 OFFCURVE",
"875 435 OFFCURVE",
"881 355 CURVE",
"881 355 OFFCURVE",
"604 218 OFFCURVE",
"485 159 CURVE",
"503 95 OFFCURVE",
"557 51 OFFCURVE",
"631 51 CURVE SMOOTH"
);
},
{
closed = 1;
nodes = (
"325 48 OFFCURVE",
"433 199 OFFCURVE",
"433 312 CURVE SMOOTH",
"433 390 OFFCURVE",
"389 452 OFFCURVE",
"319 452 CURVE SMOOTH",
"214 452 OFFCURVE",
"95 317 OFFCURVE",
"95 181 CURVE SMOOTH",
"95 106 OFFCURVE",
"135 48 OFFCURVE",
"207 48 CURVE SMOOTH"
);
},
{
closed = 1;
nodes = (
"480 236 OFFCURVE",
"479 222 OFFCURVE",
"479 208 CURVE",
"819 378 LINE",
"803 424 OFFCURVE",
"763 451 OFFCURVE",
"716 451 CURVE SMOOTH",
"610 451 OFFCURVE",
"506 361 OFFCURVE",
"483 251 CURVE SMOOTH"
);
}
);
userData = {
com.fontlab.hintData = {
hhints = (
{
position = 0;
width = 51;
},
{
position = 452;
width = 48;
}
);
vhints = (
{
position = 37;
width = 58;
},
{
position = 433;
width = 46;
}
);
};
};
width = 911;
}
);
unicode = 0153;
},
{
glyphname = p;
layers = (
{
layerId = master01;
paths = (
{
closed = 1;
nodes = (
"443 493 OFFCURVE",
"477 420 OFFCURVE",
"477 338 CURVE SMOOTH",
"477 188 OFFCURVE",
"378 7 OFFCURVE",
"199 7 CURVE SMOOTH",
"147 7 OFFCURVE",
"101 22 OFFCURVE",
"73 35 CURVE",
"27 -183 LINE",
"-32 -193 LINE",
"113 488 LINE",
"172 499 LINE",
"156 428 LINE",
"205 465 OFFCURVE",
"270 496 OFFCURVE",
"358 496 CURVE"
);
},
{
closed = 1;
nodes = (
"349 63 OFFCURVE",
"428 198 OFFCURVE",
"428 332 CURVE SMOOTH",
"428 390 OFFCURVE",
"408 447 OFFCURVE",
"338 447 CURVE SMOOTH",
"235 447 OFFCURVE",
"164 385 OFFCURVE",
"142 360 CURVE",
"86 97 LINE",
"103 88 OFFCURVE",
"155 63 OFFCURVE",
"214 63 CURVE SMOOTH"
);
}
);
userData = {
com.fontlab.hintData = {
hhints = (
{
position = 7;
width = 56;
},
{
position = 447;
width = 49;
}
);
vhints = (
{
position = 428;
width = 49;
}
);
};
};
width = 518;
}
);
unicode = 0070;
},
{
glyphname = thorn;
layers = (
{
layerId = master01;
paths = (
{
closed = 1;
nodes = (
"453 489 OFFCURVE",
"487 419 OFFCURVE",
"487 339 CURVE SMOOTH",
"487 189 OFFCURVE",
"389 0 OFFCURVE",
"204 0 CURVE SMOOTH",
"152 0 OFFCURVE",
"100 15 OFFCURVE",
"71 28 CURVE",
"26 -185 LINE",
"-28 -175 LINE",
"154 680 LINE",
"212 691 LINE",
"152 408 LINE",
"193 452 OFFCURVE",
"270 489 OFFCURVE",
"351 489 CURVE SMOOTH"
);
},
{
closed = 1;
nodes = (
"346 54 OFFCURVE",
"432 187 OFFCURVE",
"432 322 CURVE SMOOTH",
"432 376 OFFCURVE",
"413 433 OFFCURVE",
"344 433 CURVE SMOOTH",
"237 433 OFFCURVE",
"144 369 OFFCURVE",
"127 290 CURVE SMOOTH",
"83 81 LINE",
"99 72 OFFCURVE",
"150 54 OFFCURVE",
"207 54 CURVE SMOOTH"
);
}
);
userData = {
com.fontlab.hintData = {
hhints = (
{
position = 0;
width = 54;
},
{
position = 433;
width = 56;
}
);
vhints = (
{
position = 432;
width = 55;
}
);
};
};
width = 528;
}
);
unicode = 00FE;
},
{
glyphname = q;
layers = (
{
layerId = master01;
paths = (
{
closed = 1;
nodes = (
"456 510 LINE",
"510 508 LINE",
"339 -186 LINE",
"281 -196 LINE",
"344 59 LINE",
"307 12 OFFCURVE",
"270 -10 OFFCURVE",
"199 -10 CURVE SMOOTH",
"97 -10 OFFCURVE",
"33 61 OFFCURVE",
"33 158 CURVE SMOOTH",
"33 333 OFFCURVE",
"189 496 OFFCURVE",
"377 496 CURVE SMOOTH",
"400 496 OFFCURVE",
"426 494 OFFCURVE",
"451 490 CURVE"
);
},
{
closed = 1;
nodes = (
"439 438 LINE",
"417 442 OFFCURVE",
"388 445 OFFCURVE",
"366 445 CURVE SMOOTH",
"229 445 OFFCURVE",
"85 328 OFFCURVE",
"85 166 CURVE SMOOTH",
"85 91 OFFCURVE",
"134 42 OFFCURVE",
"209 42 CURVE SMOOTH",
"289 42 OFFCURVE",
"352 85 OFFCURVE",
"371 163 CURVE SMOOTH"
);
}
);
userData = {
com.fontlab.hintData = {
hhints = (
{
position = -196;
width = 21;
},
{
position = -10;
width = 52;
},
{
position = 445;
width = 51;
}
);
vhints = (
{
position = 33;
width = 52;
}
);
};
};
width = 523;
}
);
unicode = 0071;
},
{
glyphname = r;
layers = (
{
layerId = master01;
paths = (
{
closed = 1;
nodes = (
"402 389 LINE",
"345 379 LINE",
"352 412 LINE SMOOTH",
"353 418 OFFCURVE",
"354 423 OFFCURVE",
"354 427 CURVE SMOOTH",
"354 439 OFFCURVE",
"348 447 OFFCURVE",
"326 447 CURVE SMOOTH",
"255 447 OFFCURVE",
"139 348 OFFCURVE",
"119 252 CURVE SMOOTH",
"68 10 LINE",
"10 0 LINE",
"114 492 LINE",
"172 502 LINE",
"145 376 LINE",
"188 430 OFFCURVE",
"262 502 OFFCURVE",
"344 502 CURVE SMOOTH",
"386 502 OFFCURVE",
"412 477 OFFCURVE",
"412 444 CURVE SMOOTH",
"412 440 OFFCURVE",
"411 432 OFFCURVE",
"410 428 CURVE SMOOTH"
);
}
);
userData = {
com.fontlab.hintData = {
hhints = (
{
position = 0;
width = 21;
},
{
position = 447;
width = 55;
}
);
vhints = (
{
position = 354;
width = 58;
}
);
};
};
width = 401;
}
);
unicode = 0072;
},
{
glyphname = racute;
layers = (
{
layerId = master01;
paths = (
{
closed = 1;
nodes = (
"402 389 LINE",
"345 379 LINE",
"352 412 LINE SMOOTH",
"353 418 OFFCURVE",
"354 423 OFFCURVE",
"354 427 CURVE SMOOTH",
"354 439 OFFCURVE",
"348 447 OFFCURVE",
"326 447 CURVE SMOOTH",
"255 447 OFFCURVE",
"139 348 OFFCURVE",
"119 252 CURVE SMOOTH",
"68 10 LINE",
"10 0 LINE",
"114 492 LINE",
"172 502 LINE",
"145 376 LINE",
"188 430 OFFCURVE",
"262 502 OFFCURVE",
"344 502 CURVE SMOOTH",
"386 502 OFFCURVE",
"412 477 OFFCURVE",
"412 444 CURVE SMOOTH",
"412 440 OFFCURVE",
"412 435 OFFCURVE",
"411 431 CURVE SMOOTH"
);
},
{
closed = 1;
nodes = (
"381 724 LINE",
"424 679 LINE",
"238 567 LINE",
"205 602 LINE"
);
}
);
userData = {
com.fontlab.hintData = {
hhints = (
{
position = 0;
width = 21;
},
{
position = 447;
width = 55;
}
);
vhints = (
{
position = 354;
width = 58;
}
);
};
};
width = 401;
}
);
unicode = 0155;
},
{
glyphname = rcaron;
layers = (
{
layerId = master01;
paths = (
{
closed = 1;
nodes = (
"402 389 LINE",
"345 379 LINE",
"352 412 LINE SMOOTH",
"353 418 OFFCURVE",
"354 423 OFFCURVE",
"354 427 CURVE SMOOTH",
"354 439 OFFCURVE",
"348 447 OFFCURVE",
"326 447 CURVE SMOOTH",
"255 447 OFFCURVE",
"139 348 OFFCURVE",
"119 252 CURVE SMOOTH",
"68 10 LINE",
"10 0 LINE",
"114 492 LINE",
"172 502 LINE",
"145 376 LINE",
"188 430 OFFCURVE",
"262 502 OFFCURVE",
"344 502 CURVE SMOOTH",
"386 502 OFFCURVE",
"412 477 OFFCURVE",
"412 444 CURVE SMOOTH",
"412 440 OFFCURVE",
"412 435 OFFCURVE",
"411 431 CURVE SMOOTH"
);
},
{
closed = 1;
nodes = (
"463 669 LINE",
"286 549 LINE",
"183 671 LINE",
"228 711 LINE",
"305 623 LINE",
"439 712 LINE"
);
}
);
userData = {
com.fontlab.hintData = {
hhints = (
{
position = 0;
width = 21;
},
{
position = 447;
width = 55;
}
);
vhints = (
{
position = 354;
width = 58;
}
);
};
};
width = 402;
}
);
unicode = 0159;
},
{
glyphname = s;
layers = (
{
layerId = master01;
paths = (
{
closed = 1;
nodes = (
"358 505 OFFCURVE",
"438 489 OFFCURVE",
"438 419 CURVE SMOOTH",
"438 407 OFFCURVE",
"435 393 OFFCURVE",
"431 379 CURVE",
"380 369 LINE",
"384 378 OFFCURVE",
"386 390 OFFCURVE",
"386 399 CURVE SMOOTH",
"386 443 OFFCURVE",
"337 458 OFFCURVE",
"296 458 CURVE SMOOTH",
"201 458 OFFCURVE",
"158 413 OFFCURVE",
"158 364 CURVE SMOOTH",
"158 333 OFFCURVE",
"190 311 OFFCURVE",
"254 292 CURVE SMOOTH",
"343 266 OFFCURVE",
"387 226 OFFCURVE",
"387 171 CURVE SMOOTH",
"387 36 OFFCURVE",
"236 0 OFFCURVE",
"182 0 CURVE SMOOTH",
"99 0 OFFCURVE",
"26 44 OFFCURVE",
"20 121 CURVE",
"77 130 LINE",
"82 77 OFFCURVE",
"133 50 OFFCURVE",
"189 50 CURVE SMOOTH",
"255 50 OFFCURVE",
"329 95 OFFCURVE",
"329 159 CURVE SMOOTH",
"329 205 OFFCURVE",
"288 220 OFFCURVE",
"222 243 CURVE SMOOTH",
"162 264 OFFCURVE",
"100 288 OFFCURVE",
"100 355 CURVE SMOOTH",
"100 480 OFFCURVE",
"237 505 OFFCURVE",
"306 505 CURVE SMOOTH"
);
}
);
userData = {
com.fontlab.hintData = {
hhints = (
{
position = 0;
width = 50;
},
{
position = 458;
width = 47;
}
);
vhints = (
{
position = 20;
width = 57;
},
{
position = 100;
width = 58;
},
{
position = 329;
width = 58;
},
{
position = 386;
width = 52;
}
);
};
};
width = 460;
}
);
unicode = 0073;
},
{
glyphname = sacute;
layers = (
{
layerId = master01;
paths = (
{
closed = 1;
nodes = (
"404 724 LINE",
"448 679 LINE",
"262 567 LINE",
"228 602 LINE"
);
},
{
closed = 1;
nodes = (
"358 505 OFFCURVE",
"438 489 OFFCURVE",
"438 419 CURVE SMOOTH",
"438 407 OFFCURVE",
"435 393 OFFCURVE",
"431 379 CURVE",
"380 369 LINE",
"384 378 OFFCURVE",
"386 390 OFFCURVE",
"386 399 CURVE SMOOTH",
"386 443 OFFCURVE",
"337 458 OFFCURVE",
"296 458 CURVE SMOOTH",
"201 458 OFFCURVE",
"158 413 OFFCURVE",
"158 364 CURVE SMOOTH",
"158 333 OFFCURVE",
"190 311 OFFCURVE",
"254 292 CURVE SMOOTH",
"343 266 OFFCURVE",
"387 226 OFFCURVE",
"387 171 CURVE SMOOTH",
"387 36 OFFCURVE",
"236 0 OFFCURVE",
"182 0 CURVE SMOOTH",
"99 0 OFFCURVE",
"26 44 OFFCURVE",
"20 121 CURVE",
"77 130 LINE",
"82 77 OFFCURVE",
"133 50 OFFCURVE",
"189 50 CURVE SMOOTH",
"255 50 OFFCURVE",
"329 95 OFFCURVE",
"329 159 CURVE SMOOTH",
"329 205 OFFCURVE",
"288 220 OFFCURVE",
"222 243 CURVE SMOOTH",
"162 264 OFFCURVE",
"100 288 OFFCURVE",
"100 355 CURVE SMOOTH",
"100 480 OFFCURVE",
"237 505 OFFCURVE",
"306 505 CURVE SMOOTH"
);
}
);
userData = {
com.fontlab.hintData = {
hhints = (
{
position = 0;
width = 50;
},
{
position = 458;
width = 47;
}
);
vhints = (
{
position = 20;
width = 57;
},
{
position = 100;
width = 58;
},
{
position = 329;
width = 58;
},
{
position = 386;
width = 52;
}
);
};
};
width = 460;
}
);
unicode = 015B;
},
{
glyphname = scaron;
layers = (
{
layerId = master01;
paths = (
{
closed = 1;
nodes = (
"478 669 LINE",
"301 549 LINE",
"198 671 LINE",
"243 711 LINE",
"320 623 LINE",
"454 712 LINE"
);
},
{
closed = 1;
nodes = (
"358 505 OFFCURVE",
"438 489 OFFCURVE",
"438 419 CURVE SMOOTH",
"438 407 OFFCURVE",
"435 393 OFFCURVE",
"431 379 CURVE",
"380 369 LINE",
"384 378 OFFCURVE",
"386 390 OFFCURVE",
"386 399 CURVE SMOOTH",
"386 443 OFFCURVE",
"337 458 OFFCURVE",
"296 458 CURVE SMOOTH",
"201 458 OFFCURVE",
"158 413 OFFCURVE",
"158 364 CURVE SMOOTH",
"158 333 OFFCURVE",
"190 311 OFFCURVE",
"254 292 CURVE SMOOTH",
"343 266 OFFCURVE",
"387 226 OFFCURVE",
"387 171 CURVE SMOOTH",
"387 36 OFFCURVE",
"236 0 OFFCURVE",
"182 0 CURVE SMOOTH",
"99 0 OFFCURVE",
"26 44 OFFCURVE",
"20 121 CURVE",
"77 130 LINE",
"82 77 OFFCURVE",
"133 50 OFFCURVE",
"189 50 CURVE SMOOTH",
"255 50 OFFCURVE",
"329 95 OFFCURVE",
"329 159 CURVE SMOOTH",
"329 205 OFFCURVE",
"288 220 OFFCURVE",
"222 243 CURVE SMOOTH",
"162 264 OFFCURVE",
"100 288 OFFCURVE",
"100 355 CURVE SMOOTH",
"100 480 OFFCURVE",
"237 505 OFFCURVE",
"306 505 CURVE SMOOTH"
);
}
);
userData = {
com.fontlab.hintData = {
hhints = (
{
position = 0;
width = 50;
},
{
position = 458;
width = 47;
}
);
vhints = (
{
position = 20;
width = 57;
},
{
position = 100;
width = 58;
},
{
position = 329;
width = 58;
},
{
position = 386;
width = 52;
}
);
};
};
width = 460;
}
);
unicode = 0161;
},
{
glyphname = scedilla;
layers = (
{
layerId = master01;
paths = (
{
closed = 1;
nodes = (
"358 505 OFFCURVE",
"438 489 OFFCURVE",
"438 419 CURVE SMOOTH",
"438 407 OFFCURVE",
"435 393 OFFCURVE",
"431 379 CURVE",
"380 369 LINE",
"384 378 OFFCURVE",
"386 390 OFFCURVE",
"386 399 CURVE SMOOTH",
"386 443 OFFCURVE",
"337 458 OFFCURVE",
"296 458 CURVE SMOOTH",
"201 458 OFFCURVE",
"158 413 OFFCURVE",
"158 364 CURVE SMOOTH",
"158 333 OFFCURVE",
"190 311 OFFCURVE",
"254 292 CURVE SMOOTH",
"343 266 OFFCURVE",
"387 226 OFFCURVE",
"387 171 CURVE SMOOTH",
"387 36 OFFCURVE",
"236 0 OFFCURVE",
"182 0 CURVE SMOOTH",
"175 0 LINE",
"170 -19 LINE",
"174 -19 LINE SMOOTH",
"222 -19 OFFCURVE",
"255 -46 OFFCURVE",
"255 -89 CURVE SMOOTH",
"255 -148 OFFCURVE",
"200 -201 OFFCURVE",
"143 -201 CURVE SMOOTH",
"114 -201 OFFCURVE",
"91 -188 OFFCURVE",
"78 -166 CURVE",
"115 -136 LINE",
"117 -149 OFFCURVE",
"136 -159 OFFCURVE",
"152 -159 CURVE SMOOTH",
"182 -159 OFFCURVE",
"212 -131 OFFCURVE",
"212 -99 CURVE SMOOTH",
"212 -77 OFFCURVE",
"196 -61 OFFCURVE",
"173 -61 CURVE SMOOTH",
"160 -61 OFFCURVE",
"144 -67 OFFCURVE",
"138 -72 CURVE",
"116 -42 LINE",
"141 3 LINE",
"76 15 OFFCURVE",
"25 57 OFFCURVE",
"20 121 CURVE",
"77 130 LINE",
"82 77 OFFCURVE",
"133 50 OFFCURVE",
"189 50 CURVE SMOOTH",
"255 50 OFFCURVE",
"329 95 OFFCURVE",
"329 159 CURVE SMOOTH",
"329 205 OFFCURVE",
"288 220 OFFCURVE",
"222 243 CURVE SMOOTH",
"162 264 OFFCURVE",
"100 288 OFFCURVE",
"100 355 CURVE SMOOTH",
"100 480 OFFCURVE",
"237 505 OFFCURVE",
"306 505 CURVE SMOOTH"
);
}
);
userData = {
com.fontlab.hintData = {
hhints = (
{
position = -201;
width = 42;
},
{
position = -61;
width = 42;
},
{
position = 0;
width = 50;
},
{
position = 458;
width = 47;
}
);
vhints = (
{
position = 20;
width = 57;
},
{
position = 100;
width = 58;
},
{
position = 212;
width = 43;
},
{
position = 329;
width = 58;
},
{
position = 386;
width = 52;
}
);
};
};
width = 460;
}
);
unicode = 015F;
},
{
glyphname = scircumflex;
layers = (
{
layerId = master01;
paths = (
{
closed = 1;
nodes = (
"358 505 OFFCURVE",
"438 489 OFFCURVE",
"438 419 CURVE SMOOTH",
"438 407 OFFCURVE",
"435 393 OFFCURVE",
"431 379 CURVE",
"380 369 LINE",
"384 378 OFFCURVE",
"386 390 OFFCURVE",
"386 399 CURVE SMOOTH",
"386 443 OFFCURVE",
"337 458 OFFCURVE",
"296 458 CURVE SMOOTH",
"201 458 OFFCURVE",
"158 413 OFFCURVE",
"158 364 CURVE SMOOTH",
"158 333 OFFCURVE",
"190 311 OFFCURVE",
"254 292 CURVE SMOOTH",
"343 266 OFFCURVE",
"387 226 OFFCURVE",
"387 171 CURVE SMOOTH",
"387 36 OFFCURVE",
"236 0 OFFCURVE",
"182 0 CURVE SMOOTH",
"99 0 OFFCURVE",
"26 44 OFFCURVE",
"20 121 CURVE",
"77 130 LINE",
"82 77 OFFCURVE",
"133 50 OFFCURVE",
"189 50 CURVE SMOOTH",
"255 50 OFFCURVE",
"329 95 OFFCURVE",
"329 159 CURVE SMOOTH",
"329 205 OFFCURVE",
"288 220 OFFCURVE",
"222 243 CURVE SMOOTH",
"162 264 OFFCURVE",
"100 288 OFFCURVE",
"100 355 CURVE SMOOTH",
"100 480 OFFCURVE",
"237 505 OFFCURVE",
"306 505 CURVE SMOOTH"
);
},
{
closed = 1;
nodes = (
"181 591 LINE",
"358 712 LINE",
"461 590 LINE",
"416 550 LINE",
"339 637 LINE",
"205 549 LINE"
);
}
);
userData = {
com.fontlab.hintData = {
hhints = (
{
position = 0;
width = 50;
},
{
position = 458;
width = 47;
}
);
vhints = (
{
position = 20;
width = 57;
},
{
position = 100;
width = 58;
},
{
position = 329;
width = 58;
},
{
position = 386;
width = 52;
}
);
};
};
width = 460;
}
);
unicode = 015D;
},
{
glyphname = germandbls;
layers = (
{
layerId = master01;
paths = (
{
closed = 1;
nodes = (
"440 339 OFFCURVE",
"478 285 OFFCURVE",
"478 216 CURVE SMOOTH",
"478 92 OFFCURVE",
"357 -24 OFFCURVE",
"234 -24 CURVE SMOOTH",
"201 -24 OFFCURVE",
"172 -16 OFFCURVE",
"130 10 CURVE",
"163 56 LINE",
"199 34 OFFCURVE",
"221 28 OFFCURVE",
"245 28 CURVE SMOOTH",
"333 28 OFFCURVE",
"424 112 OFFCURVE",
"424 205 CURVE SMOOTH",
"424 266 OFFCURVE",
"384 320 OFFCURVE",
"311 320 CURVE SMOOTH",
"303 320 OFFCURVE",
"294 319 OFFCURVE",
"231 310 CURVE",
"259 364 LINE",
"368 379 OFFCURVE",
"403 447 OFFCURVE",
"403 500 CURVE SMOOTH",
"403 550 OFFCURVE",
"367 588 OFFCURVE",
"314 588 CURVE SMOOTH",
"253 588 OFFCURVE",
"193 538 OFFCURVE",
"180 477 CURVE SMOOTH",
"84 26 LINE",
"27 0 LINE",
"128 477 LINE SMOOTH",
"147 567 OFFCURVE",
"236 640 OFFCURVE",
"326 640 CURVE SMOOTH",
"403 640 OFFCURVE",
"457 585 OFFCURVE",
"457 511 CURVE SMOOTH",
"457 454 OFFCURVE",
"426 400 OFFCURVE",
"379 361 CURVE"
);
}
);
userData = {
com.fontlab.hintData = {
hhints = (
{
position = -24;
width = 52;
},
{
position = 0;
width = 21;
},
{
position = 310;
width = 54;
},
{
position = 588;
width = 52;
}
);
vhints = (
{
position = 403;
width = 54;
},
{
position = 424;
width = 54;
}
);
};
};
width = 525;
}
);
unicode = 00DF;
},
{
glyphname = t;
layers = (
{
layerId = master01;
paths = (
{
closed = 1;
nodes = (
"392 446 LINE",
"254 446 LINE",
"162 10 LINE",
"103 0 LINE",
"197 446 LINE",
"59 446 LINE",
"71 502 LINE",
"209 502 LINE",
"243 661 LINE",
"302 671 LINE",
"266 502 LINE",
"404 502 LINE"
);
}
);
userData = {
com.fontlab.hintData = {
hhints = (
{
position = 0;
width = 21;
},
{
position = 446;
width = 56;
}
);
};
};
width = 373;
}
);
unicode = 0074;
},
{
glyphname = tcaron;
layers = (
{
layerId = master01;
paths = (
{
closed = 1;
nodes = (
"502 698 LINE",
"374 532 LINE",
"331 560 LINE",
"405 656 LINE",
"371 678 LINE",
"440 737 LINE"
);
},
{
closed = 1;
nodes = (
"392 446 LINE",
"254 446 LINE",
"162 10 LINE",
"103 0 LINE",
"197 446 LINE",
"59 446 LINE",
"71 502 LINE",
"209 502 LINE",
"243 661 LINE",
"302 671 LINE",
"266 502 LINE",
"404 502 LINE"
);
}
);
userData = {
com.fontlab.hintData = {
hhints = (
{
position = 0;
width = 21;
},
{
position = 446;
width = 56;
}
);
};
};
width = 429;
}
);
unicode = 0165;
},
{
glyphname = u;
layers = (
{
layerId = master01;
paths = (
{
closed = 1;
nodes = (
"114 233 OFFCURVE",
"102 175 OFFCURVE",
"102 130 CURVE SMOOTH",
"102 79 OFFCURVE",
"118 43 OFFCURVE",
"173 43 CURVE SMOOTH",
"242 43 OFFCURVE",
"323 92 OFFCURVE",
"349 116 CURVE SMOOTH",
"359 124 OFFCURVE",
"366 138 OFFCURVE",
"371 159 CURVE SMOOTH",
"448 494 LINE",
"503 504 LINE",
"398 10 LINE",
"334 0 LINE",
"349 74 LINE",
"316 36 OFFCURVE",
"239 -6 OFFCURVE",
"161 -6 CURVE SMOOTH",
"72 -6 OFFCURVE",
"46 46 OFFCURVE",
"46 117 CURVE SMOOTH",
"46 168 OFFCURVE",
"60 230 OFFCURVE",
"72 289 CURVE SMOOTH",
"81 334 OFFCURVE",
"105 426 OFFCURVE",
"132 494 CURVE",
"189 504 LINE",
"182 488 OFFCURVE",
"144 374 OFFCURVE",
"126 289 CURVE SMOOTH"
);
}
);
userData = {
com.fontlab.hintData = {
hhints = (
{
position = -6;
width = 49;
},
{
position = 0;
width = 21;
}
);
vhints = (
{
position = 46;
width = 56;
}
);
};
};
width = 516;
}
);
unicode = 0075;
},
{
glyphname = uacute;
layers = (
{
layerId = master01;
paths = (
{
closed = 1;
nodes = (
"114 233 OFFCURVE",
"102 175 OFFCURVE",
"102 130 CURVE SMOOTH",
"102 79 OFFCURVE",
"118 43 OFFCURVE",
"173 43 CURVE SMOOTH",
"242 43 OFFCURVE",
"323 92 OFFCURVE",
"349 116 CURVE SMOOTH",
"359 124 OFFCURVE",
"366 138 OFFCURVE",
"371 159 CURVE SMOOTH",
"448 494 LINE",
"503 504 LINE",
"398 10 LINE",
"334 0 LINE",
"349 74 LINE",
"316 36 OFFCURVE",
"239 -6 OFFCURVE",
"161 -6 CURVE SMOOTH",
"72 -6 OFFCURVE",
"46 46 OFFCURVE",
"46 117 CURVE SMOOTH",
"46 168 OFFCURVE",
"60 230 OFFCURVE",
"72 289 CURVE SMOOTH",
"81 334 OFFCURVE",
"105 426 OFFCURVE",
"132 494 CURVE",
"189 504 LINE",
"182 488 OFFCURVE",
"144 374 OFFCURVE",
"126 289 CURVE SMOOTH"
);
},
{
closed = 1;
nodes = (
"432 724 LINE",
"475 679 LINE",
"289 567 LINE",
"256 602 LINE"
);
}
);
userData = {
com.fontlab.hintData = {
hhints = (
{
position = -6;
width = 49;
},
{
position = 0;
width = 21;
}
);
vhints = (
{
position = 46;
width = 56;
}
);
};
};
width = 516;
}
);
unicode = 00FA;
},
{
glyphname = ubreve;
layers = (
{
layerId = master01;
paths = (
{
closed = 1;
nodes = (
"114 233 OFFCURVE",
"102 175 OFFCURVE",
"102 130 CURVE SMOOTH",
"102 79 OFFCURVE",
"118 43 OFFCURVE",
"173 43 CURVE SMOOTH",
"242 43 OFFCURVE",
"323 92 OFFCURVE",
"349 116 CURVE SMOOTH",
"359 124 OFFCURVE",
"366 138 OFFCURVE",
"371 159 CURVE SMOOTH",
"448 494 LINE",
"503 504 LINE",
"398 10 LINE",
"334 0 LINE",
"349 74 LINE",
"316 36 OFFCURVE",
"239 -6 OFFCURVE",
"161 -6 CURVE SMOOTH",
"72 -6 OFFCURVE",
"46 46 OFFCURVE",
"46 117 CURVE SMOOTH",
"46 168 OFFCURVE",
"60 230 OFFCURVE",
"72 289 CURVE SMOOTH",
"81 334 OFFCURVE",
"105 426 OFFCURVE",
"132 494 CURVE",
"189 504 LINE",
"182 488 OFFCURVE",
"144 374 OFFCURVE",
"126 289 CURVE SMOOTH"
);
},
{
closed = 1;
nodes = (
"399 605 OFFCURVE",
"434 634 OFFCURVE",
"463 683 CURVE",
"487 652 LINE",
"456 597 OFFCURVE",
"388 559 OFFCURVE",
"325 559 CURVE SMOOTH",
"255 559 OFFCURVE",
"205 595 OFFCURVE",
"192 648 CURVE",
"229 678 LINE",
"250 617 OFFCURVE",
"299 605 OFFCURVE",
"336 605 CURVE SMOOTH"
);
}
);
userData = {
com.fontlab.hintData = {
hhints = (
{
position = -6;
width = 49;
},
{
position = 0;
width = 21;
},
{
position = 559;
width = 46;
},
{
position = 663;
width = 20;
}
);
vhints = (
{
position = 46;
width = 56;
},
{
position = 192;
width = 37;
}
);
};
};
width = 516;
}
);
unicode = 016D;
},
{
glyphname = ucircumflex;
layers = (
{
layerId = master01;
paths = (
{
closed = 1;
nodes = (
"114 233 OFFCURVE",
"102 175 OFFCURVE",
"102 130 CURVE SMOOTH",
"102 79 OFFCURVE",
"118 43 OFFCURVE",
"173 43 CURVE SMOOTH",
"242 43 OFFCURVE",
"323 92 OFFCURVE",
"349 116 CURVE SMOOTH",
"359 124 OFFCURVE",
"366 138 OFFCURVE",
"371 159 CURVE SMOOTH",
"448 494 LINE",
"503 504 LINE",
"398 10 LINE",
"334 0 LINE",
"349 74 LINE",
"316 36 OFFCURVE",
"239 -6 OFFCURVE",
"161 -6 CURVE SMOOTH",
"72 -6 OFFCURVE",
"46 46 OFFCURVE",
"46 117 CURVE SMOOTH",
"46 168 OFFCURVE",
"60 230 OFFCURVE",
"72 289 CURVE SMOOTH",
"81 334 OFFCURVE",
"105 426 OFFCURVE",
"132 494 CURVE",
"189 504 LINE",
"182 488 OFFCURVE",
"144 374 OFFCURVE",
"126 289 CURVE SMOOTH"
);
},
{
closed = 1;
nodes = (
"203 591 LINE",
"380 712 LINE",
"483 590 LINE",
"438 550 LINE",
"361 637 LINE",
"227 549 LINE"
);
}
);
userData = {
com.fontlab.hintData = {
hhints = (
{
position = -6;
width = 49;
},
{
position = 0;
width = 21;
}
);
vhints = (
{
position = 46;
width = 56;
}
);
};
};
width = 516;
}
);
unicode = 00FB;
},
{
glyphname = udieresis;
layers = (
{
layerId = master01;
paths = (
{
closed = 1;
nodes = (
"114 233 OFFCURVE",
"102 175 OFFCURVE",
"102 130 CURVE SMOOTH",
"102 79 OFFCURVE",
"118 43 OFFCURVE",
"173 43 CURVE SMOOTH",
"242 43 OFFCURVE",
"323 92 OFFCURVE",
"349 116 CURVE SMOOTH",
"359 124 OFFCURVE",
"366 138 OFFCURVE",
"371 159 CURVE SMOOTH",
"448 494 LINE",
"503 504 LINE",
"398 10 LINE",
"334 0 LINE",
"349 74 LINE",
"316 36 OFFCURVE",
"239 -6 OFFCURVE",
"161 -6 CURVE SMOOTH",
"72 -6 OFFCURVE",
"46 46 OFFCURVE",
"46 117 CURVE SMOOTH",
"46 168 OFFCURVE",
"60 230 OFFCURVE",
"72 289 CURVE SMOOTH",
"81 334 OFFCURVE",
"105 426 OFFCURVE",
"132 494 CURVE",
"189 504 LINE",
"182 488 OFFCURVE",
"144 374 OFFCURVE",
"126 289 CURVE SMOOTH"
);
},
{
closed = 1;
nodes = (
"293 581 LINE",
"217 571 LINE",
"243 653 LINE",
"318 663 LINE"
);
},
{
closed = 1;
nodes = (
"454 581 LINE",
"378 571 LINE",
"404 653 LINE",
"479 663 LINE"
);
}
);
userData = {
com.fontlab.hintData = {
hhints = (
{
position = -6;
width = 49;
},
{
position = 0;
width = 21;
}
);
vhints = (
{
position = 46;
width = 56;
}
);
};
};
width = 516;
}
);
unicode = 00FC;
},
{
glyphname = ugrave;
layers = (
{
layerId = master01;
paths = (
{
closed = 1;
nodes = (
"370 557 LINE",
"260 697 LINE",
"327 731 LINE",
"422 585 LINE"
);
},
{
closed = 1;
nodes = (
"114 233 OFFCURVE",
"102 175 OFFCURVE",
"102 130 CURVE SMOOTH",
"102 79 OFFCURVE",
"118 43 OFFCURVE",
"173 43 CURVE SMOOTH",
"242 43 OFFCURVE",
"323 92 OFFCURVE",
"349 116 CURVE SMOOTH",
"359 124 OFFCURVE",
"366 138 OFFCURVE",
"371 159 CURVE SMOOTH",
"448 494 LINE",
"503 504 LINE",
"398 10 LINE",
"334 0 LINE",
"349 74 LINE",
"316 36 OFFCURVE",
"239 -6 OFFCURVE",
"161 -6 CURVE SMOOTH",
"72 -6 OFFCURVE",
"46 46 OFFCURVE",
"46 117 CURVE SMOOTH",
"46 168 OFFCURVE",
"60 230 OFFCURVE",
"72 289 CURVE SMOOTH",
"81 334 OFFCURVE",
"105 426 OFFCURVE",
"132 494 CURVE",
"189 504 LINE",
"182 488 OFFCURVE",
"144 374 OFFCURVE",
"126 289 CURVE SMOOTH"
);
}
);
userData = {
com.fontlab.hintData = {
hhints = (
{
position = -6;
width = 49;
},
{
position = 0;
width = 21;
}
);
vhints = (
{
position = 46;
width = 56;
}
);
};
};
width = 516;
}
);
unicode = 00F9;
},
{
glyphname = uhungarumlaut;
layers = (
{
layerId = master01;
paths = (
{
closed = 1;
nodes = (
"114 233 OFFCURVE",
"102 175 OFFCURVE",
"102 130 CURVE SMOOTH",
"102 79 OFFCURVE",
"118 43 OFFCURVE",
"173 43 CURVE SMOOTH",
"242 43 OFFCURVE",
"323 92 OFFCURVE",
"349 116 CURVE SMOOTH",
"359 124 OFFCURVE",
"366 138 OFFCURVE",
"371 159 CURVE SMOOTH",
"448 494 LINE",
"503 504 LINE",
"398 10 LINE",
"334 0 LINE",
"349 74 LINE",
"316 36 OFFCURVE",
"239 -6 OFFCURVE",
"161 -6 CURVE SMOOTH",
"72 -6 OFFCURVE",
"46 46 OFFCURVE",
"46 117 CURVE SMOOTH",
"46 168 OFFCURVE",
"60 230 OFFCURVE",
"72 289 CURVE SMOOTH",
"81 334 OFFCURVE",
"105 426 OFFCURVE",
"132 494 CURVE",
"189 504 LINE",
"182 488 OFFCURVE",
"144 374 OFFCURVE",
"126 289 CURVE SMOOTH"
);
},
{
closed = 1;
nodes = (
"518 724 LINE",
"562 679 LINE",
"376 567 LINE",
"342 602 LINE"
);
},
{
closed = 1;
nodes = (
"358 724 LINE",
"401 679 LINE",
"215 567 LINE",
"182 602 LINE"
);
}
);
userData = {
com.fontlab.hintData = {
hhints = (
{
position = -6;
width = 49;
},
{
position = 0;
width = 21;
}
);
vhints = (
{
position = 46;
width = 56;
}
);
};
};
width = 538;
}
);
unicode = 0171;
},
{
glyphname = uni0163;
layers = (
{
layerId = master01;
paths = (
{
closed = 1;
nodes = (
"392 446 LINE",
"254 446 LINE",
"162 10 LINE",
"103 0 LINE",
"197 446 LINE",
"59 446 LINE",
"71 502 LINE",
"209 502 LINE",
"243 661 LINE",
"302 671 LINE",
"266 502 LINE",
"404 502 LINE"
);
},
{
closed = 1;
nodes = (
"191 -58 LINE",
"63 -224 LINE",
"20 -196 LINE",
"94 -100 LINE",
"60 -78 LINE",
"129 -19 LINE"
);
}
);
userData = {
com.fontlab.hintData = {
hhints = (
{
position = 0;
width = 21;
},
{
position = 446;
width = 56;
}
);
};
};
width = 373;
}
);
unicode = 0163;
},
{
glyphname = uring;
layers = (
{
layerId = master01;
paths = (
{
closed = 1;
nodes = (
"273 563 OFFCURVE",
"240 603 OFFCURVE",
"240 647 CURVE SMOOTH",
"240 719 OFFCURVE",
"322 778 OFFCURVE",
"390 782 CURVE",
"448 782 OFFCURVE",
"496 754 OFFCURVE",
"496 701 CURVE SMOOTH",
"496 619 OFFCURVE",
"406 563 OFFCURVE",
"334 563 CURVE SMOOTH"
);
},
{
closed = 1;
nodes = (
"330 736 OFFCURVE",
"283 688 OFFCURVE",
"283 656 CURVE SMOOTH",
"283 625 OFFCURVE",
"315 610 OFFCURVE",
"346 610 CURVE SMOOTH",
"383 610 OFFCURVE",
"452 635 OFFCURVE",
"452 687 CURVE SMOOTH",
"452 716 OFFCURVE",
"423 736 OFFCURVE",
"389 736 CURVE SMOOTH"
);
},
{
closed = 1;
nodes = (
"113 233 OFFCURVE",
"101 175 OFFCURVE",
"101 130 CURVE SMOOTH",
"101 79 OFFCURVE",
"117 43 OFFCURVE",
"172 43 CURVE SMOOTH",
"241 43 OFFCURVE",
"322 92 OFFCURVE",
"348 116 CURVE SMOOTH",
"358 124 OFFCURVE",
"365 138 OFFCURVE",
"370 159 CURVE SMOOTH",
"447 494 LINE",
"502 504 LINE",
"397 10 LINE",
"333 0 LINE",
"348 74 LINE",
"315 36 OFFCURVE",
"238 -6 OFFCURVE",
"160 -6 CURVE SMOOTH",
"71 -6 OFFCURVE",
"45 46 OFFCURVE",
"45 117 CURVE SMOOTH",
"45 166 OFFCURVE",
"58 225 OFFCURVE",
"70 283 CURVE SMOOTH",
"79 326 OFFCURVE",
"102 423 OFFCURVE",
"131 494 CURVE",
"188 504 LINE",
"181 488 OFFCURVE",
"143 374 OFFCURVE",
"125 289 CURVE SMOOTH"
);
}
);
userData = {
com.fontlab.hintData = {
hhints = (
{
position = -6;
width = 49;
},
{
position = 0;
width = 21;
},
{
position = 563;
width = 47;
},
{
position = 736;
width = 46;
}
);
vhints = (
{
position = 45;
width = 56;
},
{
position = 240;
width = 43;
},
{
position = 452;
width = 44;
}
);
};
};
width = 515;
}
);
unicode = 016F;
},
{
glyphname = v;
layers = (
{
layerId = master01;
paths = (
{
closed = 1;
nodes = (
"202 12 LINE",
"142 0 LINE",
"56 479 LINE",
"114 500 LINE",
"184 77 LINE",
"436 500 LINE",
"484 480 LINE"
);
}
);
userData = {
com.fontlab.hintData = {
hhints = (
{
position = 0;
width = 21;
}
);
};
};
width = 447;
}
);
unicode = 0076;
},
{
glyphname = w;
layers = (
{
layerId = master01;
paths = (
{
closed = 1;
nodes = (
"428 12 LINE",
"368 0 LINE",
"357 388 LINE",
"145 12 LINE",
"83 0 LINE",
"88 485 LINE",
"144 497 LINE",
"138 91 LINE",
"353 485 LINE",
"411 495 LINE",
"417 88 LINE",
"620 485 LINE",
"683 496 LINE"
);
}
);
userData = {
com.fontlab.hintData = {
hhints = (
{
position = 0;
width = 21;
}
);
vhints = (
{
position = 83;
width = 55;
},
{
position = 357;
width = 54;
},
{
position = 368;
width = 49;
}
);
};
};
width = 653;
}
);
unicode = 0077;
},
{
glyphname = x;
layers = (
{
layerId = master01;
paths = (
{
closed = 1;
nodes = (
"-5 2 LINE",
"-37 42 LINE",
"224 260 LINE",
"94 466 LINE",
"144 502 LINE",
"270 296 LINE",
"511 501 LINE",
"543 462 LINE",
"299 257 LINE",
"438 36 LINE",
"388 0 LINE",
"252 222 LINE"
);
}
);
userData = {
com.fontlab.hintData = {
hhints = (
{
position = 0;
width = 21;
},
{
position = 482;
width = 20;
}
);
};
};
width = 510;
}
);
unicode = 0078;
},
{
glyphname = y;
layers = (
{
layerId = master01;
paths = (
{
closed = 1;
nodes = (
"526 476 LINE",
"71 -197 LINE",
"25 -173 LINE",
"183 61 LINE",
"65 474 LINE",
"121 499 LINE",
"227 127 LINE",
"480 500 LINE"
);
}
);
userData = {
com.fontlab.hintData = {
hhints = (
{
position = -197;
width = 21;
}
);
};
};
width = 500;
}
);
unicode = 0079;
},
{
glyphname = yacute;
layers = (
{
layerId = master01;
paths = (
{
closed = 1;
nodes = (
"525 475 LINE",
"70 -198 LINE",
"25 -174 LINE",
"183 60 LINE",
"65 473 LINE",
"120 498 LINE",
"227 126 LINE",
"480 499 LINE"
);
},
{
closed = 1;
nodes = (
"408 724 LINE",
"452 679 LINE",
"266 567 LINE",
"232 602 LINE"
);
}
);
width = 500;
}
);
unicode = 00FD;
},
{
glyphname = ydieresis;
layers = (
{
layerId = master01;
paths = (
{
closed = 1;
nodes = (
"526 476 LINE",
"71 -197 LINE",
"25 -173 LINE",
"183 61 LINE",
"65 474 LINE",
"121 499 LINE",
"227 127 LINE",
"480 500 LINE"
);
},
{
closed = 1;
nodes = (
"277 581 LINE",
"201 571 LINE",
"227 653 LINE",
"302 663 LINE"
);
},
{
closed = 1;
nodes = (
"437 581 LINE",
"361 571 LINE",
"387 653 LINE",
"462 663 LINE"
);
}
);
userData = {
com.fontlab.hintData = {
hhints = (
{
position = -197;
width = 21;
}
);
};
};
width = 500;
}
);
unicode = 00FF;
},
{
glyphname = z;
layers = (
{
layerId = master01;
paths = (
{
closed = 1;
nodes = (
"-3 0 LINE",
"-16 46 LINE",
"387 446 LINE",
"91 446 LINE",
"113 502 LINE",
"452 502 LINE",
"465 457 LINE",
"61 56 LINE",
"372 56 LINE",
"351 0 LINE"
);
}
);
userData = {
com.fontlab.hintData = {
hhints = (
{
position = 0;
width = 56;
},
{
position = 446;
width = 56;
}
);
};
};
width = 453;
}
);
unicode = 007A;
},
{
glyphname = zacute;
layers = (
{
layerId = master01;
paths = (
{
closed = 1;
nodes = (
"-3 0 LINE",
"-16 46 LINE",
"387 446 LINE",
"91 446 LINE",
"113 502 LINE",
"452 502 LINE",
"465 457 LINE",
"61 56 LINE",
"372 56 LINE",
"351 0 LINE"
);
},
{
closed = 1;
nodes = (
"386 724 LINE",
"430 679 LINE",
"243 567 LINE",
"210 602 LINE"
);
}
);
userData = {
com.fontlab.hintData = {
hhints = (
{
position = 0;
width = 56;
},
{
position = 446;
width = 56;
}
);
};
};
width = 453;
}
);
unicode = 017A;
},
{
glyphname = zcaron;
layers = (
{
layerId = master01;
paths = (
{
closed = 1;
nodes = (
"-3 0 LINE",
"-16 46 LINE",
"387 446 LINE",
"91 446 LINE",
"113 502 LINE",
"452 502 LINE",
"465 457 LINE",
"61 56 LINE",
"372 56 LINE",
"351 0 LINE"
);
},
{
closed = 1;
nodes = (
"472 669 LINE",
"296 549 LINE",
"193 671 LINE",
"238 711 LINE",
"315 623 LINE",
"448 712 LINE"
);
}
);
userData = {
com.fontlab.hintData = {
hhints = (
{
position = 0;
width = 56;
},
{
position = 446;
width = 56;
}
);
};
};
width = 453;
}
);
unicode = 017E;
},
{
glyphname = zdotaccent;
layers = (
{
layerId = master01;
paths = (
{
closed = 1;
nodes = (
"-3 0 LINE",
"-16 46 LINE",
"387 446 LINE",
"91 446 LINE",
"113 502 LINE",
"452 502 LINE",
"465 457 LINE",
"61 56 LINE",
"372 56 LINE",
"351 0 LINE"
);
},
{
closed = 1;
nodes = (
"341 581 LINE",
"265 571 LINE",
"291 653 LINE",
"366 663 LINE"
);
}
);
userData = {
com.fontlab.hintData = {
hhints = (
{
position = 0;
width = 56;
},
{
position = 446;
width = 56;
}
);
};
};
width = 453;
}
);
unicode = 017C;
},
{
glyphname = ordfeminine;
layers = (
{
layerId = master01;
paths = (
{
closed = 1;
nodes = (
"270 362 LINE",
"218 352 LINE",
"224 380 LINE",
"193 365 OFFCURVE",
"166 358 OFFCURVE",
"142 358 CURVE SMOOTH",
"82 358 OFFCURVE",
"46 399 OFFCURVE",
"46 459 CURVE SMOOTH",
"46 566 OFFCURVE",
"140 677 OFFCURVE",
"238 677 CURVE SMOOTH",
"262 677 OFFCURVE",
"304 669 OFFCURVE",
"330 649 CURVE"
);
},
{
closed = 1;
nodes = (
"155 628 OFFCURVE",
"97 538 OFFCURVE",
"97 467 CURVE SMOOTH",
"97 430 OFFCURVE",
"117 407 OFFCURVE",
"150 407 CURVE SMOOTH",
"182 407 OFFCURVE",
"220 428 OFFCURVE",
"236 438 CURVE",
"277 618 LINE",
"258 624 OFFCURVE",
"250 628 OFFCURVE",
"228 628 CURVE SMOOTH"
);
}
);
userData = {
com.fontlab.hintData = {
hhints = (
{
position = 358;
width = 49;
},
{
position = 628;
width = 49;
}
);
vhints = (
{
position = 46;
width = 51;
}
);
};
};
width = 250;
}
);
unicode = 00AA;
},
{
glyphname = ordmasculine;
layers = (
{
layerId = master01;
paths = (
{
closed = 1;
nodes = (
"85 356 OFFCURVE",
"48 405 OFFCURVE",
"48 468 CURVE SMOOTH",
"48 579 OFFCURVE",
"148 681 OFFCURVE",
"241 681 CURVE SMOOTH",
"304 681 OFFCURVE",
"345 630 OFFCURVE",
"345 565 CURVE SMOOTH",
"345 458 OFFCURVE",
"243 356 OFFCURVE",
"153 356 CURVE SMOOTH"
);
},
{
closed = 1;
nodes = (
"171 634 OFFCURVE",
"101 558 OFFCURVE",
"101 477 CURVE SMOOTH",
"101 433 OFFCURVE",
"125 402 OFFCURVE",
"163 402 CURVE SMOOTH",
"219 402 OFFCURVE",
"292 476 OFFCURVE",
"292 553 CURVE SMOOTH",
"292 596 OFFCURVE",
"269 634 OFFCURVE",
"228 634 CURVE SMOOTH"
);
}
);
userData = {
com.fontlab.hintData = {
hhints = (
{
position = 356;
width = 46;
},
{
position = 634;
width = 47;
}
);
vhints = (
{
position = 48;
width = 53;
},
{
position = 292;
width = 53;
}
);
};
};
width = 285;
}
);
unicode = 00BA;
},
{
glyphname = zero;
layers = (
{
layerId = master01;
paths = (
{
closed = 1;
nodes = (
"133 -3 OFFCURVE",
"71 97 OFFCURVE",
"71 228 CURVE SMOOTH",
"71 453 OFFCURVE",
"247 686 OFFCURVE",
"409 686 CURVE SMOOTH",
"515 686 OFFCURVE",
"576 587 OFFCURVE",
"576 456 CURVE SMOOTH",
"576 224 OFFCURVE",
"397 -3 OFFCURVE",
"240 -3 CURVE SMOOTH"
);
},
{
closed = 1;
nodes = (
"277 631 OFFCURVE",
"127 441 OFFCURVE",
"127 238 CURVE SMOOTH",
"127 133 OFFCURVE",
"171 52 OFFCURVE",
"252 52 CURVE SMOOTH",
"372 52 OFFCURVE",
"521 242 OFFCURVE",
"521 443 CURVE SMOOTH",
"521 549 OFFCURVE",
"476 631 OFFCURVE",
"398 631 CURVE SMOOTH"
);
}
);
userData = {
com.fontlab.hintData = {
hhints = (
{
position = -3;
width = 55;
},
{
position = 631;
width = 55;
}
);
vhints = (
{
position = 71;
width = 56;
},
{
position = 521;
width = 55;
}
);
};
};
width = 614;
}
);
unicode = 0030;
},
{
glyphname = one;
layers = (
{
layerId = master01;
paths = (
{
closed = 1;
nodes = (
"304 54 LINE",
"283 0 LINE",
"20 0 LINE",
"41 54 LINE",
"152 54 LINE",
"268 559 LINE",
"140 462 LINE",
"112 502 LINE",
"349 681 LINE",
"206 54 LINE"
);
}
);
userData = {
com.fontlab.hintData = {
hhints = (
{
position = 0;
width = 54;
},
{
position = 661;
width = 20;
}
);
vhints = (
{
position = 20;
width = 329;
}
);
};
};
width = 414;
}
);
unicode = 0031;
},
{
glyphname = two;
layers = (
{
layerId = master01;
paths = (
{
closed = 1;
nodes = (
"419 54 LINE",
"398 0 LINE",
"10 0 LINE",
"15 27 LINE SMOOTH",
"43 176 OFFCURVE",
"121 241 OFFCURVE",
"249 317 CURVE SMOOTH",
"394 402 OFFCURVE",
"454 464 OFFCURVE",
"454 533 CURVE SMOOTH",
"454 596 OFFCURVE",
"390 620 OFFCURVE",
"341 620 CURVE SMOOTH",
"243 620 OFFCURVE",
"167 537 OFFCURVE",
"156 524 CURVE",
"128 566 LINE",
"160 599 OFFCURVE",
"244 674 OFFCURVE",
"353 674 CURVE SMOOTH",
"474.843 674 OFFCURVE",
"509.006 604.738 OFFCURVE",
"509.006 542.606 CURVE SMOOTH",
"509.006 426.308 OFFCURVE",
"384.539 339.73 OFFCURVE",
"269 272 CURVE SMOOTH",
"162 209 OFFCURVE",
"106 167 OFFCURVE",
"75 54 CURVE"
);
}
);
userData = {
com.fontlab.hintData = {
hhints = (
{
position = 0;
width = 54;
},
{
position = 620;
width = 54;
}
);
vhints = (
{
position = 454;
width = 55;
}
);
};
};
width = 524;
}
);
unicode = 0032;
},
{
glyphname = three;
layers = (
{
layerId = master01;
paths = (
{
closed = 1;
nodes = (
"439 360 OFFCURVE",
"473 316 OFFCURVE",
"473 250 CURVE SMOOTH",
"473 64 OFFCURVE",
"299 -4 OFFCURVE",
"218 -4 CURVE SMOOTH",
"132 -4 OFFCURVE",
"50 39 OFFCURVE",
"40 132 CURVE",
"96 154 LINE",
"100 88 OFFCURVE",
"156 50 OFFCURVE",
"229 50 CURVE SMOOTH",
"326 50 OFFCURVE",
"416 137 OFFCURVE",
"416 238 CURVE SMOOTH",
"416 324 OFFCURVE",
"336 352 OFFCURVE",
"242 352 CURVE",
"251 406 LINE",
"373 413 OFFCURVE",
"466 474 OFFCURVE",
"466 548 CURVE SMOOTH",
"466 589 OFFCURVE",
"424 629 OFFCURVE",
"346 629 CURVE SMOOTH",
"272 629 OFFCURVE",
"208 580 OFFCURVE",
"193 569 CURVE",
"165 609 LINE",
"190 629 OFFCURVE",
"267 683 OFFCURVE",
"358 683 CURVE SMOOTH",
"457 683 OFFCURVE",
"525 631 OFFCURVE",
"525 560 CURVE SMOOTH",
"525 471 OFFCURVE",
"449 413 OFFCURVE",
"382 385 CURVE"
);
}
);
userData = {
com.fontlab.hintData = {
hhints = (
{
position = -4;
width = 54;
},
{
position = 352;
width = 54;
},
{
position = 629;
width = 54;
}
);
vhints = (
{
position = 40;
width = 56;
},
{
position = 416;
width = 57;
},
{
position = 466;
width = 59;
}
);
};
};
width = 549;
}
);
unicode = 0033;
},
{
glyphname = four;
layers = (
{
layerId = master01;
paths = (
{
closed = 1;
nodes = (
"289 0 LINE",
"324 173 LINE",
"19 173 LINE",
"486 684 LINE",
"387 217 LINE",
"454 217 LINE",
"432 166 LINE",
"376 166 LINE",
"343 10 LINE"
);
},
{
closed = 1;
nodes = (
"335 219 LINE",
"399 521 LINE",
"127 219 LINE"
);
}
);
userData = {
com.fontlab.hintData = {
hhints = (
{
position = 0;
width = 21;
},
{
position = 166;
width = 51;
},
{
position = 173;
width = 46;
}
);
};
};
width = 518;
}
);
unicode = 0034;
},
{
glyphname = five;
layers = (
{
layerId = master01;
paths = (
{
closed = 1;
nodes = (
"155 0 OFFCURVE",
"68 24 OFFCURVE",
"39 131 CURVE",
"92 152 LINE",
"108 85 OFFCURVE",
"167 53 OFFCURVE",
"219 53 CURVE SMOOTH",
"344 53 OFFCURVE",
"451 182 OFFCURVE",
"451 304 CURVE SMOOTH",
"451 387 OFFCURVE",
"393 431 OFFCURVE",
"331 431 CURVE SMOOTH",
"268 431 OFFCURVE",
"201 394 OFFCURVE",
"163 348 CURVE",
"118 364 LINE",
"214 672 LINE",
"563 672 LINE",
"542 619 LINE",
"250 619 LINE",
"193 437 LINE",
"231 462 OFFCURVE",
"280 484 OFFCURVE",
"342 484 CURVE SMOOTH",
"450 484 OFFCURVE",
"503 402 OFFCURVE",
"503 309 CURVE SMOOTH",
"503 141 OFFCURVE",
"356 0 OFFCURVE",
"208 0 CURVE SMOOTH"
);
}
);
userData = {
com.fontlab.hintData = {
hhints = (
{
position = 0;
width = 53;
},
{
position = 431;
width = 53;
},
{
position = 619;
width = 53;
}
);
vhints = (
{
position = 39;
width = 53;
},
{
position = 451;
width = 52;
}
);
};
};
width = 562;
}
);
unicode = 0035;
},
{
glyphname = six;
layers = (
{
layerId = master01;
paths = (
{
closed = 1;
nodes = (
"448 634 LINE",
"346 596 OFFCURVE",
"226 503 OFFCURVE",
"169 400 CURVE",
"210 422 OFFCURVE",
"264 442 OFFCURVE",
"327 442 CURVE SMOOTH",
"345 442 OFFCURVE",
"482 437 OFFCURVE",
"482 296 CURVE SMOOTH",
"482 160 OFFCURVE",
"375 -5 OFFCURVE",
"222 -5 CURVE SMOOTH",
"100 -5 OFFCURVE",
"49 69 OFFCURVE",
"49 169 CURVE SMOOTH",
"49 394 OFFCURVE",
"231 594 OFFCURVE",
"442 684 CURVE"
);
},
{
closed = 1;
nodes = (
"112 273 OFFCURVE",
"102 212 OFFCURVE",
"102 175 CURVE SMOOTH",
"102 72 OFFCURVE",
"170 48 OFFCURVE",
"234 48 CURVE SMOOTH",
"347 48 OFFCURVE",
"429 179 OFFCURVE",
"429 284 CURVE SMOOTH",
"429 380 OFFCURVE",
"345 389 OFFCURVE",
"316 389 CURVE SMOOTH",
"223 389 OFFCURVE",
"153 337 OFFCURVE",
"130 318 CURVE"
);
}
);
userData = {
com.fontlab.hintData = {
hhints = (
{
position = -5;
width = 53;
},
{
position = 389;
width = 53;
}
);
vhints = (
{
position = 49;
width = 53;
},
{
position = 429;
width = 53;
}
);
};
};
width = 546;
}
);
unicode = 0036;
},
{
glyphname = seven;
layers = (
{
layerId = master01;
paths = (
{
closed = 1;
nodes = (
"57 25 LINE",
"486 621 LINE",
"150 621 LINE",
"152 675 LINE",
"584 675 LINE",
"99 0 LINE"
);
}
);
userData = {
com.fontlab.hintData = {
hhints = (
{
position = 0;
width = 21;
},
{
position = 621;
width = 54;
}
);
};
};
width = 501;
}
);
unicode = 0037;
},
{
glyphname = eight;
layers = (
{
layerId = master01;
paths = (
{
closed = 1;
nodes = (
"111 -3 OFFCURVE",
"45 55 OFFCURVE",
"45 140 CURVE SMOOTH",
"45 268 OFFCURVE",
"154 335 OFFCURVE",
"228 368 CURVE",
"185 389 OFFCURVE",
"148 422 OFFCURVE",
"148 478 CURVE SMOOTH",
"148 608 OFFCURVE",
"267 686 OFFCURVE",
"373 686 CURVE SMOOTH",
"463 686 OFFCURVE",
"521 636 OFFCURVE",
"521 561 CURVE SMOOTH",
"521 458 OFFCURVE",
"440 404 OFFCURVE",
"376 375 CURVE",
"435 342 OFFCURVE",
"467 290 OFFCURVE",
"467 228 CURVE SMOOTH",
"467 99 OFFCURVE",
"346 -3 OFFCURVE",
"216 -3 CURVE SMOOTH"
);
},
{
closed = 1;
nodes = (
"224 315 OFFCURVE",
"99 264 OFFCURVE",
"99 151 CURVE SMOOTH",
"99 92 OFFCURVE",
"153 52 OFFCURVE",
"228 52 CURVE SMOOTH",
"302 52 OFFCURVE",
"411 103 OFFCURVE",
"411 215 CURVE SMOOTH",
"411 282 OFFCURVE",
"358 324 OFFCURVE",
"299 343 CURVE"
);
},
{
closed = 1;
nodes = (
"394 437 OFFCURVE",
"466 470 OFFCURVE",
"466 551 CURVE SMOOTH",
"466 601 OFFCURVE",
"421 630 OFFCURVE",
"361 630 CURVE SMOOTH",
"275 630 OFFCURVE",
"204 565 OFFCURVE",
"204 492 CURVE SMOOTH",
"204 450 OFFCURVE",
"236 422 OFFCURVE",
"308 401 CURVE"
);
}
);
userData = {
com.fontlab.hintData = {
hhints = (
{
position = -3;
width = 55;
},
{
position = 630;
width = 56;
}
);
vhints = (
{
position = 45;
width = 54;
},
{
position = 148;
width = 56;
},
{
position = 411;
width = 56;
},
{
position = 466;
width = 55;
}
);
};
};
width = 547;
}
);
unicode = 0038;
},
{
glyphname = nine;
layers = (
{
layerId = master01;
paths = (
{
closed = 1;
nodes = (
"126 47 LINE",
"239 89 OFFCURVE",
"344 178 OFFCURVE",
"405 281 CURVE",
"365 259 OFFCURVE",
"310 239 OFFCURVE",
"246 239 CURVE SMOOTH",
"229 239 OFFCURVE",
"92 244 OFFCURVE",
"92 384 CURVE SMOOTH",
"92 563 OFFCURVE",
"238 686 OFFCURVE",
"354 686 CURVE SMOOTH",
"475 686 OFFCURVE",
"525 613 OFFCURVE",
"525 512 CURVE SMOOTH",
"525 288 OFFCURVE",
"345 80 OFFCURVE",
"133 -3 CURVE"
);
},
{
closed = 1;
nodes = (
"461 409 OFFCURVE",
"473 467 OFFCURVE",
"473 505 CURVE SMOOTH",
"473 609 OFFCURVE",
"404 633 OFFCURVE",
"340 633 CURVE SMOOTH",
"227 633 OFFCURVE",
"146 502 OFFCURVE",
"146 396 CURVE SMOOTH",
"146 300 OFFCURVE",
"230 292 OFFCURVE",
"258 292 CURVE SMOOTH",
"351 292 OFFCURVE",
"422 344 OFFCURVE",
"445 363 CURVE"
);
}
);
userData = {
com.fontlab.hintData = {
hhints = (
{
position = -3;
width = 21;
},
{
position = 239;
width = 53;
},
{
position = 633;
width = 53;
}
);
vhints = (
{
position = 92;
width = 54;
},
{
position = 473;
width = 52;
}
);
};
};
width = 546;
}
);
unicode = 0039;
},
{
glyphname = onesuperior;
layers = (
{
layerId = master01;
paths = (
{
closed = 1;
nodes = (
"69 500 LINE",
"129 500 LINE",
"186 752 LINE",
"124 705 LINE",
"102 739 LINE",
"255 856 LINE",
"175 500 LINE",
"230 500 LINE",
"212 454 LINE",
"50 454 LINE"
);
}
);
userData = {
com.fontlab.hintData = {
hhints = (
{
position = 454;
width = 46;
}
);
vhints = (
{
position = 50;
width = 205;
}
);
};
};
width = 179;
}
);
unicode = 00B9;
},
{
glyphname = twosuperior;
layers = (
{
layerId = master01;
paths = (
{
closed = 1;
nodes = (
"105 754 LINE",
"135 789 OFFCURVE",
"188 821 OFFCURVE",
"239 821 CURVE SMOOTH",
"310 821 OFFCURVE",
"330 779 OFFCURVE",
"330 744 CURVE SMOOTH",
"330 677 OFFCURVE",
"254 622 OFFCURVE",
"194 588 CURVE SMOOTH",
"140 558 OFFCURVE",
"113 533 OFFCURVE",
"96 484 CURVE",
"284 484 LINE",
"267 439 LINE",
"41 439 LINE",
"45 461 LINE SMOOTH",
"60 544 OFFCURVE",
"102 581 OFFCURVE",
"177 625 CURVE SMOOTH",
"252 668 OFFCURVE",
"284 700 OFFCURVE",
"284 733 CURVE SMOOTH",
"284 760 OFFCURVE",
"258 775 OFFCURVE",
"229 775 CURVE SMOOTH",
"200 775 OFFCURVE",
"163 760 OFFCURVE",
"129 718 CURVE"
);
}
);
userData = {
com.fontlab.hintData = {
hhints = (
{
position = 439;
width = 45;
},
{
position = 775;
width = 46;
}
);
vhints = (
{
position = 284;
width = 46;
}
);
};
};
width = 237;
}
);
unicode = 00B2;
},
{
glyphname = threesuperior;
layers = (
{
layerId = master01;
paths = (
{
closed = 1;
nodes = (
"119 771 LINE",
"143 791 OFFCURVE",
"184 818 OFFCURVE",
"234 818 CURVE SMOOTH",
"291 818 OFFCURVE",
"329 787 OFFCURVE",
"329 746 CURVE SMOOTH",
"329 708 OFFCURVE",
"302 674 OFFCURVE",
"264 653 CURVE",
"288 635 OFFCURVE",
"302 613 OFFCURVE",
"302 582 CURVE SMOOTH",
"302 477 OFFCURVE",
"202 438 OFFCURVE",
"157 438 CURVE SMOOTH",
"115 438 OFFCURVE",
"60 456 OFFCURVE",
"56 523 CURVE",
"102 541 LINE",
"102 504 OFFCURVE",
"123 483 OFFCURVE",
"166 483 CURVE SMOOTH",
"184 483 OFFCURVE",
"256 498 OFFCURVE",
"256 572 CURVE SMOOTH",
"256 604 OFFCURVE",
"231 627 OFFCURVE",
"172 627 CURVE SMOOTH",
"163 627 LINE",
"169 671 LINE",
"201 671 OFFCURVE",
"282 685 OFFCURVE",
"282 737 CURVE SMOOTH",
"282 759 OFFCURVE",
"255 773 OFFCURVE",
"225 773 CURVE SMOOTH",
"202 773 OFFCURVE",
"173 763 OFFCURVE",
"143 738 CURVE"
);
}
);
userData = {
com.fontlab.hintData = {
hhints = (
{
position = 438;
width = 45;
},
{
position = 627;
width = 44;
},
{
position = 773;
width = 45;
}
);
vhints = (
{
position = 56;
width = 46;
},
{
position = 256;
width = 46;
},
{
position = 282;
width = 47;
}
);
};
};
width = 236;
}
);
unicode = 00B3;
},
{
glyphname = period;
layers = (
{
layerId = master01;
paths = (
{
closed = 1;
nodes = (
"90 10 LINE",
"14 0 LINE",
"40 82 LINE",
"115 92 LINE"
);
}
);
userData = {
com.fontlab.hintData = {
hhints = (
{
position = 0;
width = 92;
}
);
vhints = (
{
position = 14;
width = 101;
}
);
};
};
width = 222;
}
);
unicode = 002E;
},
{
glyphname = comma;
layers = (
{
layerId = master01;
paths = (
{
closed = 1;
nodes = (
"186 42 LINE",
"57 -124 LINE",
"14 -96 LINE",
"89 0 LINE",
"54 22 LINE",
"125 81 LINE"
);
}
);
userData = {
com.fontlab.hintData = {
hhints = (
{
position = -124;
width = 205;
}
);
vhints = (
{
position = 14;
width = 172;
}
);
};
};
width = 317;
}
);
unicode = 002C;
},
{
glyphname = colon;
layers = (
{
layerId = master01;
paths = (
{
closed = 1;
nodes = (
"192 363 LINE",
"116 353 LINE",
"142 435 LINE",
"218 445 LINE"
);
},
{
closed = 1;
nodes = (
"90 10 LINE",
"14 0 LINE",
"40 82 LINE",
"115 92 LINE"
);
}
);
userData = {
com.fontlab.hintData = {
hhints = (
{
position = 0;
width = 21;
}
);
vhints = (
{
position = 14;
width = 204;
}
);
};
};
width = 250;
}
);
unicode = 003A;
},
{
glyphname = semicolon;
layers = (
{
layerId = master01;
paths = (
{
closed = 1;
nodes = (
"261 365 LINE",
"185 355 LINE",
"211 437 LINE",
"288 447 LINE"
);
},
{
closed = 1;
nodes = (
"186 41 LINE",
"57 -124 LINE",
"14 -96 LINE",
"89 0 LINE",
"54 22 LINE",
"124 80 LINE"
);
}
);
userData = {
com.fontlab.hintData = {
vhints = (
{
position = 14;
width = 274;
}
);
};
};
width = 332;
}
);
unicode = 003B;
},
{
glyphname = ellipsis;
layers = (
{
layerId = master01;
paths = (
{
closed = 1;
nodes = (
"90 10 LINE",
"14 0 LINE",
"40 82 LINE",
"115 92 LINE"
);
},
{
closed = 1;
nodes = (
"602 10 LINE",
"526 0 LINE",
"552 82 LINE",
"627 92 LINE"
);
},
{
closed = 1;
nodes = (
"346 10 LINE",
"270 0 LINE",
"296 82 LINE",
"371 92 LINE"
);
}
);
userData = {
com.fontlab.hintData = {
hhints = (
{
position = 0;
width = 92;
}
);
};
};
width = 734;
}
);
unicode = 2026;
},
{
glyphname = exclam;
layers = (
{
layerId = master01;
paths = (
{
closed = 1;
nodes = (
"37 148 LINE",
"150 682 LINE",
"207 692 LINE",
"93 159 LINE"
);
},
{
closed = 1;
nodes = (
"57 10 LINE",
"-1 0 LINE",
"23 82 LINE",
"81 92 LINE"
);
}
);
userData = {
com.fontlab.hintData = {
hhints = (
{
position = 0;
width = 21;
}
);
vhints = (
{
position = -1;
width = 208;
}
);
};
};
width = 185;
}
);
unicode = 0021;
},
{
glyphname = exclamdown;
layers = (
{
layerId = master01;
paths = (
{
closed = 1;
nodes = (
"129 352 LINE",
"16 -182 LINE",
"-40 -192 LINE",
"73 341 LINE"
);
},
{
closed = 1;
nodes = (
"110 490 LINE",
"168 500 LINE",
"143 418 LINE",
"85 408 LINE"
);
}
);
userData = {
com.fontlab.hintData = {
vhints = (
{
position = -40;
width = 208;
}
);
};
};
width = 185;
}
);
unicode = 00A1;
},
{
glyphname = question;
layers = (
{
layerId = master01;
paths = (
{
closed = 1;
nodes = (
"464 713 OFFCURVE",
"532 651 OFFCURVE",
"532 555 CURVE SMOOTH",
"532 416 OFFCURVE",
"414 339 OFFCURVE",
"347 289 CURVE SMOOTH",
"171 157 LINE",
"154 205 LINE",
"323 332 LINE SMOOTH",
"387 380 OFFCURVE",
"478 438 OFFCURVE",
"478 544 CURVE SMOOTH",
"478 604 OFFCURVE",
"442 659 OFFCURVE",
"339 659 CURVE SMOOTH",
"244 659 OFFCURVE",
"171 572 OFFCURVE",
"163 561 CURVE",
"132 600 LINE",
"161 633 OFFCURVE",
"243 713 OFFCURVE",
"350 713 CURVE SMOOTH"
);
},
{
closed = 1;
nodes = (
"153 10 LINE",
"95 0 LINE",
"119 82 LINE",
"177 92 LINE"
);
}
);
userData = {
com.fontlab.hintData = {
hhints = (
{
position = 0;
width = 21;
},
{
position = 659;
width = 54;
}
);
vhints = (
{
position = 478;
width = 54;
}
);
};
};
width = 542;
}
);
unicode = 003F;
},
{
glyphname = questiondown;
layers = (
{
layerId = master01;
paths = (
{
closed = 1;
nodes = (
"363 703 LINE",
"421 713 LINE",
"397 631 LINE",
"338 621 LINE"
);
},
{
closed = 1;
nodes = (
"52 0 OFFCURVE",
"-17 62 OFFCURVE",
"-17 158 CURVE SMOOTH",
"-17 297 OFFCURVE",
"102 373 OFFCURVE",
"169 424 CURVE SMOOTH",
"345 556 LINE",
"361 508 LINE",
"192 381 LINE SMOOTH",
"129 334 OFFCURVE",
"37 275 OFFCURVE",
"37 170 CURVE SMOOTH",
"37 109 OFFCURVE",
"73 54 OFFCURVE",
"177 54 CURVE SMOOTH",
"272 54 OFFCURVE",
"344 141 OFFCURVE",
"353 152 CURVE",
"384 113 LINE",
"355 80 OFFCURVE",
"273 0 OFFCURVE",
"166 0 CURVE SMOOTH"
);
}
);
userData = {
com.fontlab.hintData = {
hhints = (
{
position = 0;
width = 54;
}
);
vhints = (
{
position = -17;
width = 54;
}
);
};
};
width = 501;
}
);
unicode = 00BF;
},
{
glyphname = periodcentered;
layers = (
{
layerId = master01;
paths = (
{
closed = 1;
nodes = (
"274 217 LINE",
"197 207 LINE",
"224 289 LINE",
"299 299 LINE"
);
}
);
userData = {
com.fontlab.hintData = {
hhints = (
{
position = 207;
width = 92;
}
);
vhints = (
{
position = 197;
width = 102;
}
);
};
};
width = 500;
}
);
unicode = 00B7;
},
{
glyphname = bullet;
layers = (
{
layerId = master01;
paths = (
{
closed = 1;
nodes = (
"266 204 OFFCURVE",
"218 164 OFFCURVE",
"169 164 CURVE SMOOTH",
"126 164 OFFCURVE",
"97 194 OFFCURVE",
"97 235 CURVE SMOOTH",
"97 292 OFFCURVE",
"153 342 OFFCURVE",
"207 342 CURVE SMOOTH",
"251.618 342 OFFCURVE",
"277.125 308.555 OFFCURVE",
"277.125 267.957 CURVE SMOOTH",
"277.125 263.06 OFFCURVE",
"276.753 258.059 OFFCURVE",
"276 253 CURVE"
);
}
);
userData = {
com.fontlab.hintData = {
hhints = (
{
position = 164;
width = 178;
}
);
vhints = (
{
position = 97;
width = 180;
}
);
};
};
width = 378;
}
);
unicode = 2022;
},
{
glyphname = asterisk;
layers = (
{
layerId = master01;
paths = (
{
closed = 1;
nodes = (
"415 594 LINE",
"351 565 LINE SMOOTH",
"334 557 OFFCURVE",
"304 551 OFFCURVE",
"301 551 CURVE",
"301 550 OFFCURVE",
"320 535 OFFCURVE",
"330 521 CURVE SMOOTH",
"371 462 LINE",
"323 426 LINE",
"282 487 LINE SMOOTH",
"274 499 OFFCURVE",
"264 527 OFFCURVE",
"264 527 CURVE",
"264 527 OFFCURVE",
"242 499 OFFCURVE",
"228 486 CURVE SMOOTH",
"161 426 LINE",
"129 462 LINE",
"193 519 LINE SMOOTH",
"207 532 OFFCURVE",
"233 549 OFFCURVE",
"233 549 CURVE",
"233 549 OFFCURVE",
"205 558 OFFCURVE",
"190 567 CURVE SMOOTH",
"142 594 LINE",
"176 642 LINE",
"222 616 LINE SMOOTH",
"237 607 OFFCURVE",
"255 591 OFFCURVE",
"255 590 CURVE",
"254 590 OFFCURVE",
"256 621 OFFCURVE",
"259 637 CURVE SMOOTH",
"270 690 LINE",
"324 690 LINE",
"313 636 LINE SMOOTH",
"309 618 OFFCURVE",
"298 589 OFFCURVE",
"298 589 CURVE",
"298 589 OFFCURVE",
"323 607 OFFCURVE",
"340 615 CURVE SMOOTH",
"400 642 LINE"
);
}
);
userData = {
com.fontlab.hintData = {
hhints = (
{
position = 426;
width = 264;
}
);
vhints = (
{
position = 129;
width = 286;
}
);
};
};
width = 417;
}
);
unicode = 002A;
},
{
glyphname = numbersign;
layers = (
{
layerId = master01;
paths = (
{
closed = 1;
nodes = (
"570 431 LINE",
"488 266 LINE",
"646 266 LINE",
"619 212 LINE",
"461 212 LINE",
"356 4 LINE",
"299 0 LINE",
"405 212 LINE",
"251 212 LINE",
"146 4 LINE",
"89 0 LINE",
"195 212 LINE",
"51 212 LINE",
"77 266 LINE",
"222 266 LINE",
"304 431 LINE",
"136 431 LINE",
"163 484 LINE",
"331 484 LINE",
"434 689 LINE",
"492 693 LINE",
"387 484 LINE",
"541 484 LINE",
"643 688 LINE",
"701 692 LINE",
"597 484 LINE",
"736 484 LINE",
"710 431 LINE"
);
},
{
closed = 1;
nodes = (
"514 431 LINE",
"360 431 LINE",
"278 266 LINE",
"432 266 LINE"
);
}
);
userData = {
com.fontlab.hintData = {
hhints = (
{
position = 0;
width = 21;
},
{
position = 212;
width = 54;
},
{
position = 431;
width = 53;
}
);
};
};
width = 751;
}
);
unicode = 0023;
},
{
glyphname = slash;
layers = (
{
layerId = master01;
paths = (
{
closed = 1;
nodes = (
"560 692 LINE",
"33 0 LINE",
"-28 0 LINE",
"499 692 LINE"
);
}
);
userData = {
com.fontlab.hintData = {
hhints = (
{
position = 0;
width = 21;
}
);
};
};
width = 492;
}
);
unicode = 002F;
},
{
glyphname = backslash;
layers = (
{
layerId = master01;
paths = (
{
closed = 1;
nodes = (
"413 0 LINE",
"351 0 LINE",
"118 693 LINE",
"179 693 LINE"
);
}
);
userData = {
com.fontlab.hintData = {
hhints = (
{
position = 0;
width = 21;
}
);
vhints = (
{
position = 118;
width = 295;
}
);
};
};
width = 492;
}
);
unicode = 005C;
},
{
glyphname = parenleft;
layers = (
{
layerId = master01;
paths = (
{
closed = 1;
nodes = (
"177 -118 LINE",
"105 -31 OFFCURVE",
"71 98 OFFCURVE",
"71 222 CURVE SMOOTH",
"71 434 OFFCURVE",
"194 667 OFFCURVE",
"397 810 CURVE",
"421 768 LINE",
"254 646 OFFCURVE",
"126 443 OFFCURVE",
"126 234 CURVE SMOOTH",
"126 113 OFFCURVE",
"162 -6 OFFCURVE",
"223 -79 CURVE"
);
}
);
userData = {
com.fontlab.hintData = {
vhints = (
{
position = 71;
width = 55;
}
);
};
};
width = 377;
}
);
unicode = 0028;
},
{
glyphname = parenright;
layers = (
{
layerId = master01;
paths = (
{
closed = 1;
nodes = (
"215 810 LINE",
"311 710 OFFCURVE",
"342 583 OFFCURVE",
"342 470 CURVE SMOOTH",
"342 268 OFFCURVE",
"228 44 OFFCURVE",
"35 -118 CURVE",
"11 -76 LINE",
"180 71 OFFCURVE",
"287 275 OFFCURVE",
"287 461 CURVE SMOOTH",
"287 664 OFFCURVE",
"170 766 OFFCURVE",
"169 771 CURVE"
);
}
);
userData = {
com.fontlab.hintData = {
vhints = (
{
position = 287;
width = 55;
}
);
};
};
width = 377;
}
);
unicode = 0029;
},
{
glyphname = braceleft;
layers = (
{
layerId = master01;
paths = (
{
closed = 1;
nodes = (
"96 375 LINE",
"141 392 OFFCURVE",
"174 425 OFFCURVE",
"184 473 CURVE SMOOTH",
"224 662 LINE SMOOTH",
"248 776 OFFCURVE",
"368 809 OFFCURVE",
"429 810 CURVE",
"415 756 LINE",
"350 753 OFFCURVE",
"290 719 OFFCURVE",
"278 662 CURVE SMOOTH",
"238 474 LINE SMOOTH",
"231 442 OFFCURVE",
"212 390 OFFCURVE",
"153 350 CURVE",
"175 330 OFFCURVE",
"190 301 OFFCURVE",
"190 262 CURVE SMOOTH",
"190 250 OFFCURVE",
"189 239 OFFCURVE",
"186 226 CURVE SMOOTH",
"142 23 LINE SMOOTH",
"141 16 OFFCURVE",
"140 10 OFFCURVE",
"140 4 CURVE SMOOTH",
"140 -38 OFFCURVE",
"174 -65 OFFCURVE",
"242 -71 CURVE",
"229 -125 LINE",
"175 -123 OFFCURVE",
"84 -96 OFFCURVE",
"84 -9 CURVE SMOOTH",
"84 1 OFFCURVE",
"85 12 OFFCURVE",
"88 23 CURVE",
"133 234 LINE SMOOTH",
"134 240 OFFCURVE",
"135 247 OFFCURVE",
"135 253 CURVE SMOOTH",
"135 286 OFFCURVE",
"115 313 OFFCURVE",
"86 325 CURVE"
);
}
);
userData = {
com.fontlab.hintData = {
hhints = (
{
position = -125;
width = 54;
},
{
position = 756;
width = 54;
}
);
vhints = (
{
position = 84;
width = 56;
},
{
position = 135;
width = 55;
}
);
};
};
width = 374;
}
);
unicode = 007B;
},
{
glyphname = braceright;
layers = (
{
layerId = master01;
paths = (
{
closed = 1;
nodes = (
"261 293 OFFCURVE",
"228 260 OFFCURVE",
"218 212 CURVE SMOOTH",
"177 23 LINE SMOOTH",
"152 -91 OFFCURVE",
"33 -124 OFFCURVE",
"-27 -125 CURVE",
"-14 -71 LINE",
"52 -68 OFFCURVE",
"111 -34 OFFCURVE",
"123 23 CURVE SMOOTH",
"163 211 LINE SMOOTH",
"170 243 OFFCURVE",
"189 295 OFFCURVE",
"249 335 CURVE",
"227 354 OFFCURVE",
"212 384 OFFCURVE",
"212 423 CURVE SMOOTH",
"212 434 OFFCURVE",
"213 446 OFFCURVE",
"216 459 CURVE SMOOTH",
"259 662 LINE SMOOTH",
"260 668 OFFCURVE",
"261 675 OFFCURVE",
"261 681 CURVE SMOOTH",
"261 722 OFFCURVE",
"228 750 OFFCURVE",
"159 756 CURVE",
"173 810 LINE",
"226 808 OFFCURVE",
"316 781 OFFCURVE",
"316 693 CURVE SMOOTH",
"316 684 OFFCURVE",
"315 673 OFFCURVE",
"313 662 CURVE SMOOTH",
"268 451 LINE SMOOTH",
"267 445 OFFCURVE",
"266 439 OFFCURVE",
"266 434 CURVE SMOOTH",
"266 400 OFFCURVE",
"286 372 OFFCURVE",
"316 360 CURVE",
"305 310 LINE"
);
}
);
userData = {
com.fontlab.hintData = {
hhints = (
{
position = -125;
width = 54;
},
{
position = 756;
width = 54;
}
);
vhints = (
{
position = 212;
width = 54;
},
{
position = 261;
width = 55;
}
);
};
};
width = 374;
}
);
unicode = 007D;
},
{
glyphname = bracketleft;
layers = (
{
layerId = master01;
paths = (
{
closed = 1;
nodes = (
"-16 -124 LINE",
"182 805 LINE",
"375 805 LINE",
"353 751 LINE",
"224 751 LINE",
"50 -70 LINE",
"174 -70 LINE",
"152 -124 LINE"
);
}
);
userData = {
com.fontlab.hintData = {
hhints = (
{
position = -124;
width = 54;
},
{
position = 751;
width = 54;
}
);
};
};
width = 315;
}
);
unicode = 005B;
},
{
glyphname = bracketright;
layers = (
{
layerId = master01;
paths = (
{
closed = 1;
nodes = (
"370 805 LINE",
"172 -124 LINE",
"-21 -124 LINE",
"1 -70 LINE",
"130 -70 LINE",
"304 751 LINE",
"180 751 LINE",
"203 805 LINE"
);
}
);
userData = {
com.fontlab.hintData = {
hhints = (
{
position = -124;
width = 54;
},
{
position = 751;
width = 54;
}
);
};
};
width = 315;
}
);
unicode = 005D;
},
{
glyphname = hyphen;
layers = (
{
layerId = master01;
paths = (
{
closed = 1;
nodes = (
"63 223 LINE",
"84 277 LINE",
"376 277 LINE",
"355 223 LINE"
);
}
);
userData = {
com.fontlab.hintData = {
hhints = (
{
position = 223;
width = 54;
}
);
vhints = (
{
position = 63;
width = 313;
}
);
};
};
width = 442;
}
);
unicode = 002D;
},
{
glyphname = uni00AD;
layers = (
{
layerId = master01;
paths = (
{
closed = 1;
nodes = (
"356 227 LINE",
"64 227 LINE",
"85 281 LINE",
"377 281 LINE"
);
}
);
userData = {
com.fontlab.hintData = {
hhints = (
{
position = 227;
width = 54;
}
);
vhints = (
{
position = 64;
width = 313;
}
);
};
};
width = 442;
}
);
unicode = 00AD;
},
{
glyphname = endash;
layers = (
{
layerId = master01;
paths = (
{
closed = 1;
nodes = (
"63 222 LINE",
"84 276 LINE",
"530 276 LINE",
"508 222 LINE"
);
}
);
userData = {
com.fontlab.hintData = {
hhints = (
{
position = 222;
width = 54;
}
);
};
};
width = 596;
}
);
unicode = 2013;
},
{
glyphname = emdash;
layers = (
{
layerId = master01;
paths = (
{
closed = 1;
nodes = (
"63 222 LINE",
"85 278 LINE",
"812 278 LINE",
"790 222 LINE"
);
}
);
userData = {
com.fontlab.hintData = {
hhints = (
{
position = 222;
width = 56;
}
);
};
};
width = 877;
}
);
unicode = 2014;
},
{
glyphname = underscore;
layers = (
{
layerId = master01;
paths = (
{
closed = 1;
nodes = (
"-78 -54 LINE",
"-57 0 LINE",
"433 0 LINE",
"411 -54 LINE"
);
}
);
userData = {
com.fontlab.hintData = {
hhints = (
{
position = -54;
width = 54;
}
);
};
};
width = 476;
}
);
unicode = 005F;
},
{
glyphname = quotesinglbase;
layers = (
{
layerId = master01;
paths = (
{
closed = 1;
nodes = (
"185 40 LINE",
"57 -126 LINE",
"14 -98 LINE",
"88 -2 LINE",
"54 20 LINE",
"124 79 LINE"
);
}
);
userData = {
com.fontlab.hintData = {
hhints = (
{
position = -126;
width = 205;
}
);
vhints = (
{
position = 14;
width = 171;
}
);
};
};
width = 316;
}
);
unicode = 201A;
},
{
glyphname = quotedblbase;
layers = (
{
layerId = master01;
paths = (
{
closed = 1;
nodes = (
"185 40 LINE",
"57 -126 LINE",
"14 -98 LINE",
"88 -2 LINE",
"54 20 LINE",
"124 79 LINE"
);
},
{
closed = 1;
nodes = (
"351 40 LINE",
"223 -126 LINE",
"180 -98 LINE",
"254 -2 LINE",
"220 20 LINE",
"290 79 LINE"
);
}
);
userData = {
com.fontlab.hintData = {
hhints = (
{
position = -126;
width = 205;
}
);
};
};
width = 482;
}
);
unicode = 201E;
},
{
glyphname = quotedblleft;
layers = (
{
layerId = master01;
paths = (
{
closed = 1;
nodes = (
"254 583 LINE",
"383 749 LINE",
"426 721 LINE",
"351 625 LINE",
"386 603 LINE",
"316 544 LINE"
);
},
{
closed = 1;
nodes = (
"88 583 LINE",
"217 749 LINE",
"260 721 LINE",
"185 625 LINE",
"220 603 LINE",
"150 544 LINE"
);
}
);
userData = {
com.fontlab.hintData = {
hhints = (
{
position = 544;
width = 205;
}
);
};
};
width = 348;
}
);
unicode = 201C;
},
{
glyphname = quotedblright;
layers = (
{
layerId = master01;
paths = (
{
closed = 1;
nodes = (
"257 710 LINE",
"129 544 LINE",
"86 572 LINE",
"160 668 LINE",
"126 690 LINE",
"196 749 LINE"
);
},
{
closed = 1;
nodes = (
"423 710 LINE",
"295 544 LINE",
"252 572 LINE",
"326 668 LINE",
"292 690 LINE",
"362 749 LINE"
);
}
);
userData = {
com.fontlab.hintData = {
hhints = (
{
position = 544;
width = 205;
}
);
};
};
width = 348;
}
);
unicode = 201D;
},
{
glyphname = quoteleft;
layers = (
{
layerId = master01;
paths = (
{
closed = 1;
nodes = (
"88 583 LINE",
"217 749 LINE",
"260 721 LINE",
"185 625 LINE",
"220 603 LINE",
"150 544 LINE"
);
}
);
userData = {
com.fontlab.hintData = {
hhints = (
{
position = 544;
width = 205;
}
);
vhints = (
{
position = 88;
width = 172;
}
);
};
};
width = 182;
}
);
unicode = 2018;
},
{
glyphname = quoteright;
layers = (
{
layerId = master01;
paths = (
{
closed = 1;
nodes = (
"257 710 LINE",
"129 544 LINE",
"86 572 LINE",
"160 668 LINE",
"126 690 LINE",
"196 749 LINE"
);
}
);
userData = {
com.fontlab.hintData = {
hhints = (
{
position = 544;
width = 205;
}
);
vhints = (
{
position = 86;
width = 171;
}
);
};
};
width = 182;
}
);
unicode = 2019;
},
{
glyphname = guillemotleft;
layers = (
{
layerId = master01;
paths = (
{
closed = 1;
nodes = (
"70 252 LINE",
"333 442 LINE",
"360 402 LINE",
"151 251 LINE",
"280 106 LINE",
"236 66 LINE"
);
},
{
closed = 1;
nodes = (
"275 252 LINE",
"538 442 LINE",
"565 402 LINE",
"356 251 LINE",
"485 106 LINE",
"441 66 LINE"
);
}
);
width = 609;
}
);
unicode = 00AB;
},
{
glyphname = guillemotright;
layers = (
{
layerId = master01;
paths = (
{
closed = 1;
nodes = (
"59 106 LINE",
"250 251 LINE",
"106 402 LINE",
"149 442 LINE",
"332 252 LINE",
"88 66 LINE"
);
},
{
closed = 1;
nodes = (
"264 106 LINE",
"455 251 LINE",
"311 402 LINE",
"354 442 LINE",
"537 252 LINE",
"292 66 LINE"
);
}
);
width = 609;
}
);
unicode = 00BB;
},
{
glyphname = guilsinglleft;
layers = (
{
layerId = master01;
paths = (
{
closed = 1;
nodes = (
"70 250 LINE",
"333 440 LINE",
"360 400 LINE",
"150 249 LINE",
"280 104 LINE",
"235 64 LINE"
);
}
);
userData = {
com.fontlab.hintData = {
vhints = (
{
position = 70;
width = 290;
}
);
};
};
width = 404;
}
);
unicode = 2039;
},
{
glyphname = guilsinglright;
layers = (
{
layerId = master01;
paths = (
{
closed = 1;
nodes = (
"59 106 LINE",
"250 251 LINE",
"106 402 LINE",
"149 442 LINE",
"332 252 LINE",
"88 66 LINE"
);
}
);
userData = {
com.fontlab.hintData = {
vhints = (
{
position = 59;
width = 273;
}
);
};
};
width = 404;
}
);
unicode = 203A;
},
{
glyphname = quotedbl;
layers = (
{
layerId = master01;
paths = (
{
closed = 1;
nodes = (
"120 500 LINE",
"158 680 LINE",
"214 690 LINE",
"176 510 LINE"
);
},
{
closed = 1;
nodes = (
"240 500 LINE",
"278 680 LINE",
"334 690 LINE",
"296 510 LINE"
);
}
);
userData = {
com.fontlab.hintData = {
hhints = (
{
position = 500;
width = 190;
}
);
vhints = (
{
position = 120;
width = 214;
}
);
};
};
width = 312;
}
);
unicode = 0022;
},
{
glyphname = quotesingle;
layers = (
{
layerId = master01;
paths = (
{
closed = 1;
nodes = (
"120 500 LINE",
"158 680 LINE",
"214 690 LINE",
"176 510 LINE"
);
}
);
userData = {
com.fontlab.hintData = {
hhints = (
{
position = 500;
width = 190;
}
);
vhints = (
{
position = 120;
width = 94;
}
);
};
};
width = 192;
}
);
unicode = 0027;
},
{
glyphname = .notdef;
layers = (
{
layerId = master01;
paths = (
{
closed = 1;
nodes = (
"480 681 LINE",
"480 0 LINE",
"18 0 LINE",
"18 681 LINE"
);
},
{
closed = 1;
nodes = (
"440 66 LINE",
"440 599 LINE",
"271 340 LINE"
);
},
{
closed = 1;
nodes = (
"75 40 LINE",
"409 40 LINE",
"247 303 LINE"
);
},
{
closed = 1;
nodes = (
"248 378 LINE",
"420 641 LINE",
"86 641 LINE"
);
},
{
closed = 1;
nodes = (
"58 610 LINE",
"58 87 LINE",
"224 341 LINE"
);
}
);
userData = {
com.fontlab.hintData = {
hhints = (
{
position = 0;
width = 40;
},
{
position = 641;
width = 40;
}
);
vhints = (
{
position = 18;
width = 40;
},
{
position = 440;
width = 40;
}
);
};
};
width = 500;
}
);
},
{
glyphname = Euro;
layers = (
{
layerId = master01;
paths = (
{
closed = 1;
nodes = (
"238 0 OFFCURVE",
"139 101 OFFCURVE",
"139 225 CURVE SMOOTH",
"139 237 OFFCURVE",
"140 249 OFFCURVE",
"142 261 CURVE",
"61 261 LINE",
"83 318 LINE",
"153 318 LINE",
"159 342 OFFCURVE",
"168 365 OFFCURVE",
"176 385 CURVE",
"87 385 LINE",
"109 442 LINE",
"204 442 LINE",
"241 514 OFFCURVE",
"376 691 OFFCURVE",
"526 691 CURVE SMOOTH",
"591 691 OFFCURVE",
"644 669 OFFCURVE",
"678 630 CURVE",
"632 594 LINE",
"609 617 OFFCURVE",
"572 637 OFFCURVE",
"510 637 CURVE SMOOTH",
"416 637 OFFCURVE",
"305 519 OFFCURVE",
"260 442 CURVE",
"488 442 LINE",
"466 385 LINE",
"230 385 LINE",
"219 361 OFFCURVE",
"212 339 OFFCURVE",
"205 318 CURVE",
"442 318 LINE",
"419 261 LINE",
"195 261 LINE",
"194 254 OFFCURVE",
"194 247 OFFCURVE",
"194 240 CURVE SMOOTH",
"194 146 OFFCURVE",
"273 54 OFFCURVE",
"373 54 CURVE SMOOTH",
"432 54 OFFCURVE",
"478 68 OFFCURVE",
"516 89 CURVE",
"547 51 LINE",
"495 19 OFFCURVE",
"430 0 OFFCURVE",
"368 0 CURVE SMOOTH"
);
}
);
userData = {
com.fontlab.hintData = {
hhints = (
{
position = 0;
width = 54;
},
{
position = 261;
width = 57;
},
{
position = 385;
width = 57;
},
{
position = 637;
width = 54;
}
);
vhints = (
{
position = 139;
width = 55;
}
);
};
};
width = 663;
}
);
unicode = 20AC;
},
{
glyphname = cent;
layers = (
{
layerId = master01;
paths = (
{
closed = 1;
nodes = (
"220 17 LINE",
"170 0 LINE",
"194 101 LINE",
"100 128 OFFCURVE",
"57 190 OFFCURVE",
"57 267 CURVE SMOOTH",
"57 387 OFFCURVE",
"166 554 OFFCURVE",
"311 595 CURVE",
"329 670 LINE",
"380 688 LINE",
"359 599 LINE",
"415 597 OFFCURVE",
"460 570 OFFCURVE",
"483 527 CURVE",
"434 488 LINE",
"420 523 OFFCURVE",
"387 544 OFFCURVE",
"346 547 CURVE",
"251 149 LINE",
"312 149 OFFCURVE",
"375 186 OFFCURVE",
"411 234 CURVE",
"442 194 LINE",
"393 138 OFFCURVE",
"320 100 OFFCURVE",
"239 97 CURVE"
);
},
{
closed = 1;
nodes = (
"298 540 LINE",
"208 505 OFFCURVE",
"112 384 OFFCURVE",
"112 279 CURVE SMOOTH",
"112 225 OFFCURVE",
"140 178 OFFCURVE",
"206 154 CURVE"
);
}
);
userData = {
com.fontlab.hintData = {
hhints = (
{
position = 0;
width = 21;
},
{
position = 97;
width = 52;
},
{
position = 547;
width = 52;
}
);
vhints = (
{
position = 57;
width = 55;
}
);
};
};
width = 506;
}
);
unicode = 00A2;
},
{
glyphname = currency;
layers = (
{
layerId = master01;
paths = (
{
closed = 1;
nodes = (
"410 239 OFFCURVE",
"391 197 OFFCURVE",
"358 159 CURVE",
"413 89 LINE",
"370 53 LINE",
"314 122 LINE",
"284 103 OFFCURVE",
"249 91 OFFCURVE",
"214 91 CURVE SMOOTH",
"178 91 OFFCURVE",
"148 103 OFFCURVE",
"125 122 CURVE",
"41 52 LINE",
"12 88 LINE",
"98 159 LINE",
"89 176 OFFCURVE",
"84 196 OFFCURVE",
"84 218 CURVE SMOOTH",
"84 265 OFFCURVE",
"106 311 OFFCURVE",
"139 345 CURVE",
"82 418 LINE",
"126 454 LINE",
"183 381 LINE",
"214 400 OFFCURVE",
"248 410 OFFCURVE",
"282 410 CURVE SMOOTH",
"316 410 OFFCURVE",
"346 400 OFFCURVE",
"367 381 CURVE",
"455 454 LINE",
"483 418 LINE",
"396 345 LINE",
"405 327 OFFCURVE",
"410 306 OFFCURVE",
"410 284 CURVE SMOOTH"
);
},
{
closed = 1;
nodes = (
"292 142 OFFCURVE",
"358 204 OFFCURVE",
"358 274 CURVE SMOOTH",
"358 323 OFFCURVE",
"323 359 OFFCURVE",
"271 359 CURVE SMOOTH",
"204 359 OFFCURVE",
"136 298 OFFCURVE",
"136 228 CURVE SMOOTH",
"136 179 OFFCURVE",
"173 142 OFFCURVE",
"225 142 CURVE SMOOTH"
);
}
);
userData = {
com.fontlab.hintData = {
hhints = (
{
position = 91;
width = 51;
},
{
position = 359;
width = 51;
}
);
vhints = (
{
position = 84;
width = 52;
},
{
position = 358;
width = 52;
}
);
};
};
width = 500;
}
);
unicode = 00A4;
},
{
glyphname = dollar;
layers = (
{
layerId = master01;
paths = (
{
closed = 1;
nodes = (
"475 347 OFFCURVE",
"531 295 OFFCURVE",
"531 224 CURVE SMOOTH",
"531 95 OFFCURVE",
"399 14 OFFCURVE",
"282 1 CURVE",
"268 -65 LINE",
"213 -75 LINE",
"229 0 LINE",
"124 8 OFFCURVE",
"51 67 OFFCURVE",
"41 152 CURVE",
"104 162 LINE",
"114 95 OFFCURVE",
"175 61 OFFCURVE",
"240 54 CURVE",
"300 338 LINE",
"224 363 OFFCURVE",
"150 407 OFFCURVE",
"150 483 CURVE SMOOTH",
"150 622 OFFCURVE",
"296 674 OFFCURVE",
"373 678 CURVE",
"386 741 LINE",
"441 751 LINE",
"426 681 LINE",
"490 679 OFFCURVE",
"601 661 OFFCURVE",
"601 568 CURVE SMOOTH",
"601 554 OFFCURVE",
"599 534 OFFCURVE",
"593 521 CURVE",
"538 510 LINE",
"541 522 OFFCURVE",
"546 536 OFFCURVE",
"546 548 CURVE SMOOTH",
"546 601 OFFCURVE",
"484 630 OFFCURVE",
"416 631 CURVE",
"363 383 LINE"
);
},
{
closed = 1;
nodes = (
"295 619 OFFCURVE",
"215 571 OFFCURVE",
"215 492 CURVE SMOOTH",
"215 453 OFFCURVE",
"244 425 OFFCURVE",
"313 399 CURVE",
"362 628 LINE"
);
},
{
closed = 1;
nodes = (
"368 67 OFFCURVE",
"466 119 OFFCURVE",
"466 213 CURVE SMOOTH",
"466 274 OFFCURVE",
"410 300 OFFCURVE",
"350 322 CURVE",
"293 55 LINE"
);
}
);
userData = {
com.fontlab.hintData = {
hhints = (
{
position = 0;
width = 54;
},
{
position = 631;
width = 50;
}
);
vhints = (
{
position = 41;
width = 63;
},
{
position = 150;
width = 65;
},
{
position = 466;
width = 65;
},
{
position = 546;
width = 55;
}
);
};
};
width = 605;
}
);
unicode = 0024;
},
{
glyphname = sterling;
layers = (
{
layerId = master01;
paths = (
{
closed = 1;
nodes = (
"666 148 LINE",
"618 7 OFFCURVE",
"518 -10 OFFCURVE",
"473 -10 CURVE SMOOTH",
"421 -10 OFFCURVE",
"367 11 OFFCURVE",
"323 52 CURVE SMOOTH",
"308 66 OFFCURVE",
"289 71 OFFCURVE",
"269 71 CURVE SMOOTH",
"245 71 OFFCURVE",
"178 55 OFFCURVE",
"112 0 CURVE",
"85 41 LINE",
"196 117 OFFCURVE",
"216 199 OFFCURVE",
"216 269 CURVE SMOOTH",
"216 286 OFFCURVE",
"215 305 OFFCURVE",
"213 328 CURVE",
"87 328 LINE",
"108 381 LINE",
"210 381 LINE",
"223 609 OFFCURVE",
"332 726 OFFCURVE",
"510 726 CURVE SMOOTH",
"657 726 OFFCURVE",
"692 623 OFFCURVE",
"692 548 CURVE SMOOTH",
"692 537 OFFCURVE",
"691 526 OFFCURVE",
"690 517 CURVE",
"636 513 LINE",
"637 521 OFFCURVE",
"637 528 OFFCURVE",
"637 536 CURVE SMOOTH",
"637 620 OFFCURVE",
"595 672 OFFCURVE",
"491 672 CURVE SMOOTH",
"324 672 OFFCURVE",
"270 529 OFFCURVE",
"265 381 CURVE",
"526 381 LINE",
"505 328 LINE",
"266 328 LINE",
"268 303 OFFCURVE",
"268 282 OFFCURVE",
"268 265 CURVE SMOOTH",
"268 201 OFFCURVE",
"259 170 OFFCURVE",
"226 117 CURVE",
"245 122 OFFCURVE",
"263 125 OFFCURVE",
"280 125 CURVE SMOOTH",
"313 125 OFFCURVE",
"342 114 OFFCURVE",
"364 94 CURVE SMOOTH",
"399 61 OFFCURVE",
"444 44 OFFCURVE",
"485 44 CURVE SMOOTH",
"545 44 OFFCURVE",
"589 81 OFFCURVE",
"614 155 CURVE"
);
}
);
userData = {
com.fontlab.hintData = {
hhints = (
{
position = -10;
width = 54;
},
{
position = 0;
width = 21;
},
{
position = 71;
width = 54;
},
{
position = 328;
width = 53;
},
{
position = 672;
width = 54;
}
);
vhints = (
{
position = 216;
width = 52;
},
{
position = 637;
width = 55;
}
);
};
};
width = 764;
}
);
unicode = 00A3;
},
